<?xml version="1.0" encoding="UTF-8" standalone="no"?>
<!-- Created with Inkscape (http://www.inkscape.org/) -->

<svg
   width="30.48mm"
   height="128.5mm"
   viewBox="0 0 30.48 128.5"
   version="1.1"
   id="svg5"
   inkscape:version="1.2.2 (b0a8486541, 2022-12-01)"
   sodipodi:docname="EyeSeq.svg"
   xmlns:inkscape="http://www.inkscape.org/namespaces/inkscape"
   xmlns:sodipodi="http://sodipodi.sourceforge.net/DTD/sodipodi-0.dtd"
   xmlns="http://www.w3.org/2000/svg"
   xmlns:svg="http://www.w3.org/2000/svg">
  <sodipodi:namedview
     id="namedview7"
     pagecolor="#ffffff"
     bordercolor="#000000"
     borderopacity="0.25"
     inkscape:showpageshadow="2"
     inkscape:pageopacity="0.0"
     inkscape:pagecheckerboard="0"
     inkscape:deskcolor="#d1d1d1"
     inkscape:document-units="mm"
     showgrid="false"
     inkscape:zoom="1.1893044"
     inkscape:cx="-173.21049"
     inkscape:cy="221.55808"
     inkscape:window-width="1680"
     inkscape:window-height="1034"
     inkscape:window-x="0"
     inkscape:window-y="16"
     inkscape:window-maximized="1"
     inkscape:current-layer="layer2" />
  <defs
     id="defs2" />
  <g
     inkscape:label="Layer 1"
     inkscape:groupmode="layer"
     id="layer1">
    <rect
       style="fill:#808080;stroke-width:0.150139"
       id="rect251"
       width="30.48"
       height="128.5"
       x="8.8817842e-15"
       y="5.3290705e-15"
       inkscape:label="background" />
    <rect
       style="display:inline;fill:#333333;stroke-width:0.133715"
       id="rect1809"
       width="12.256569"
       height="13.742828"
       x="16.929029"
       y="110.11479"
       inkscape:label="output background" />
    <g
       aria-label="Div       Offset"
       id="text2168"
       style="font-size:4.23333px;display:inline;stroke-width:0.264583"
       inkscape:label="label">
      <path
         d="m 4.3664221,35.511494 h 1.1895657 c 0.7789327,0 1.2572989,-0.5842 1.2572989,-1.545166 0,-0.956732 -0.4741329,-1.540932 -1.2572989,-1.540932 H 4.3664221 Z m 0.3936997,-0.347133 v -2.391832 h 0.7281327 c 0.6095995,0 0.9313326,0.410633 0.9313326,1.198033 0,0.778932 -0.3217331,1.193799 -0.9313326,1.193799 z"
         id="path2818" />
      <path
         d="M 7.6176192,33.293229 H 7.2662529 v 2.218265 h 0.3513663 z m 0,-0.867833 H 7.2620195 v 0.4445 h 0.3555997 z"
         id="path2820" />
      <path
         d="M 9.1289185,35.511494 9.9798178,33.293229 H 9.5818848 L 8.955352,35.092394 8.3626858,33.293229 h -0.397933 l 0.7789327,2.218265 z"
         id="path2822" />
      <path
         d="m 20.580076,34.017128 c 0,-0.994832 -0.588432,-1.642532 -1.494365,-1.642532 -0.884766,0 -1.485899,0.651933 -1.485899,1.617132 0,0.965199 0.601133,1.617132 1.490132,1.617132 0.922866,0 1.490132,-0.702732 1.490132,-1.591732 z m -1.494365,-1.295399 c 0.668866,0 1.100666,0.508 1.100666,1.286933 0,0.745066 -0.4445,1.253065 -1.096433,1.253065 -0.656166,0 -1.096432,-0.507999 -1.096432,-1.269999 0,-0.761999 0.440266,-1.269999 1.092199,-1.269999 z"
         id="path2824" />
      <path
         d="m 22.760244,33.293229 h -0.3683 v -0.347133 c 0,-0.148167 0.08467,-0.224367 0.245534,-0.224367 0.02963,0 0.04233,0 0.122766,0.0042 v -0.2921 c -0.08043,-0.01693 -0.127,-0.02117 -0.198966,-0.02117 -0.325967,0 -0.5207,0.186267 -0.5207,0.503767 v 0.376766 h -0.567266 v -0.347133 c 0,-0.148167 0.08467,-0.224367 0.245533,-0.224367 0.02963,0 0.04233,0 0.122767,0.0042 v -0.2921 c -0.08043,-0.01693 -0.127,-0.02117 -0.198967,-0.02117 -0.325966,0 -0.520699,0.186267 -0.520699,0.503767 v 0.376766 h -0.296334 v 0.287866 h 0.296334 v 1.930399 h 0.351366 v -1.930399 h 0.567266 v 1.930399 h 0.351366 v -1.930399 h 0.3683 z"
         id="path2826" />
      <path
         d="m 23.36138,34.851094 h -0.372533 c 0.01693,0.512233 0.304799,0.757766 0.884766,0.757766 0.558799,0 0.914399,-0.275166 0.914399,-0.702732 0,-0.3302 -0.186267,-0.512233 -0.626533,-0.618067 l -0.338666,-0.08043 c -0.287867,-0.06773 -0.410633,-0.160866 -0.410633,-0.3175 0,-0.203199 0.182033,-0.334433 0.469899,-0.334433 0.283633,0 0.436033,0.122767 0.4445,0.3556 h 0.372533 c -0.0042,-0.436033 -0.2921,-0.681566 -0.804333,-0.681566 -0.516466,0 -0.850899,0.2667 -0.850899,0.677333 0,0.347133 0.1778,0.512233 0.702733,0.639232 l 0.330199,0.08043 c 0.245534,0.05927 0.3429,0.148166 0.3429,0.309033 0,0.207433 -0.207433,0.347133 -0.516466,0.347133 -0.4318,0 -0.512233,-0.2159 -0.541866,-0.4318 z"
         id="path2828" />
      <path
         d="m 27.061311,34.520895 c 0,-0.804333 -0.300567,-1.291166 -0.986366,-1.291166 -0.618066,0 -1.015999,0.474133 -1.015999,1.202266 0,0.728132 0.385233,1.176865 1.007532,1.176865 0.508,0 0.859366,-0.287866 0.948266,-0.770466 h -0.3556 c -0.09737,0.2921 -0.296333,0.4445 -0.579966,0.4445 -0.410633,0 -0.643466,-0.309033 -0.651933,-0.761999 z m -1.625599,-0.287867 c 0.02963,-0.410633 0.2794,-0.677333 0.635,-0.677333 0.364066,0 0.613832,0.296333 0.613832,0.677333 z"
         id="path2830" />
      <path
         d="m 28.28898,33.293229 h -0.364066 v -0.6096 h -0.351367 v 0.6096 h -0.300566 v 0.287866 h 0.300566 v 1.676399 c 0,0.224366 0.1524,0.351366 0.427567,0.351366 0.08467,0 0.169333,-0.0085 0.287866,-0.02963 v -0.296333 c -0.04657,0.0127 -0.1016,0.01693 -0.169333,0.01693 -0.1524,0 -0.194733,-0.04233 -0.194733,-0.198966 v -1.519766 h 0.364066 z"
         id="path2832" />
    </g>
    <g
       aria-label="EyeSeq"
       id="text299"
       style="font-size:5.64444px;stroke-width:0.264583"
       inkscape:label="title">
      <path
         d="M 6.114471,9.1523682 H 8.3553137 V 8.6895241 H 6.114471 V 7.3743696 H 8.4399803 V 6.9115255 H 5.5895381 V 11.026322 H 8.5415803 V 10.563478 H 6.114471 Z"
         id="path2788" />
      <path
         d="M 10.844509,8.0686357 10.026065,10.371567 9.2697099,8.0686357 H 8.7673547 L 9.7664206,11.037611 9.5857985,11.5061 c -0.079022,0.208844 -0.180622,0.287866 -0.3781774,0.287866 -0.067733,0 -0.1467555,-0.01129 -0.2483554,-0.03387 v 0.423333 c 0.095956,0.0508 0.191911,0.07338 0.3160886,0.07338 0.3217331,0 0.5983107,-0.174977 0.7619997,-0.609599 l 1.315154,-3.5785753 z"
         id="path2790" />
      <path
         d="m 14.248109,9.7055234 c 0,-1.0724437 -0.400755,-1.7215543 -1.315154,-1.7215543 -0.824088,0 -1.354666,0.6321773 -1.354666,1.603021 0,0.9708439 0.513644,1.5691539 1.343377,1.5691539 0.677333,0 1.145821,-0.383821 1.264355,-1.027288 h -0.474133 c -0.129822,0.389467 -0.395111,0.592667 -0.773289,0.592667 -0.54751,0 -0.857955,-0.412045 -0.869243,-1.0159996 z m -2.167465,-0.383822 c 0.03951,-0.5475107 0.372533,-0.9031104 0.846666,-0.9031104 0.485422,0 0.818444,0.3951108 0.818444,0.9031104 z"
         id="path2792" />
      <path
         d="m 16.347847,10.6933 c -0.931333,0 -1.162755,-0.530577 -1.162755,-0.9482656 v -0.028222 h -0.49671 c 0.01693,1.1683988 0.914399,1.4393318 1.625598,1.4393318 1.286933,0 1.608666,-0.756354 1.608666,-1.2587097 0,-0.5079996 -0.316089,-0.8805326 -0.874888,-1.0329325 L 16.014825,8.5879242 C 15.518114,8.4524576 15.337492,8.2944133 15.337492,7.9783247 c 0,-0.4176886 0.366889,-0.6942662 0.920044,-0.6942662 0.654755,0 1.021644,0.2991554 1.027288,0.8353772 h 0.496711 c -0.0056,-0.807155 -0.5588,-1.2756435 -1.507066,-1.2756435 -0.90311,0 -1.46191,0.4628441 -1.46191,1.2079102 0,0.5023552 0.265289,0.8184438 0.807155,0.9595548 l 1.021644,0.2709332 c 0.519288,0.1354665 0.756355,0.3443108 0.756355,0.6660439 0,0.2935107 -0.158044,0.7450657 -1.049866,0.7450657 z"
         id="path2794" />
      <path
         d="m 21.021442,9.7055234 c 0,-1.0724437 -0.400755,-1.7215543 -1.315155,-1.7215543 -0.824088,0 -1.354665,0.6321773 -1.354665,1.603021 0,0.9708439 0.513644,1.5691539 1.343377,1.5691539 0.677332,0 1.145821,-0.383821 1.264354,-1.027288 H 20.48522 c -0.129822,0.389467 -0.395111,0.592667 -0.773288,0.592667 -0.547511,0 -0.857955,-0.412045 -0.869244,-1.0159996 z m -2.167465,-0.383822 c 0.03951,-0.5475107 0.372533,-0.9031104 0.846666,-0.9031104 0.485422,0 0.818444,0.3951108 0.818444,0.9031104 z"
         id="path2796" />
      <path
         d="M 24.007356,12.25681 V 8.0686357 H 23.589667 V 8.4637465 C 23.369534,8.1533023 23.036512,7.9839691 22.647046,7.9839691 c -0.778933,0 -1.286933,0.6378218 -1.286933,1.6199543 0,0.9595546 0.485422,1.5522206 1.264355,1.5522206 0.412044,0 0.694266,-0.146755 0.914399,-0.468488 V 12.25681 Z M 22.714779,8.4242354 c 0.502355,0 0.824088,0.4515553 0.824088,1.1627547 0,0.6773329 -0.327377,1.1288879 -0.824088,1.1288879 -0.519288,0 -0.863599,-0.457199 -0.863599,-1.1458212 0,-0.6829773 0.344311,-1.1458214 0.863599,-1.1458214 z"
         id="path2798" />
    </g>
    <g
       aria-label="Clk       Reset "
       id="text2708"
       style="font-size:4.23333px;stroke-width:0.264583">
      <path
         d="m 3.8133759,18.477744 c 0,0.630767 0.2793998,1.604432 1.3927655,1.604432 0.7535327,0 1.1768657,-0.406399 1.2699989,-1.223432 H 6.0697407 c -0.093133,0.5842 -0.3428997,0.876299 -0.859366,0.876299 -0.6138328,0 -1.0032991,-0.491066 -1.0032991,-1.261532 0,-0.791633 0.372533,-1.278465 0.9694325,-1.278465 0.4995329,0 0.745066,0.228599 0.833966,0.660399 H 6.4126404 C 6.2898738,17.178112 5.9004075,16.847913 5.2230747,16.847913 c -1.1260657,0 -1.4096988,0.986365 -1.4096988,1.629831 z"
         id="path2801" />
      <path
         d="M 7.2550715,16.898712 H 6.8994718 v 3.086098 h 0.3555997 z"
         id="path2803" />
      <path
         d="M 8.1567737,16.898712 H 7.8054074 v 3.086098 h 0.3513663 v -0.863599 l 0.3428997,-0.338667 0.7492994,1.202266 h 0.436033 L 8.7790732,18.532778 9.5495392,17.766545 H 9.0965729 l -0.9397992,0.939799 z"
         id="path2805" />
      <path
         d="m 19.349697,18.460811 c 0.347133,-0.169333 0.486833,-0.385233 0.486833,-0.736599 0,-0.5334 -0.334433,-0.8255 -0.939799,-0.8255 h -1.422399 v 3.086098 h 0.3937 v -1.329266 h 1.015999 c 0.351366,0 0.507999,0.169334 0.507999,0.550333 v 0.275167 c 0,0.190499 0.02963,0.376766 0.08467,0.503766 h 0.478366 v -0.09737 c -0.1651,-0.110066 -0.186266,-0.287866 -0.186266,-0.486833 0,-0.06773 0.0042,-0.143933 0.0042,-0.215899 0,-0.2794 -0.0381,-0.5588 -0.423333,-0.7239 z m 0.0762,-0.681566 c 0,0.364066 -0.186266,0.529166 -0.605366,0.529166 h -0.952499 v -1.062565 h 0.952499 c 0.3302,0 0.605366,0.09313 0.605366,0.533399 z"
         id="path2807" />
      <path
         d="m 22.266461,18.994211 c 0,-0.804333 -0.300566,-1.291166 -0.986366,-1.291166 -0.618066,0 -1.015999,0.474133 -1.015999,1.202266 0,0.728133 0.385233,1.176865 1.007533,1.176865 0.507999,0 0.859365,-0.287866 0.948265,-0.770466 h -0.355599 c -0.09737,0.2921 -0.296333,0.4445 -0.579966,0.4445 -0.410633,0 -0.643467,-0.309033 -0.651933,-0.761999 z m -1.625599,-0.287867 c 0.02963,-0.410633 0.2794,-0.677332 0.635,-0.677332 0.364066,0 0.613833,0.296333 0.613833,0.677332 z"
         id="path2809" />
      <path
         d="m 22.909931,19.32441 h -0.372533 c 0.01693,0.512233 0.3048,0.757766 0.884766,0.757766 0.558799,0 0.914399,-0.275166 0.914399,-0.702732 0,-0.3302 -0.186266,-0.512233 -0.626533,-0.618066 l -0.338666,-0.08043 c -0.287866,-0.06773 -0.410633,-0.160866 -0.410633,-0.317499 0,-0.2032 0.182033,-0.334433 0.4699,-0.334433 0.283633,0 0.436033,0.122766 0.444499,0.355599 h 0.372533 c -0.0042,-0.436033 -0.2921,-0.681566 -0.804332,-0.681566 -0.516467,0 -0.8509,0.2667 -0.8509,0.677333 0,0.347133 0.1778,0.512233 0.702733,0.639233 l 0.3302,0.08043 c 0.245533,0.05927 0.342899,0.148166 0.342899,0.309033 0,0.207433 -0.207433,0.347133 -0.516466,0.347133 -0.431799,0 -0.512233,-0.2159 -0.541866,-0.4318 z"
         id="path2811" />
      <path
         d="m 26.60986,18.994211 c 0,-0.804333 -0.300566,-1.291166 -0.986366,-1.291166 -0.618066,0 -1.015999,0.474133 -1.015999,1.202266 0,0.728133 0.385233,1.176865 1.007533,1.176865 0.507999,0 0.859366,-0.287866 0.948265,-0.770466 h -0.355599 c -0.09737,0.2921 -0.296333,0.4445 -0.579966,0.4445 -0.410633,0 -0.643467,-0.309033 -0.651933,-0.761999 z m -1.625599,-0.287867 c 0.02963,-0.410633 0.2794,-0.677332 0.635,-0.677332 0.364066,0 0.613833,0.296333 0.613833,0.677332 z"
         id="path2813" />
      <path
         d="m 27.83753,17.766545 h -0.364067 v -0.609599 h -0.351366 v 0.609599 H 26.82153 v 0.287866 h 0.300567 v 1.676399 c 0,0.224367 0.1524,0.351366 0.427566,0.351366 0.08467,0 0.169333,-0.0085 0.287867,-0.02963 V 19.75621 c -0.04657,0.0127 -0.1016,0.01693 -0.169334,0.01693 -0.152399,0 -0.194733,-0.04233 -0.194733,-0.198966 v -1.519766 h 0.364067 z"
         id="path2815" />
    </g>
    <g
       aria-label="Atten"
       id="text2714"
       style="font-size:4.23333px;stroke-width:0.264583"
       transform="translate(0,-2.6458334)">
      <path
         d="m 4.5362658,113.6702 0.3174997,0.9271 H 5.2940318 L 4.2102994,111.5112 H 3.7022998 l -1.1006658,3.0861 h 0.4190997 l 0.3259664,-0.9271 z M 4.4261992,113.34 H 3.4440667 l 0.5079995,-1.40547 z"
         id="path2835" />
      <path
         d="M 6.458199,112.37903 H 6.0941326 v -0.6096 H 5.7427662 v 0.6096 H 5.4421998 v 0.28787 h 0.3005664 v 1.6764 c 0,0.22436 0.1523999,0.35136 0.4275663,0.35136 0.084667,0 0.1693332,-0.008 0.2878665,-0.0296 v -0.29633 c -0.046567,0.0127 -0.1016,0.0169 -0.1693332,0.0169 -0.1523999,0 -0.1947332,-0.0423 -0.1947332,-0.19897 V 112.6669 H 6.458199 Z"
         id="path2837" />
      <path
         d="M 7.6435344,112.37903 H 7.279468 v -0.6096 H 6.9281016 v 0.6096 H 6.6275352 v 0.28787 h 0.3005664 v 1.6764 c 0,0.22436 0.1523999,0.35136 0.4275663,0.35136 0.084667,0 0.1693332,-0.008 0.2878665,-0.0296 v -0.29633 c -0.046567,0.0127 -0.1016,0.0169 -0.1693332,0.0169 -0.1523999,0 -0.1947332,-0.0423 -0.1947332,-0.19897 v -1.51976 h 0.3640664 z"
         id="path2839" />
      <path
         d="m 9.8575686,113.6067 c 0,-0.80433 -0.3005664,-1.29117 -0.9863658,-1.29117 -0.6180661,0 -1.0159991,0.47414 -1.0159991,1.20227 0,0.72813 0.385233,1.17686 1.0075325,1.17686 0.5079995,0 0.8593659,-0.28786 0.9482658,-0.77046 H 9.4554023 c -0.097367,0.2921 -0.2963331,0.4445 -0.5799662,0.4445 -0.4106329,0 -0.6434661,-0.30904 -0.6519327,-0.762 z M 8.23197,113.31883 c 0.029633,-0.41063 0.2793998,-0.67733 0.6349995,-0.67733 0.3640663,0 0.6138328,0.29633 0.6138328,0.67733 z"
         id="path2841" />
      <path
         d="m 10.238573,112.37903 v 2.21827 h 0.355599 v -1.22343 c 0,-0.45297 0.237067,-0.7493 0.601133,-0.7493 0.2794,0 0.4572,0.16933 0.4572,0.43603 v 1.5367 h 0.351366 v -1.6764 c 0,-0.3683 -0.275166,-0.60537 -0.702733,-0.60537 -0.330199,0 -0.541866,0.127 -0.736599,0.43604 v -0.37254 z"
         id="path2843" />
    </g>
  </g>
  <g
     inkscape:groupmode="layer"
     id="layer2"
     inkscape:label="components"
     style="display:none">
    <circle
       style="display:inline;fill:#0000ff;stroke-width:0.264583"
       id="path2787-83-7-1-3"
       cx="23.057314"
       cy="116.98621"
       r="3.8932071"
       inkscape:label="output" />
    <circle
       style="display:inline;fill:#ff0000;stroke-width:0.264583"
       id="path2787-83-5-3-3"
       cx="7.4226861"
       cy="116.98621"
       r="3.8932071"
       inkscape:label="atten" />
    <circle
       style="display:inline;fill:#ff00ff;fill-opacity:1;stroke-width:0.159167"
       id="path2787-83-75-6-2-0-0-3"
       cx="15.239996"
       cy="104.78289"
       r="2.3420618"
       inkscape:label="led6" />
    <circle
       style="display:inline;fill:#ff00ff;fill-opacity:1;stroke-width:0.159167"
       id="path2787-83-75-6-2-0-0"
       cx="15.24"
       cy="91.854843"
       r="2.3420618"
       inkscape:label="led5" />
    <circle
       style="display:inline;fill:#ff00ff;fill-opacity:1;stroke-width:0.159167"
       id="path2787-83-75-6-2-0-6"
       cx="15.24"
       cy="78.926796"
       r="2.3420618"
       inkscape:label="led4" />
    <circle
       style="display:inline;fill:#ff00ff;fill-opacity:1;stroke-width:0.159167"
       id="path2787-83-75-6-2-0"
       cx="15.24"
       cy="65.998741"
       r="2.3420618"
       inkscape:label="led3" />
    <circle
       style="display:inline;fill:#ff00ff;fill-opacity:1;stroke-width:0.159167"
       id="path2787-83-75-6-2-0-3"
       cx="15.24"
       cy="53.070694"
       r="2.3420618"
       inkscape:label="led2" />
    <circle
       style="display:inline;fill:#ff00ff;fill-opacity:1;stroke-width:0.159167"
       id="path2787-83-75-6-2-0-9"
       cx="15.24"
       cy="40.142647"
       r="2.3420618"
       inkscape:label="led1" />
    <circle
       style="display:inline;fill:#ff0000;stroke-width:0.264583"
       id="path2787-83-75-6-7-6"
       cx="23.057306"
       cy="104.78289"
       r="3.8932071"
       inkscape:label="offset6" />
    <circle
       style="display:inline;fill:#ff0000;stroke-width:0.264583"
       id="path2787-83-75-6-7"
       cx="23.057314"
       cy="91.854843"
       r="3.8932071"
       inkscape:label="offset5" />
    <circle
       style="display:inline;fill:#ff0000;stroke-width:0.264583"
       id="path2787-83-75-6-2"
       cx="23.057314"
       cy="78.926796"
       r="3.8932071"
       inkscape:label="offset4" />
    <circle
       style="display:inline;fill:#ff0000;stroke-width:0.264583"
       id="path2787-83-5"
       cx="23.057314"
       cy="65.998749"
       r="3.8932071"
       inkscape:label="offset3" />
    <circle
       style="display:inline;fill:#ff0000;stroke-width:0.264583"
       id="path2787-83-7"
       cx="23.057314"
       cy="53.070698"
       r="3.8932071"
       inkscape:label="offset2" />
    <circle
       style="display:inline;fill:#ff0000;stroke-width:0.264583"
       id="path2787-83-7-62"
       cx="23.057314"
       cy="40.142651"
       r="3.8932071"
       inkscape:label="offset1" />
    <circle
       style="display:inline;fill:#ff0000;stroke-width:0.264583"
       id="path2787-83-7-6-5-7"
       cx="7.4226933"
       cy="104.78289"
       r="3.8932071"
       inkscape:label="div6" />
    <circle
       style="display:inline;fill:#ff0000;stroke-width:0.264583"
       id="path2787-83-7-6-5"
       cx="7.4226861"
       cy="91.854843"
       r="3.8932071"
       inkscape:label="div5" />
    <circle
       style="display:inline;fill:#ff0000;stroke-width:0.264583"
       id="path2787-83-75-6"
       cx="7.4226861"
       cy="78.926796"
       r="3.8932071"
       inkscape:label="div4" />
    <circle
       style="display:inline;fill:#ff0000;stroke-width:0.264583"
       id="path2787-83-5-3"
       cx="7.4226861"
       cy="65.998741"
       r="3.8932071"
       inkscape:label="div3" />
    <circle
       style="display:inline;fill:#ff0000;stroke-width:0.264583"
       id="path2787-83-7-6"
       cx="7.4226861"
       cy="53.070694"
       r="3.8932071"
       inkscape:label="div2" />
    <circle
       style="display:inline;fill:#ff0000;stroke-width:0.264583"
       id="path2787-83-7-6-6"
       cx="7.4226861"
       cy="40.142647"
       r="3.8932071"
       inkscape:label="div1" />
    <circle
       style="display:inline;fill:#00ff00;stroke-width:0.264583"
       id="path2787-0"
       cx="23.057314"
       cy="24.505625"
       r="3.8932071"
       inkscape:label="reset" />
    <circle
       style="display:inline;fill:#00ff00;stroke-width:0.264583"
       id="path2787"
       cx="7.4226861"
       cy="24.505625"
       r="3.8932071"
       inkscape:label="clk" />
  </g>
</svg>
