<?xml version="1.0" encoding="UTF-8" standalone="no"?>
<!-- Created with Inkscape (http://www.inkscape.org/) -->

<svg
   width="71.120003mm"
   height="128.5mm"
   viewBox="0 0 71.120004 128.5"
   version="1.1"
   id="svg5"
   inkscape:version="1.2.2 (b0a8486541, 2022-12-01)"
   sodipodi:docname="MarkovDrummer.svg"
   xmlns:inkscape="http://www.inkscape.org/namespaces/inkscape"
   xmlns:sodipodi="http://sodipodi.sourceforge.net/DTD/sodipodi-0.dtd"
   xmlns="http://www.w3.org/2000/svg"
   xmlns:svg="http://www.w3.org/2000/svg">
  <sodipodi:namedview
     id="namedview7"
     pagecolor="#ffffff"
     bordercolor="#000000"
     borderopacity="0.25"
     inkscape:showpageshadow="2"
     inkscape:pageopacity="0.0"
     inkscape:pagecheckerboard="0"
     inkscape:deskcolor="#d1d1d1"
     inkscape:document-units="mm"
     showgrid="false"
     inkscape:zoom="1.1893044"
     inkscape:cx="181.19835"
     inkscape:cy="222.39891"
     inkscape:window-width="1600"
     inkscape:window-height="884"
     inkscape:window-x="0"
     inkscape:window-y="16"
     inkscape:window-maximized="1"
     inkscape:current-layer="layer2" />
  <defs
     id="defs2" />
  <g
     inkscape:label="Layer 1"
     inkscape:groupmode="layer"
     id="layer1">
    <rect
       style="fill:#808080;stroke-width:0.173366"
       id="rect251"
       width="71.120003"
       height="128.5"
       x="8.8817842e-15"
       y="5.3290705e-15"
       inkscape:label="background" />
    <rect
       style="fill:#333333;stroke-width:0.429034"
       id="rect1809"
       width="64.243851"
       height="26.992001"
       x="4.0511007"
       y="92.202644"
       inkscape:label="output background" />
    <g
       aria-label="Markov Drummer"
       id="text646"
       style="font-size:5.64444px;stroke-width:0.264583"
       inkscape:label="title">
      <path
         d="m 18.374686,9.9492302 1.15711,-3.448753 v 3.448753 h 0.496711 V 5.8344333 h -0.728133 l -1.196621,3.5842195 -1.2192,-3.5842195 h -0.728132 v 4.1147969 h 0.49671 v -3.448753 l 1.1684,3.448753 z"
         id="path1163" />
      <path
         d="m 20.779221,7.8664318 h 0.474133 c 0.03951,-0.3612442 0.254,-0.524933 0.694266,-0.524933 0.423333,0 0.6604,0.1580444 0.6604,0.4402664 v 0.1241777 c 0,0.1975554 -0.118533,0.282222 -0.491067,0.3273775 -0.863599,0.1128888 -1.467554,0.1806221 -1.467554,0.9708437 0,0.5362218 0.372533,0.8748879 0.970844,0.8748879 0.372533,0 0.671688,-0.1298218 1.00471,-0.4346216 0.03387,0.2991554 0.180622,0.4346216 0.485422,0.4346216 0.09596,0 0.169333,-0.01129 0.321733,-0.0508 V 9.6726526 c -0.0508,0.011289 -0.07338,0.011289 -0.1016,0.011289 -0.163689,0 -0.254,-0.084667 -0.254,-0.231422 V 7.7140319 c 0,-0.524933 -0.383822,-0.807155 -1.111954,-0.807155 -0.530578,0 -1.157111,0.1580444 -1.185333,0.9595549 z m 0.942622,1.8005764 c -0.366889,0 -0.581378,-0.1749777 -0.581378,-0.474133 0,-0.6491106 0.987777,-0.4854218 1.467555,-0.705555 v 0.5305774 c 0,0.282222 -0.327378,0.6491106 -0.886177,0.6491106 z"
         id="path1165" />
      <path
         d="M 25.306058,7.4035877 V 6.9238103 c -0.07902,-0.011289 -0.118533,-0.016933 -0.180622,-0.016933 -0.3048,0 -0.536222,0.1806221 -0.807155,0.6208885 V 6.9915435 h -0.434622 v 2.9576867 h 0.474133 V 8.4139425 c 0,-0.8297327 0.378177,-0.9990659 0.948266,-1.0103548 z"
         id="path1167" />
      <path
         d="m 26.226106,5.8344333 h -0.468489 v 4.1147969 h 0.468489 V 8.7977644 l 0.4572,-0.4515552 0.999066,1.603021 h 0.581377 l -1.20791,-1.936043 1.027288,-1.0216437 h -0.603955 l -1.253066,1.2530658 z"
         id="path1169" />
      <path
         d="m 29.821614,6.9068769 c -0.829732,0 -1.332088,0.5926663 -1.332088,1.5860877 0,0.9934215 0.496711,1.5860874 1.337733,1.5860874 0.829733,0 1.337732,-0.5926659 1.337732,-1.5635096 0,-1.0216437 -0.491066,-1.6086655 -1.343377,-1.6086655 z m 0.0056,0.4346219 c 0.530577,0 0.846666,0.4346219 0.846666,1.1683991 0,0.6942662 -0.327378,1.1345325 -0.846666,1.1345325 -0.524933,0 -0.846666,-0.4346219 -0.846666,-1.1514658 0,-0.7111994 0.321733,-1.1514658 0.846666,-1.1514658 z"
         id="path1171" />
      <path
         d="M 32.942991,9.9492302 34.077524,6.9915435 H 33.546946 L 32.711569,9.3904306 31.921348,6.9915435 H 31.39077 l 1.038577,2.9576867 z"
         id="path1173" />
      <path
         d="m 35.996634,9.9492302 h 1.586088 c 1.038577,0 1.676399,-0.7789327 1.676399,-2.0602207 0,-1.2756434 -0.632177,-2.0545762 -1.676399,-2.0545762 H 35.996634 Z M 36.521567,9.4863861 V 6.2972774 h 0.970844 c 0.812799,0 1.241777,0.5475107 1.241777,1.5973766 0,1.038577 -0.428978,1.5917321 -1.241777,1.5917321 z"
         id="path1175" />
      <path
         d="M 41.245964,7.4035877 V 6.9238103 c -0.07902,-0.011289 -0.118533,-0.016933 -0.180622,-0.016933 -0.3048,0 -0.536222,0.1806221 -0.807155,0.6208885 V 6.9915435 h -0.434622 v 2.9576867 h 0.474133 V 8.4139425 c 0,-0.8297327 0.378177,-0.9990659 0.948266,-1.0103548 z"
         id="path1177" />
      <path
         d="M 44.051255,9.9492302 V 6.9915435 h -0.468488 v 1.6763988 c 0,0.6039551 -0.316089,0.9990659 -0.807155,0.9990659 -0.372533,0 -0.6096,-0.2257776 -0.6096,-0.5813774 V 6.9915435 h -0.468488 v 2.2803539 c 0,0.4910663 0.366888,0.8071546 0.942621,0.8071546 0.434622,0 0.7112,-0.1523996 0.987777,-0.5418659 v 0.4120441 z"
         id="path1179" />
      <path
         d="m 44.728592,6.9915435 v 2.9576867 h 0.474133 V 8.0922094 c 0,-0.4289775 0.310445,-0.7732883 0.694266,-0.7732883 0.349956,0 0.547511,0.2144887 0.547511,0.5926662 v 2.0376429 h 0.474133 V 8.0922094 c 0,-0.4289775 0.310444,-0.7732883 0.694266,-0.7732883 0.344311,0 0.547511,0.2201331 0.547511,0.5926662 v 2.0376429 h 0.474133 v -2.218265 c 0,-0.5305774 -0.3048,-0.8240883 -0.857955,-0.8240883 -0.395111,0 -0.632177,0.1185333 -0.908755,0.4515553 -0.174977,-0.3160887 -0.412044,-0.4515553 -0.795866,-0.4515553 -0.395111,0 -0.654755,0.1467555 -0.908755,0.5023552 V 6.9915435 Z"
         id="path1181" />
      <path
         d="m 49.311881,6.9915435 v 2.9576867 h 0.474133 V 8.0922094 c 0,-0.4289775 0.310444,-0.7732883 0.694266,-0.7732883 0.349955,0 0.54751,0.2144887 0.54751,0.5926662 v 2.0376429 h 0.474133 V 8.0922094 c 0,-0.4289775 0.310445,-0.7732883 0.694266,-0.7732883 0.344311,0 0.547511,0.2201331 0.547511,0.5926662 v 2.0376429 h 0.474133 v -2.218265 c 0,-0.5305774 -0.3048,-0.8240883 -0.857955,-0.8240883 -0.395111,0 -0.632177,0.1185333 -0.908755,0.4515553 -0.174977,-0.3160887 -0.412044,-0.4515553 -0.795866,-0.4515553 -0.39511,0 -0.654755,0.1467555 -0.908755,0.5023552 V 6.9915435 Z"
         id="path1183" />
      <path
         d="m 56.395654,8.6284312 c 0,-1.0724436 -0.400755,-1.7215543 -1.315155,-1.7215543 -0.824088,0 -1.354665,0.6321773 -1.354665,1.603021 0,0.9708438 0.513644,1.5691541 1.343376,1.5691541 0.677333,0 1.145822,-0.3838216 1.264355,-1.0272878 h -0.474133 c -0.129822,0.3894664 -0.395111,0.5926662 -0.773288,0.5926662 -0.547511,0 -0.857955,-0.4120441 -0.869244,-1.0159992 z M 54.228189,8.2446093 c 0.03951,-0.5475107 0.372533,-0.9031105 0.846666,-0.9031105 0.485422,0 0.818444,0.3951108 0.818444,0.9031105 z"
         id="path1185" />
      <path
         d="M 58.326057,7.4035877 V 6.9238103 c -0.07902,-0.011289 -0.118533,-0.016933 -0.180622,-0.016933 -0.3048,0 -0.536222,0.1806221 -0.807155,0.6208885 V 6.9915435 h -0.434622 v 2.9576867 h 0.474133 V 8.4139425 c 0,-0.8297327 0.378178,-0.9990659 0.948266,-1.0103548 z"
         id="path1187" />
    </g>
  </g>
  <g
     inkscape:groupmode="layer"
     id="layer2"
     inkscape:label="components"
     style="display:inline">
    <circle
       style="display:inline;fill:#0000ff;stroke-width:0.264583"
       id="path2787-83-7-1-3"
       cx="59.366753"
       cy="112.74442"
       r="3.8932071"
       inkscape:label="out 8" />
    <circle
       style="display:inline;fill:#0000ff;stroke-width:0.264583"
       id="path2787-83-5-7"
       cx="45.067879"
       cy="112.41061"
       r="3.8932071"
       inkscape:label="out 7" />
    <circle
       style="display:inline;fill:#0000ff;stroke-width:0.264583"
       id="path2787-83-7-1"
       cx="30.903748"
       cy="112.47814"
       r="3.8932071"
       inkscape:label="out 6" />
    <circle
       style="display:inline;fill:#0000ff;stroke-width:0.264583"
       id="path2787-8-0"
       cx="16.357475"
       cy="112.30183"
       r="3.8932071"
       inkscape:label="out 5" />
    <circle
       style="display:inline;fill:#0000ff;stroke-width:0.264583"
       id="path2787-83-6"
       cx="59.696426"
       cy="98.885735"
       r="3.8932071"
       inkscape:label="out 4" />
    <circle
       style="display:inline;fill:#0000ff;stroke-width:0.264583"
       id="path2787-7"
       cx="45.262714"
       cy="98.901085"
       r="3.8932071"
       inkscape:label="out 3" />
    <circle
       style="display:inline;fill:#0000ff;stroke-width:0.264583"
       id="path2787-7-3"
       cx="30.942455"
       cy="99.041588"
       r="3.8932071"
       inkscape:label="out 2" />
    <circle
       style="display:inline;fill:#0000ff;stroke-width:0.264583"
       id="path2787-7-6"
       cx="16.782152"
       cy="99.440735"
       r="3.8932071"
       inkscape:label="out 1" />
    <circle
       style="display:inline;fill:#ff0000;stroke-width:0.264583"
       id="path2787-83-5"
       cx="59.921078"
       cy="83.638176"
       r="3.8932071"
       inkscape:label="8-7" />
    <circle
       style="display:inline;fill:#ff0000;stroke-width:0.264583"
       id="path2787-83-7"
       cx="44.991394"
       cy="83.882637"
       r="3.8932071"
       inkscape:label="6-7" />
    <circle
       style="display:inline;fill:#ff0000;stroke-width:0.264583"
       id="path2787-83"
       cx="30.540266"
       cy="84.055"
       r="3.8932071"
       inkscape:label="4-7" />
    <circle
       style="display:inline;fill:#ff0000;stroke-width:0.264583"
       id="path2787-83-75"
       cx="16.52169"
       cy="84.31739"
       r="3.8932071"
       inkscape:label="2-7" />
    <circle
       style="display:inline;fill:#ff0000;stroke-width:0.264583"
       id="path2787-83-3"
       cx="16.444212"
       cy="69.741547"
       r="3.8932071"
       inkscape:label="2-5" />
    <circle
       style="display:inline;fill:#ff0000;stroke-width:0.264583"
       id="path2787-83-56"
       cx="30.987143"
       cy="69.352959"
       r="3.8932071"
       inkscape:label="4-5" />
    <circle
       style="display:inline;fill:#ff0000;stroke-width:0.264583"
       id="path2787-83-2"
       cx="45.640789"
       cy="69.018951"
       r="3.8932071"
       inkscape:label="6-5" />
    <circle
       style="display:inline;fill:#ff0000;stroke-width:0.264583"
       id="path2787-83-3-2"
       cx="16.3449"
       cy="56.191257"
       r="3.8932071"
       inkscape:label="2-3" />
    <circle
       style="display:inline;fill:#ff0000;stroke-width:0.264583"
       id="path2787-83-56-7"
       cx="30.976498"
       cy="56.258541"
       r="3.8932071"
       inkscape:label="4-3" />
    <circle
       style="display:inline;fill:#ff0000;stroke-width:0.264583"
       id="path2787-83-2-0"
       cx="45.630146"
       cy="55.924534"
       r="3.8932071"
       inkscape:label="6-3" />
    <circle
       style="display:inline;fill:#ff0000;stroke-width:0.264583"
       id="path2787-83-9"
       cx="59.989376"
       cy="69.120926"
       r="3.8932071"
       inkscape:label="8-5" />
    <circle
       style="display:inline;fill:#ff0000;stroke-width:0.264583"
       id="path2787-83-1"
       cx="59.991741"
       cy="56.373863"
       r="3.8932071"
       inkscape:label="8-3" />
    <circle
       style="display:inline;fill:#ff0000;stroke-width:0.264583"
       id="path2787-83-3-2-9"
       cx="16.288136"
       cy="42.189938"
       r="3.8932071"
       inkscape:label="2-1" />
    <circle
       style="display:inline;fill:#ff0000;stroke-width:0.264583"
       id="path2787-83-56-7-3"
       cx="30.792339"
       cy="42.325058"
       r="3.8932071"
       inkscape:label="4-1" />
    <circle
       style="display:inline;fill:#ff0000;stroke-width:0.264583"
       id="path2787-83-2-0-6"
       cx="45.66806"
       cy="42.443123"
       r="3.8932071"
       inkscape:label="6-1" />
    <circle
       style="display:inline;fill:#ff0000;stroke-width:0.264583"
       id="path2787-83-1-0"
       cx="59.569878"
       cy="42.087517"
       r="3.8932071"
       inkscape:label="8-1" />
    <circle
       style="display:inline;fill:#00ff00;stroke-width:0.264583"
       id="path2787-0"
       cx="30.970526"
       cy="25.393208"
       r="3.8932071"
       inkscape:label="reset" />
    <circle
       style="display:inline;fill:#00ff00;stroke-width:0.264583"
       id="path2787"
       cx="16.524899"
       cy="25.393208"
       r="3.8932071"
       inkscape:label="clk" />
    <g
       aria-label="↙  2        4        6        8 1  3  5  7  1         2        3        4  5         6        7        8"
       id="text1000"
       style="font-size:5.64444px;stroke-width:0.264583"
       inkscape:label="Labels"
       transform="translate(-0.47447104,-6.0414367)">
      <path
         d="m 12.029867,38.465013 -3.6801749,3.680175 v -0.02258 c 0,-0.327378 -0.067733,-1.038577 -0.1241777,-1.456266 H 7.9545813 c 0.033867,0.508 0.056444,0.925689 0.056444,1.365955 0,0.214489 -0.011289,0.440266 -0.011289,0.688622 0.2483553,-0.01129 0.4741329,-0.01129 0.6886217,-0.01129 0.4402663,0 0.8579549,0.01129 1.365955,0.05644 V 42.483854 C 9.6253355,42.438699 8.9141361,42.370965 8.5980474,42.370965 H 8.5641808 L 12.255645,38.69079 Z"
         id="path1128" />
      <path
         d="m 15.461682,40.288167 h 0.496711 c 0.02258,-0.372533 0.118533,-0.953911 0.807155,-0.953911 0.451555,0 0.790221,0.321734 0.790221,0.750711 0,0.316089 -0.186266,0.587022 -0.541866,0.790222 L 16.494615,41.1687 c -0.835378,0.474133 -1.078088,0.85231 -1.123244,1.732843 h 2.664176 v -0.491067 h -2.105376 c 0.0508,-0.327377 0.220133,-0.553155 0.722488,-0.824088 l 0.564444,-0.3048 c 0.5588,-0.304799 0.846666,-0.716844 0.846666,-1.20791 0,-0.694266 -0.524933,-1.174043 -1.281288,-1.174043 -0.547511,0 -1.286932,0.180622 -1.320799,1.388532 z"
         id="path1130" />
      <path
         d="m 31.45238,41.941988 v 0.959555 h 0.496711 v -0.959555 h 0.592666 v -0.445911 h -0.592666 v -2.596442 h -0.366889 l -1.81751,2.51742 v 0.524933 z m 0,-0.445911 h -1.253066 l 1.253066,-1.749776 z"
         id="path1132" />
      <path
         d="m 44.276546,41.078388 c 0,1.128889 0.344311,1.952977 1.343377,1.952977 0.761999,0 1.30951,-0.564444 1.30951,-1.349021 0,-0.745067 -0.508,-1.269999 -1.224844,-1.269999 -0.395111,0 -0.705555,0.152399 -0.920044,0.44591 0.0056,-0.976488 0.321734,-1.518354 0.891822,-1.518354 0.349955,0 0.592666,0.220133 0.671688,0.603955 h 0.496711 c -0.09595,-0.654755 -0.524933,-1.044221 -1.134532,-1.044221 -0.587022,0 -1.433688,0.327377 -1.433688,2.178753 z M 45.6425,40.852611 c 0.479778,0 0.778933,0.333022 0.778933,0.869244 0,0.502355 -0.338666,0.869243 -0.795866,0.869243 -0.462844,0 -0.812799,-0.383821 -0.812799,-0.897466 0,-0.49671 0.338666,-0.841021 0.829732,-0.841021 z"
         id="path1134" />
      <path
         d="m 60.668,40.796166 c 0.412044,-0.248355 0.547511,-0.451555 0.547511,-0.829732 0,-0.626533 -0.491067,-1.066799 -1.202266,-1.066799 -0.705555,0 -1.202266,0.440266 -1.202266,1.066799 0,0.372533 0.135467,0.575733 0.541866,0.829732 -0.457199,0.220134 -0.682977,0.553156 -0.682977,0.993422 0,0.733777 0.553155,1.241777 1.343377,1.241777 0.790221,0 1.343377,-0.508 1.343377,-1.236133 0,-0.44591 -0.225778,-0.778932 -0.688622,-0.999066 z m -0.654755,-1.456265 c 0.423333,0 0.694266,0.248355 0.694266,0.637822 0,0.372533 -0.276578,0.620888 -0.694266,0.620888 -0.417689,0 -0.694266,-0.248355 -0.694266,-0.626533 0,-0.383822 0.276577,-0.632177 0.694266,-0.632177 z m 0,1.676399 c 0.496711,0 0.835377,0.316088 0.835377,0.784577 0,0.474133 -0.338666,0.790221 -0.846666,0.790221 -0.485422,0 -0.824088,-0.321733 -0.824088,-0.790221 0,-0.468489 0.338666,-0.784577 0.835377,-0.784577 z"
         id="path1136" />
      <path
         d="m 9.3036025,47.106651 v 2.850442 H 9.8003132 V 45.955185 H 9.4729357 c -0.1749777,0.615244 -0.2878665,0.69991 -1.0555104,0.795866 v 0.3556 z"
         id="path1138" />
      <path
         d="m 9.3656913,60.500907 c 0.4402663,0 0.7055547,0.259644 0.7055547,0.682977 0,0.519289 -0.3217328,0.615244 -0.9821323,0.626533 v 0.423333 h 0.062089 l 0.2088443,-0.0056 c 0.5475107,0 0.829733,0.248355 0.829733,0.728133 0,0.502355 -0.3104445,0.80151 -0.829733,0.80151 -0.5418663,0 -0.807155,-0.270933 -0.8410216,-0.85231 H 8.0223145 c 0.062089,0.869243 0.4854219,1.292576 1.320799,1.292576 0.8240885,0 1.3546655,-0.491066 1.3546655,-1.247421 0,-0.507999 -0.197555,-0.790221 -0.677333,-0.95391 0.372533,-0.146756 0.5588,-0.428978 0.5588,-0.829733 0,-0.688622 -0.4572,-1.100666 -1.2191991,-1.100666 -0.807155,0 -1.2361324,0.440267 -1.2530658,1.292577 H 8.6036919 C 8.6149808,60.92424 8.733514,60.500907 9.3656913,60.500907 Z"
         id="path1140" />
      <path
         d="M 10.528446,74.177386 H 8.4625809 L 8.1634255,76.35614 h 0.4571997 c 0.231422,-0.276578 0.423333,-0.372533 0.7337772,-0.372533 0.5362218,0 0.8748886,0.366888 0.8748886,0.959554 0,0.575733 -0.3330223,0.925689 -0.8748886,0.925689 -0.4346219,0 -0.6999106,-0.220134 -0.8184438,-0.671689 H 8.0392479 c 0.0508,0.259644 0.1975554,1.111955 1.3264434,1.111955 0.8071547,0 1.3715987,-0.587022 1.3715987,-1.433688 0,-0.790222 -0.524933,-1.332088 -1.2925765,-1.332088 -0.2822221,0 -0.5079997,0.07338 -0.7394217,0.242711 l 0.1580443,-1.117599 h 1.6651099 z"
         id="path1142" />
      <path
         d="M 10.776801,88.288486 H 8.1013367 v 0.491066 H 10.263157 C 9.3092469,90.139862 8.9197805,90.97524 8.6206252,92.290394 H 9.1512026 C 9.3713357,91.009106 9.8736909,89.90844 10.776801,88.706175 Z"
         id="path1144" />
      <path
         d="m 9.3036025,103.55105 v 2.85044 h 0.4967107 v -4.0019 H 9.4729357 c -0.1749777,0.61524 -0.2878665,0.69991 -1.0555104,0.79586 v 0.3556 z"
         id="path1146" />
      <path
         d="m 23.962212,103.78812 h 0.496711 c 0.02258,-0.37253 0.118533,-0.95391 0.807155,-0.95391 0.451555,0 0.790222,0.32173 0.790222,0.75071 0,0.31609 -0.186267,0.58702 -0.541867,0.79022 l -0.519288,0.29351 c -0.835377,0.47413 -1.078088,0.85231 -1.123244,1.73284 h 2.664176 v -0.49106 h -2.105376 c 0.0508,-0.32738 0.220133,-0.55316 0.722488,-0.82409 l 0.564444,-0.3048 c 0.5588,-0.3048 0.846666,-0.71684 0.846666,-1.20791 0,-0.69427 -0.524933,-1.17404 -1.281288,-1.17404 -0.54751,0 -1.286932,0.18062 -1.320799,1.38853 z"
         id="path1148" />
      <path
         d="m 39.631177,102.83421 c 0.440266,0 0.705555,0.25964 0.705555,0.68298 0,0.51928 -0.321733,0.61524 -0.982133,0.62653 v 0.42333 h 0.06209 l 0.208845,-0.006 c 0.54751,0 0.829732,0.24835 0.829732,0.72813 0,0.50236 -0.310444,0.80151 -0.829732,0.80151 -0.541867,0 -0.807155,-0.27093 -0.841022,-0.85231 H 38.2878 c 0.06209,0.86924 0.485422,1.29258 1.320799,1.29258 0.824089,0 1.354666,-0.49107 1.354666,-1.24742 0,-0.508 -0.197555,-0.79023 -0.677333,-0.95391 0.372533,-0.14676 0.5588,-0.42898 0.5588,-0.82974 0,-0.68862 -0.4572,-1.10066 -1.219199,-1.10066 -0.807155,0 -1.236133,0.44026 -1.253066,1.29257 h 0.496711 c 0.01129,-0.43462 0.129822,-0.85795 0.761999,-0.85795 z"
         id="path1150" />
      <path
         d="m 54.380097,105.44194 v 0.95955 h 0.496711 v -0.95955 h 0.592666 v -0.44591 h -0.592666 v -2.59644 h -0.366889 l -1.817509,2.51742 v 0.52493 z m 0,-0.44591 h -1.253066 l 1.253066,-1.74978 z"
         id="path1152" />
      <path
         d="M 10.528446,116.51069 H 8.4625809 l -0.2991554,2.17875 h 0.4571997 c 0.231422,-0.27658 0.423333,-0.37253 0.7337772,-0.37253 0.5362218,0 0.8748886,0.36689 0.8748886,0.95955 0,0.57574 -0.3330223,0.92569 -0.8748886,0.92569 -0.4346219,0 -0.6999106,-0.22013 -0.8184438,-0.67169 H 8.0392479 c 0.0508,0.25965 0.1975554,1.11196 1.3264434,1.11196 0.8071547,0 1.3715987,-0.58702 1.3715987,-1.43369 0,-0.79022 -0.524933,-1.33209 -1.2925765,-1.33209 -0.2822221,0 -0.5079997,0.0734 -0.7394217,0.24271 l 0.1580443,-1.1176 h 1.6651099 z"
         id="path1154" />
      <path
         d="m 23.922701,118.68944 c 0,1.12889 0.344311,1.95298 1.343377,1.95298 0.761999,0 1.30951,-0.56445 1.30951,-1.34902 0,-0.74507 -0.508,-1.27 -1.224843,-1.27 -0.395111,0 -0.705555,0.1524 -0.920044,0.44591 0.0056,-0.97649 0.321733,-1.51836 0.891821,-1.51836 0.349956,0 0.592667,0.22014 0.671689,0.60396 h 0.49671 c -0.09596,-0.65476 -0.524932,-1.04422 -1.134532,-1.04422 -0.587022,0 -1.433688,0.32737 -1.433688,2.17875 z m 1.365955,-0.22578 c 0.479777,0 0.778932,0.33303 0.778932,0.86925 0,0.50235 -0.338666,0.86924 -0.795866,0.86924 -0.462844,0 -0.812799,-0.38382 -0.812799,-0.89747 0,-0.49671 0.338666,-0.84102 0.829733,-0.84102 z"
         id="path1156" />
      <path
         d="m 41.042287,116.51069 h -2.675465 v 0.49106 h 2.161821 c -0.95391,1.36031 -1.343377,2.19569 -1.642532,3.51085 h 0.530577 c 0.220133,-1.28129 0.722489,-2.38196 1.625599,-3.58422 z"
         id="path1158" />
      <path
         d="m 54.741341,118.40722 c 0.412044,-0.24836 0.547511,-0.45156 0.547511,-0.82973 0,-0.62654 -0.491066,-1.0668 -1.202266,-1.0668 -0.705555,0 -1.202266,0.44026 -1.202266,1.0668 0,0.37253 0.135467,0.57573 0.541867,0.82973 -0.4572,0.22013 -0.682978,0.55315 -0.682978,0.99342 0,0.73378 0.553156,1.24178 1.343377,1.24178 0.790222,0 1.343377,-0.508 1.343377,-1.23614 0,-0.44591 -0.225778,-0.77893 -0.688622,-0.99906 z m -0.654755,-1.45627 c 0.423333,0 0.694266,0.24836 0.694266,0.63783 0,0.37253 -0.276577,0.62088 -0.694266,0.62088 -0.417688,0 -0.694266,-0.24835 -0.694266,-0.62653 0,-0.38382 0.276578,-0.63218 0.694266,-0.63218 z m 0,1.6764 c 0.496711,0 0.835377,0.31609 0.835377,0.78458 0,0.47413 -0.338666,0.79022 -0.846666,0.79022 -0.485422,0 -0.824088,-0.32173 -0.824088,-0.79022 0,-0.46849 0.338666,-0.78458 0.835377,-0.78458 z"
         id="path1160" />
    </g>
    <g
       aria-label="CLK      RST"
       transform="scale(1.0118428,0.98829583)"
       id="text225"
       style="font-size:4.23333px;stroke-width:0.261486">
      <path
         d="m 12.498296,19.609245 c 0,0.630766 0.279399,1.604432 1.392765,1.604432 0.753533,0 1.176866,-0.4064 1.269999,-1.223433 h -0.4064 c -0.09313,0.5842 -0.342899,0.8763 -0.859366,0.8763 -0.613832,0 -1.003299,-0.491067 -1.003299,-1.261533 0,-0.791632 0.372533,-1.278465 0.969433,-1.278465 0.499533,0 0.745066,0.2286 0.833966,0.660399 h 0.402166 c -0.122767,-0.677333 -0.512233,-1.007532 -1.189566,-1.007532 -1.126065,0 -1.409698,0.986366 -1.409698,1.629832 z"
         id="path331" />
      <path
         d="m 16.062758,18.030213 h -0.3937 v 3.086097 h 1.917698 v -0.347133 h -1.523998 z"
         id="path333" />
      <path
         d="m 18.446121,20.036811 0.503766,-0.503766 1.087966,1.583265 h 0.465666 l -1.269998,-1.828798 1.257298,-1.257299 H 19.98282 l -1.536699,1.562098 v -1.562098 h -0.393699 v 3.086097 h 0.393699 z"
         id="path335" />
      <path
         d="m 29.131045,19.592311 c 0.347133,-0.169333 0.486833,-0.385233 0.486833,-0.736599 0,-0.5334 -0.334433,-0.825499 -0.9398,-0.825499 H 27.25568 v 3.086097 h 0.393699 v -1.329265 h 1.015999 c 0.351367,0 0.508,0.169333 0.508,0.550332 v 0.275167 c 0,0.1905 0.02963,0.376766 0.08467,0.503766 h 0.478366 v -0.09737 c -0.1651,-0.110067 -0.186267,-0.287867 -0.186267,-0.486833 0,-0.06773 0.0042,-0.143934 0.0042,-0.2159 0,-0.2794 -0.0381,-0.5588 -0.423333,-0.7239 z m 0.0762,-0.681566 c 0,0.364067 -0.186267,0.529167 -0.605367,0.529167 h -0.952499 v -1.062566 h 0.952499 c 0.3302,0 0.605367,0.09313 0.605367,0.533399 z"
         id="path337" />
      <path
         d="m 31.366241,20.866544 c -0.6985,0 -0.872066,-0.397933 -0.872066,-0.7112 v -0.02117 h -0.372533 c 0.0127,0.876299 0.685799,1.079499 1.219199,1.079499 0.965199,0 1.206499,-0.567266 1.206499,-0.944033 0,-0.381 -0.237067,-0.660399 -0.656167,-0.774699 l -0.774699,-0.207433 c -0.372533,-0.1016 -0.507999,-0.220133 -0.507999,-0.4572 0,-0.313266 0.275166,-0.5207 0.690032,-0.5207 0.491067,0 0.766233,0.224367 0.770466,0.626533 h 0.372533 c -0.0042,-0.605366 -0.419099,-0.956732 -1.130299,-0.956732 -0.677332,0 -1.096432,0.347133 -1.096432,0.905932 0,0.376767 0.198966,0.613833 0.605366,0.719666 l 0.766233,0.2032 c 0.389466,0.1016 0.567266,0.258233 0.567266,0.499533 0,0.220133 -0.118533,0.5588 -0.787399,0.5588 z"
         id="path339" />
      <path
         d="m 34.278772,18.377346 h 1.011766 v -0.347133 h -2.421465 v 0.347133 h 1.015999 v 2.738964 h 0.3937 z"
         id="path341" />
    </g>
  </g>
</svg>
