<?xml version="1.0" encoding="UTF-8" standalone="no"?>
<!-- Created with Inkscape (http://www.inkscape.org/) -->

<svg
   width="25.4mm"
   height="128.5mm"
   viewBox="0 0 25.4 128.5"
   version="1.1"
   id="svg5"
   inkscape:version="1.2.2 (b0a8486541, 2022-12-01)"
   sodipodi:docname="logic.svg"
   xmlns:inkscape="http://www.inkscape.org/namespaces/inkscape"
   xmlns:sodipodi="http://sodipodi.sourceforge.net/DTD/sodipodi-0.dtd"
   xmlns="http://www.w3.org/2000/svg"
   xmlns:svg="http://www.w3.org/2000/svg">
  <sodipodi:namedview
     id="namedview7"
     pagecolor="#ffffff"
     bordercolor="#000000"
     borderopacity="0.25"
     inkscape:showpageshadow="2"
     inkscape:pageopacity="0.0"
     inkscape:pagecheckerboard="0"
     inkscape:deskcolor="#d1d1d1"
     inkscape:document-units="mm"
     showgrid="false"
     inkscape:zoom="1.1893044"
     inkscape:cx="-66.425383"
     inkscape:cy="279.57519"
     inkscape:window-width="1600"
     inkscape:window-height="884"
     inkscape:window-x="0"
     inkscape:window-y="16"
     inkscape:window-maximized="1"
     inkscape:current-layer="layer2" />
  <defs
     id="defs2" />
  <rect
     style="display:inline;fill:#333333;stroke-width:0.168858"
     id="rect1809-3"
     width="9.8882332"
     height="27.165018"
     x="14.600363"
     y="13.122907"
     inkscape:label="output 1 background" />
  <rect
     style="display:inline;fill:#333333;stroke-width:0.168858"
     id="rect1809"
     width="9.8882332"
     height="27.165018"
     x="14.600363"
     y="93.362396"
     inkscape:label="output 3 background" />
  <rect
     style="display:inline;fill:#333333;stroke-width:0.168858"
     id="rect1809-6"
     width="9.8882332"
     height="27.165018"
     x="14.600363"
     y="53.242653"
     inkscape:label="output 2 background" />
  <g
     inkscape:label="Layer 1"
     inkscape:groupmode="layer"
     id="layer1">
    <rect
       style="fill:#808080;stroke-width:0.137058"
       id="rect251"
       width="25.4"
       height="128.5"
       x="8.8817842e-15"
       y="5.3290705e-15"
       inkscape:label="background" />
    <g
       aria-label="Logic"
       transform="rotate(20)"
       id="text686"
       style="display:inline;font-size:6.35px;stroke-width:0.264583"
       inkscape:label="Title">
      <path
         d="M 10.015611,-1.2982907 H 9.4250608 v 4.6291499 h 2.8765502 v -0.5207 h -2.286 z"
         id="path810" />
      <path
         d="m 14.181209,-0.09179076 c -0.93345,0 -1.4986,0.66674999 -1.4986,1.78434996 0,1.1176 0.5588,1.78435 1.50495,1.78435 0.93345,0 1.50495,-0.66675 1.50495,-1.75895 0,-1.14934997 -0.55245,-1.80974996 -1.5113,-1.80974996 z m 0.0063,0.48894999 c 0.5969,0 0.9525,0.48894999 0.9525,1.31444997 0,0.78105 -0.3683,1.27635 -0.9525,1.27635 -0.59055,0 -0.9525,-0.48895 -0.9525,-1.2954 0,-0.80009998 0.36195,-1.29539997 0.9525,-1.29539997 z"
         id="path812" />
      <path
         d="m 17.445112,3.4769092 c 0.4191,0 0.7112,-0.1778 1.00965,-0.5969 v 0.17145 c 0,0.762 -0.1778,1.2192 -0.9271,1.2192 -0.1651,0 -0.71755,-0.01905 -0.80645,-0.5588 h -0.53975 c 0.05715,0.62865 0.5461,1.0033 1.32715,1.0033 1.26365,0 1.4859,-0.7747 1.4859,-1.9304 V 0.00345923 h -0.55245 l 0.0635,0.4826 c -0.2667,-0.3937 -0.59055,-0.57784999 -1.016,-0.57784999 -0.84455,0 -1.41605,0.73659998 -1.41605,1.81609996 0,1.08585 0.61595,1.7526 1.3716,1.7526 z m 0.1016,-3.07974997 c 0.5715,0 0.90805,0.48259999 0.90805,1.31444997 0,0.79375 -0.3429,1.27635 -0.9017,1.27635 -0.57785,0 -0.9271,-0.48895 -0.9271,-1.2954 0,-0.80009998 0.3556,-1.29539997 0.92075,-1.29539997 z"
         id="path814" />
      <path
         d="m 20.328006,0.00345923 h -0.52705 V 3.3308592 h 0.52705 z m 0,-1.30174993 h -0.5334 v 0.66674994 h 0.5334 z"
         id="path816" />
      <path
         d="m 23.769708,1.1210592 c -0.0635,-0.79374997 -0.55245,-1.21284996 -1.31445,-1.21284996 -0.89535,0 -1.47955,0.71119998 -1.47955,1.81609996 0,1.07315 0.5715,1.7526 1.4732,1.7526 0.79375,0 1.2954,-0.47625 1.3589,-1.28905 h -0.5334 c -0.0889,0.5334 -0.36195,0.8001 -0.8128,0.8001 -0.5842,0 -0.93345,-0.47625 -0.93345,-1.26365 0,-0.83184998 0.3429,-1.32714997 0.92075,-1.32714997 0.4445,0 0.7239,0.26034999 0.7874,0.72389997 z"
         id="path818" />
    </g>
    <g
       aria-label="┌─AND─┐                                  ┌────OR───┐                                  ┌─XOR─┐"
       transform="rotate(-90)"
       id="text740"
       style="display:inline;font-size:2.82222px;stroke-width:0.264583"
       inkscape:label="Gates">
      <path
         d="m -121.49704,4.2697196 h 0.22578 V 2.9714983 h 1.29822 V 2.7457207 h -1.524 z"
         id="path821" />
      <path
         d="m -117.15082,2.7457207 h -2.82222 v 0.2257776 h 2.82222 z"
         id="path823" />
      <path
         d="m -115.81873,3.0872093 0.21167,0.6180662 h 0.29351 l -0.72249,-2.0573984 h -0.33867 l -0.73377,2.0573984 h 0.2794 l 0.21731,-0.6180662 z m -0.0734,-0.2201331 h -0.65475 l 0.33866,-0.9369771 z"
         id="path825" />
      <path
         d="m -113.43677,1.6478771 h -0.24836 v 1.6820432 l -1.07527,-1.6820432 h -0.28504 v 2.0573984 h 0.24836 v -1.667932 l 1.06397,1.667932 h 0.29634 z"
         id="path827" />
      <path
         d="m -112.98522,3.7052755 h 0.79304 c 0.51929,0 0.8382,-0.3894663 0.8382,-1.0301103 0,-0.6378217 -0.31609,-1.0272881 -0.8382,-1.0272881 h -0.79304 z m 0.26247,-0.231422 V 1.8792991 h 0.48542 c 0.4064,0 0.62089,0.2737554 0.62089,0.7986883 0,0.5192885 -0.21449,0.7958661 -0.62089,0.7958661 z"
         id="path829" />
      <path
         d="m -108.41887,2.7457207 h -2.82222 v 0.2257776 h 2.82222 z"
         id="path831" />
      <path
         d="m -108.41887,2.7457207 v 0.2257776 h 1.29822 v 1.2982213 h 0.22578 V 2.7457207 Z"
         id="path833" />
      <path
         d="m -80.309555,4.2697196 h 0.225777 V 2.9714983 h 1.298221 V 2.7457207 h -1.523998 z"
         id="path835" />
      <path
         d="m -75.963337,2.7457207 h -2.82222 v 0.2257776 h 2.82222 z"
         id="path837" />
      <path
         d="m -73.141117,2.7457207 h -2.82222 v 0.2257776 h 2.82222 z"
         id="path839" />
      <path
         d="m -70.318897,2.7457207 h -2.82222 v 0.2257776 h 2.82222 z"
         id="path841" />
      <path
         d="m -67.496677,2.7457207 h -2.82222 v 0.2257776 h 2.82222 z"
         id="path843" />
      <path
         d="m -65.396946,2.7090318 c 0,-0.6632217 -0.392288,-1.0950213 -0.996243,-1.0950213 -0.589844,0 -0.9906,0.4346218 -0.9906,1.078088 0,0.6434662 0.400756,1.0780881 0.993422,1.0780881 0.615244,0 0.993421,-0.4684885 0.993421,-1.0611548 z m -0.996243,-0.8635993 c 0.44591,0 0.733777,0.3386664 0.733777,0.8579549 0,0.4967107 -0.296333,0.8353772 -0.730955,0.8353772 -0.437444,0 -0.730955,-0.3386665 -0.730955,-0.8466661 0,-0.5079996 0.293511,-0.846666 0.728133,-0.846666 z"
         id="path845" />
      <path
         d="m -63.808037,2.6892763 c 0.231423,-0.1128888 0.324556,-0.256822 0.324556,-0.4910663 0,-0.3555997 -0.222956,-0.5503329 -0.626533,-0.5503329 h -0.948266 v 2.0573984 h 0.262466 V 2.8190984 h 0.677333 c 0.234245,0 0.338667,0.1128888 0.338667,0.3668886 v 0.1834443 c 0,0.1269999 0.01976,0.2511776 0.05644,0.3358442 h 0.318911 v -0.064911 c -0.110067,-0.073378 -0.124178,-0.191911 -0.124178,-0.3245553 0,-0.045156 0.0028,-0.095956 0.0028,-0.1439333 0,-0.1862665 -0.0254,-0.372533 -0.282222,-0.4825996 z m 0.0508,-0.4543774 c 0,0.2427109 -0.124177,0.3527775 -0.403577,0.3527775 h -0.635 V 1.8792991 h 0.635 c 0.220133,0 0.403577,0.062089 0.403577,0.3555998 z"
         id="path847" />
      <path
         d="m -60.460884,2.7457207 h -2.82222 v 0.2257776 h 2.82222 z"
         id="path849" />
      <path
         d="m -57.638664,2.7457207 h -2.82222 v 0.2257776 h 2.82222 z"
         id="path851" />
      <path
         d="m -54.816444,2.7457207 h -2.82222 v 0.2257776 h 2.82222 z"
         id="path853" />
      <path
         d="m -54.816444,2.7457207 v 0.2257776 h 1.298221 v 1.2982213 h 0.225777 V 2.7457207 Z"
         id="path855" />
      <path
         d="m -26.707127,4.2697196 h 0.225778 V 2.9714983 h 1.298221 V 2.7457207 h -1.523999 z"
         id="path857" />
      <path
         d="m -22.360908,2.7457207 h -2.82222 v 0.2257776 h 2.82222 z"
         id="path859" />
      <path
         d="m -21.277176,2.6497652 0.694266,-1.0018881 h -0.313266 l -0.530578,0.8071549 -0.527755,-0.8071549 h -0.318911 l 0.682978,1.0018881 -0.728133,1.0555103 h 0.318911 l 0.564444,-0.8579549 0.561621,0.8579549 h 0.324556 z"
         id="path861" />
      <path
         d="m -18.406982,2.7090318 c 0,-0.6632217 -0.392289,-1.0950213 -0.996244,-1.0950213 -0.589844,0 -0.990599,0.4346218 -0.990599,1.078088 0,0.6434662 0.400755,1.0780881 0.993421,1.0780881 0.615244,0 0.993422,-0.4684885 0.993422,-1.0611548 z m -0.996244,-0.8635993 c 0.445911,0 0.733777,0.3386664 0.733777,0.8579549 0,0.4967107 -0.296333,0.8353772 -0.730955,0.8353772 -0.437444,0 -0.730955,-0.3386665 -0.730955,-0.8466661 0,-0.5079996 0.293511,-0.846666 0.728133,-0.846666 z"
         id="path863" />
      <path
         d="m -16.818069,2.6892763 c 0.231422,-0.1128888 0.324555,-0.256822 0.324555,-0.4910663 0,-0.3555997 -0.222955,-0.5503329 -0.626533,-0.5503329 h -0.948266 v 2.0573984 h 0.262467 V 2.8190984 h 0.677333 c 0.234244,0 0.338666,0.1128888 0.338666,0.3668886 v 0.1834443 c 0,0.1269999 0.01976,0.2511776 0.05644,0.3358442 h 0.318911 v -0.064911 c -0.110066,-0.073378 -0.124177,-0.191911 -0.124177,-0.3245553 0,-0.045156 0.0028,-0.095956 0.0028,-0.1439333 0,-0.1862665 -0.0254,-0.372533 -0.282222,-0.4825996 z m 0.0508,-0.4543774 c 0,0.2427109 -0.124178,0.3527775 -0.403578,0.3527775 h -0.634999 V 1.8792991 h 0.634999 c 0.220133,0 0.403578,0.062089 0.403578,0.3555998 z"
         id="path865" />
      <path
         d="m -13.470917,2.7457207 h -2.82222 v 0.2257776 h 2.82222 z"
         id="path867" />
      <path
         d="m -13.470917,2.7457207 v 0.2257776 h 1.298221 v 1.2982213 h 0.225778 V 2.7457207 Z"
         id="path869" />
    </g>
    <g
       aria-label="↑ Q       Q' ↓"
       id="text744"
       style="display:inline;font-size:4.23333px;stroke-width:0.264583"
       inkscape:label="QNOTQ">
      <path
         d="m 19.668031,44.924259 v -3.365497 c 0.160867,0.1651 0.592666,0.5207 0.846666,0.723899 l 0.148166,-0.148166 c -0.436032,-0.3683 -0.732366,-0.664633 -1.113365,-1.062566 -0.381,0.397933 -0.677333,0.694266 -1.113366,1.062566 l 0.148167,0.148166 c 0.253999,-0.203199 0.685799,-0.558799 0.846666,-0.723899 v 3.365497 z"
         id="path872" />
      <path
         d="m 21.35713,50.220155 -0.397933,-0.325967 c 0.292099,-0.321733 0.436033,-0.719666 0.436033,-1.206499 0,-0.956732 -0.601133,-1.608665 -1.490133,-1.608665 -0.888999,0 -1.490132,0.651933 -1.490132,1.617132 0,0.965199 0.601133,1.617132 1.490132,1.617132 0.3048,0 0.5588,-0.06773 0.808566,-0.2159 l 0.4445,0.3683 z m -1.0668,-0.872066 -0.194733,0.237066 0.313267,0.262467 c -0.182033,0.08467 -0.321733,0.118533 -0.508,0.118533 -0.656166,0 -1.092199,-0.508 -1.092199,-1.269999 0,-0.761999 0.440266,-1.269999 1.096432,-1.269999 0.656167,0 1.096433,0.508 1.096433,1.265766 0,0.397933 -0.105833,0.706966 -0.334433,0.965199 z"
         id="path874" />
      <path
         d="m 21.35713,87.26179 -0.397933,-0.325966 c 0.292099,-0.321733 0.436033,-0.719666 0.436033,-1.206499 0,-0.956733 -0.601133,-1.608665 -1.490133,-1.608665 -0.888999,0 -1.490132,0.651932 -1.490132,1.617132 0,0.965199 0.601133,1.617132 1.490132,1.617132 0.3048,0 0.5588,-0.06773 0.808566,-0.2159 l 0.4445,0.368299 z m -1.0668,-0.872066 -0.194733,0.237067 0.313267,0.262466 c -0.182033,0.08467 -0.321733,0.118533 -0.508,0.118533 -0.656166,0 -1.092199,-0.507999 -1.092199,-1.269998 0,-0.762 0.440266,-1.269999 1.096432,-1.269999 0.656167,0 1.096433,0.507999 1.096433,1.265765 0,0.397933 -0.105833,0.706966 -0.334433,0.965199 z"
         id="path876" />
      <path
         d="m 21.788931,84.256126 v 0.4699 l 0.1143,0.567266 h 0.169333 l 0.1143,-0.567266 v -0.4699 z"
         id="path878" />
      <path
         d="m 19.430965,88.790022 v 3.365497 C 19.270098,91.99042 18.838298,91.63482 18.584299,91.43162 l -0.148167,0.148167 c 0.436033,0.368299 0.732366,0.664632 1.113366,1.062565 0.380999,-0.397933 0.677333,-0.694266 1.113365,-1.062565 L 20.514697,91.43162 c -0.254,0.2032 -0.685799,0.5588 -0.846666,0.723899 v -3.365497 z"
         id="path880" />
    </g>
  </g>
  <g
     inkscape:groupmode="layer"
     id="layer2"
     inkscape:label="components"
     style="display:inline">
    <circle
       style="display:inline;fill:#0000ff;stroke-width:0.264583"
       id="path2787-83-6"
       cx="19.439348"
       cy="100.24304"
       r="3.8932071"
       inkscape:label="G3Q'" />
    <circle
       style="display:inline;fill:#0000ff;stroke-width:0.264583"
       id="path2787-83-5-7"
       cx="19.439348"
       cy="113.64677"
       r="3.8932071"
       inkscape:label="G3Q" />
    <circle
       style="display:inline;fill:#00ff00;stroke-width:0.264583"
       id="path2787-0-0-8"
       cx="9.525466"
       cy="120.34864"
       r="3.8932071"
       inkscape:label="G3In3" />
    <circle
       style="display:inline;fill:#00ff00;stroke-width:0.264583"
       id="path2787-0-0-1"
       cx="9.525466"
       cy="106.94492"
       r="3.8932071"
       inkscape:label="G3In2" />
    <circle
       style="display:inline;fill:#00ff00;stroke-width:0.264583"
       id="path2787-0-0"
       cx="9.525466"
       cy="93.541176"
       r="3.8932071"
       inkscape:label="G3In1" />
    <circle
       style="display:inline;fill:#0000ff;stroke-width:0.264583"
       id="path2787-83-6-9"
       cx="19.439348"
       cy="60.123299"
       r="3.8932071"
       inkscape:label="G2Q'" />
    <circle
       style="display:inline;fill:#0000ff;stroke-width:0.264583"
       id="path2787-83-5-7-2"
       cx="19.439348"
       cy="73.527031"
       r="3.8932071"
       inkscape:label="G2Q" />
    <circle
       style="display:inline;fill:#00ff00;stroke-width:0.264583"
       id="path2787-0-0-8-1"
       cx="9.5254669"
       cy="80.228897"
       r="3.8932071"
       inkscape:label="G2In3" />
    <circle
       style="display:inline;fill:#00ff00;stroke-width:0.264583"
       id="path2787-0-0-1-2"
       cx="9.5254669"
       cy="66.825172"
       r="3.8932071"
       inkscape:label="G2In2" />
    <circle
       style="display:inline;fill:#00ff00;stroke-width:0.264583"
       id="path2787-0-0-7"
       cx="9.5254669"
       cy="53.421432"
       r="3.8932071"
       inkscape:label="G2In1" />
    <circle
       style="display:inline;fill:#0000ff;stroke-width:0.264583"
       id="path2787-83-6-7"
       cx="19.439348"
       cy="20.003551"
       r="3.8932071"
       inkscape:label="G1G'" />
    <circle
       style="display:inline;fill:#0000ff;stroke-width:0.264583"
       id="path2787-83-5-7-6"
       cx="19.439348"
       cy="33.407291"
       r="3.8932071"
       inkscape:label="G1Q" />
    <circle
       style="display:inline;fill:#00ff00;stroke-width:0.264583"
       id="path2787-0-0-8-5"
       cx="9.525466"
       cy="40.109158"
       r="3.8932071"
       inkscape:label="G1In3" />
    <circle
       style="display:inline;fill:#00ff00;stroke-width:0.264583"
       id="path2787-0-0-1-3"
       cx="9.525466"
       cy="26.705425"
       r="3.8932071"
       inkscape:label="G1In2" />
    <circle
       style="display:inline;fill:#00ff00;stroke-width:0.264583"
       id="path2787-0-0-5"
       cx="9.525466"
       cy="13.301686"
       r="3.8932071"
       inkscape:label="G1In1" />
  </g>
</svg>
