<?xml version="1.0" encoding="UTF-8" standalone="no"?>
<!-- Created with Inkscape (http://www.inkscape.org/) -->

<svg
   width="25.4mm"
   height="128.5mm"
   viewBox="0 0 25.4 128.5"
   version="1.1"
   id="svg5"
   inkscape:version="1.3.2 (091e20ef0f, 2023-11-25)"
   sodipodi:docname="MultiLogic.svg"
   xmlns:inkscape="http://www.inkscape.org/namespaces/inkscape"
   xmlns:sodipodi="http://sodipodi.sourceforge.net/DTD/sodipodi-0.dtd"
   xmlns="http://www.w3.org/2000/svg"
   xmlns:svg="http://www.w3.org/2000/svg">
  <sodipodi:namedview
     id="namedview7"
     pagecolor="#ffffff"
     bordercolor="#000000"
     borderopacity="0.25"
     inkscape:showpageshadow="2"
     inkscape:pageopacity="0.0"
     inkscape:pagecheckerboard="0"
     inkscape:deskcolor="#d1d1d1"
     inkscape:document-units="mm"
     showgrid="false"
     inkscape:zoom="1.1893044"
     inkscape:cx="-66.425383"
     inkscape:cy="280.41601"
     inkscape:window-width="1920"
     inkscape:window-height="1064"
     inkscape:window-x="1680"
     inkscape:window-y="16"
     inkscape:window-maximized="1"
     inkscape:current-layer="layer1" />
  <defs
     id="defs2" />
  <g
     inkscape:label="Layer 1"
     inkscape:groupmode="layer"
     id="layer1">
    <rect
       style="fill:#808080;stroke-width:0.137058"
       id="rect251"
       width="25.4"
       height="128.5"
       x="8.8817842e-15"
       y="5.3290705e-15"
       inkscape:label="background" />
    <g
       aria-label="┌─AND─┐                          ┌───OR───┐                            ┌─XOR─┐"
       transform="rotate(-90)"
       id="text460"
       style="font-size:3.175px;stroke-width:0.264583">
      <path
         d="m -120.0472,4.2496397 h 0.254 V 2.7891398 h 1.4605 v -0.254 h -1.7145 z"
         id="path580" />
      <path
         d="m -115.1577,2.5351398 h -3.175 v 0.254 h 3.175 z"
         id="path582" />
      <path
         d="m -113.6591,2.9193148 0.23813,0.695325 h 0.3302 l -0.8128,-2.314575 h -0.381 l -0.8255,2.314575 h 0.31432 l 0.24448,-0.695325 z m -0.0826,-0.24765 h -0.7366 l 0.381,-1.0541 z"
         id="path584" />
      <path
         d="m -110.9794,1.3000648 h -0.2794 v 1.8923 l -1.20967,-1.8923 h -0.32068 v 2.314575 h 0.2794 v -1.876425 l 1.19698,1.876425 h 0.33337 z"
         id="path586" />
      <path
         d="m -110.4714,3.6146398 h 0.89218 c 0.5842,0 0.94297,-0.43815 0.94297,-1.158875 0,-0.71755 -0.3556,-1.1557 -0.94297,-1.1557 h -0.89218 z m 0.29528,-0.26035 v -1.793875 h 0.5461 c 0.4572,0 0.6985,0.307975 0.6985,0.898525 0,0.5842 -0.2413,0.89535 -0.6985,0.89535 z"
         id="path588" />
      <path
         d="m -105.33425,2.5351398 h -3.175 v 0.254 h 3.175 z"
         id="path590" />
      <path
         d="m -105.33425,2.5351398 v 0.254 h 1.4605 v 1.4604999 h 0.254 V 2.5351398 Z"
         id="path592" />
      <path
         d="m -80.061248,4.2496397 h 0.254 V 2.7891398 h 1.4605 v -0.254 h -1.7145 z"
         id="path594" />
      <path
         d="m -75.171748,2.5351398 h -3.175 v 0.254 h 3.175 z"
         id="path596" />
      <path
         d="m -71.996749,2.5351398 h -3.175 v 0.254 h 3.175 z"
         id="path598" />
      <path
         d="m -68.82175,2.5351398 h -3.175 v 0.254 h 3.175 z"
         id="path600" />
      <path
         d="m -66.459551,2.4938648 c 0,-0.746125 -0.441325,-1.2319 -1.120775,-1.2319 -0.663575,0 -1.114425,0.48895 -1.114425,1.21285 0,0.7239 0.45085,1.21285 1.1176,1.21285 0.69215,0 1.1176,-0.52705 1.1176,-1.1938 z m -1.120775,-0.97155 c 0.50165,0 0.8255,0.381 0.8255,0.9652 0,0.5588 -0.333375,0.9398 -0.822325,0.9398 -0.492125,0 -0.822325,-0.381 -0.822325,-0.9525 0,-0.5715 0.3302,-0.9525 0.81915,-0.9525 z"
         id="path602" />
      <path
         d="m -64.672021,2.4716398 c 0.26035,-0.127 0.365125,-0.288925 0.365125,-0.55245 0,-0.40005 -0.250825,-0.619125 -0.70485,-0.619125 h -1.0668 v 2.314575 h 0.295275 v -0.99695 h 0.762 c 0.263525,0 0.381,0.127 0.381,0.41275 v 0.206375 c 0,0.142875 0.02222,0.282575 0.0635,0.377825 h 0.358775 v -0.073025 c -0.123825,-0.08255 -0.1397,-0.2159 -0.1397,-0.365125 0,-0.0508 0.0032,-0.10795 0.0032,-0.161925 0,-0.20955 -0.02857,-0.4191 -0.3175,-0.542925 z m 0.05715,-0.511175 c 0,0.27305 -0.1397,0.396875 -0.454025,0.396875 h -0.714375 v -0.796925 h 0.714375 c 0.24765,0 0.454025,0.06985 0.454025,0.40005 z"
         id="path604" />
      <path
         d="m -60.906474,2.5351398 h -3.175 v 0.254 h 3.175 z"
         id="path606" />
      <path
         d="m -57.731475,2.5351398 h -3.175 v 0.254 h 3.175 z"
         id="path608" />
      <path
         d="m -54.556476,2.5351398 h -3.175 v 0.254 h 3.175 z"
         id="path610" />
      <path
         d="m -54.556473,2.5351398 v 0.254 h 1.4605 v 1.4604999 h 0.254 V 2.5351398 Z"
         id="path612" />
      <path
         d="m -27.695971,4.2496397 h 0.254 V 2.7891398 h 1.4605 v -0.254 h -1.7145 z"
         id="path614" />
      <path
         d="m -22.806476,2.5351398 h -3.175 v 0.254 h 3.175 z"
         id="path616" />
      <path
         d="m -21.587273,2.4271898 0.78105,-1.127125 h -0.352425 l -0.5969,0.90805 -0.593725,-0.90805 h -0.358775 l 0.76835,1.127125 -0.81915,1.18745 h 0.358775 l 0.635,-0.9652 0.631825,0.9652 h 0.365125 z"
         id="path618" />
      <path
         d="m -18.358305,2.4938648 c 0,-0.746125 -0.441325,-1.2319 -1.120775,-1.2319 -0.663575,0 -1.114425,0.48895 -1.114425,1.21285 0,0.7239 0.45085,1.21285 1.1176,1.21285 0.69215,0 1.1176,-0.52705 1.1176,-1.1938 z m -1.120775,-0.97155 c 0.50165,0 0.8255,0.381 0.8255,0.9652 0,0.5588 -0.333375,0.9398 -0.822325,0.9398 -0.492125,0 -0.822325,-0.381 -0.822325,-0.9525 0,-0.5715 0.3302,-0.9525 0.81915,-0.9525 z"
         id="path620" />
      <path
         d="m -16.570775,2.4716398 c 0.26035,-0.127 0.365125,-0.288925 0.365125,-0.55245 0,-0.40005 -0.250825,-0.619125 -0.70485,-0.619125 h -1.0668 v 2.314575 h 0.295275 v -0.99695 h 0.762 c 0.263525,0 0.381,0.127 0.381,0.41275 v 0.206375 c 0,0.142875 0.02222,0.282575 0.0635,0.377825 h 0.358775 v -0.073025 c -0.123825,-0.08255 -0.1397,-0.2159 -0.1397,-0.365125 0,-0.0508 0.0032,-0.10795 0.0032,-0.161925 0,-0.20955 -0.02858,-0.4191 -0.3175,-0.542925 z m 0.05715,-0.511175 c 0,0.27305 -0.1397,0.396875 -0.454025,0.396875 h -0.714375 v -0.796925 h 0.714375 c 0.24765,0 0.454025,0.06985 0.454025,0.40005 z"
         id="path622" />
      <path
         d="m -12.805225,2.5351398 h -3.175 v 0.254 h 3.175 z"
         id="path624" />
      <path
         d="m -12.805229,2.5351398 v 0.254 h 1.4605 v 1.4604999 h 0.254 V 2.5351398 Z"
         id="path626" />
    </g>
    <g
       aria-label="Logic"
       transform="rotate(20,-2.6554672,7.6629447)"
       id="text686"
       style="font-size:6.35px;display:inline;stroke-width:0.264583"
       inkscape:label="Title">
      <path
         d="M 10.015611,-1.2982907 H 9.4250608 v 4.6291499 h 2.8765502 v -0.5207 h -2.286 z"
         id="path810" />
      <path
         d="m 14.181209,-0.09179076 c -0.93345,0 -1.4986,0.66674999 -1.4986,1.78434996 0,1.1176 0.5588,1.78435 1.50495,1.78435 0.93345,0 1.50495,-0.66675 1.50495,-1.75895 0,-1.14934997 -0.55245,-1.80974996 -1.5113,-1.80974996 z m 0.0063,0.48894999 c 0.5969,0 0.9525,0.48894999 0.9525,1.31444997 0,0.78105 -0.3683,1.27635 -0.9525,1.27635 -0.59055,0 -0.9525,-0.48895 -0.9525,-1.2954 0,-0.80009998 0.36195,-1.29539997 0.9525,-1.29539997 z"
         id="path812" />
      <path
         d="m 17.445112,3.4769092 c 0.4191,0 0.7112,-0.1778 1.00965,-0.5969 v 0.17145 c 0,0.762 -0.1778,1.2192 -0.9271,1.2192 -0.1651,0 -0.71755,-0.01905 -0.80645,-0.5588 h -0.53975 c 0.05715,0.62865 0.5461,1.0033 1.32715,1.0033 1.26365,0 1.4859,-0.7747 1.4859,-1.9304 V 0.00345923 h -0.55245 l 0.0635,0.4826 c -0.2667,-0.3937 -0.59055,-0.57784999 -1.016,-0.57784999 -0.84455,0 -1.41605,0.73659998 -1.41605,1.81609996 0,1.08585 0.61595,1.7526 1.3716,1.7526 z m 0.1016,-3.07974997 c 0.5715,0 0.90805,0.48259999 0.90805,1.31444997 0,0.79375 -0.3429,1.27635 -0.9017,1.27635 -0.57785,0 -0.9271,-0.48895 -0.9271,-1.2954 0,-0.80009998 0.3556,-1.29539997 0.92075,-1.29539997 z"
         id="path814" />
      <path
         d="m 20.328006,0.00345923 h -0.52705 V 3.3308592 h 0.52705 z m 0,-1.30174993 h -0.5334 v 0.66674994 h 0.5334 z"
         id="path816" />
      <path
         d="m 23.769708,1.1210592 c -0.0635,-0.79374997 -0.55245,-1.21284996 -1.31445,-1.21284996 -0.89535,0 -1.47955,0.71119998 -1.47955,1.81609996 0,1.07315 0.5715,1.7526 1.4732,1.7526 0.79375,0 1.2954,-0.47625 1.3589,-1.28905 h -0.5334 c -0.0889,0.5334 -0.36195,0.8001 -0.8128,0.8001 -0.5842,0 -0.93345,-0.47625 -0.93345,-1.26365 0,-0.83184998 0.3429,-1.32714997 0.92075,-1.32714997 0.4445,0 0.7239,0.26034999 0.7874,0.72389997 z"
         id="path818" />
    </g>
    <g
       aria-label="↑ Q       Q' ↓"
       id="text744"
       style="font-size:4.23333px;display:inline;stroke-width:0.264583"
       inkscape:label="QNOTQ"
       transform="matrix(1,0,0,0.89958443,-0.36874939,5.948971)">
      <path
         d="m 19.668031,44.924259 v -3.365497 c 0.160867,0.1651 0.592666,0.5207 0.846666,0.723899 l 0.148166,-0.148166 c -0.436032,-0.3683 -0.732366,-0.664633 -1.113365,-1.062566 -0.381,0.397933 -0.677333,0.694266 -1.113366,1.062566 l 0.148167,0.148166 c 0.253999,-0.203199 0.685799,-0.558799 0.846666,-0.723899 v 3.365497 z"
         id="path872" />
      <path
         d="m 21.35713,50.220155 -0.397933,-0.325967 c 0.292099,-0.321733 0.436033,-0.719666 0.436033,-1.206499 0,-0.956732 -0.601133,-1.608665 -1.490133,-1.608665 -0.888999,0 -1.490132,0.651933 -1.490132,1.617132 0,0.965199 0.601133,1.617132 1.490132,1.617132 0.3048,0 0.5588,-0.06773 0.808566,-0.2159 l 0.4445,0.3683 z m -1.0668,-0.872066 -0.194733,0.237066 0.313267,0.262467 c -0.182033,0.08467 -0.321733,0.118533 -0.508,0.118533 -0.656166,0 -1.092199,-0.508 -1.092199,-1.269999 0,-0.761999 0.440266,-1.269999 1.096432,-1.269999 0.656167,0 1.096433,0.508 1.096433,1.265766 0,0.397933 -0.105833,0.706966 -0.334433,0.965199 z"
         id="path874" />
      <path
         d="m 21.35713,87.26179 -0.397933,-0.325966 c 0.292099,-0.321733 0.436033,-0.719666 0.436033,-1.206499 0,-0.956733 -0.601133,-1.608665 -1.490133,-1.608665 -0.888999,0 -1.490132,0.651932 -1.490132,1.617132 0,0.965199 0.601133,1.617132 1.490132,1.617132 0.3048,0 0.5588,-0.06773 0.808566,-0.2159 l 0.4445,0.368299 z m -1.0668,-0.872066 -0.194733,0.237067 0.313267,0.262466 c -0.182033,0.08467 -0.321733,0.118533 -0.508,0.118533 -0.656166,0 -1.092199,-0.507999 -1.092199,-1.269998 0,-0.762 0.440266,-1.269999 1.096432,-1.269999 0.656167,0 1.096433,0.507999 1.096433,1.265765 0,0.397933 -0.105833,0.706966 -0.334433,0.965199 z"
         id="path876" />
      <path
         d="m 21.788931,84.256126 v 0.4699 l 0.1143,0.567266 h 0.169333 l 0.1143,-0.567266 v -0.4699 z"
         id="path878" />
      <path
         d="m 19.430965,88.790022 v 3.365497 C 19.270098,91.99042 18.838298,91.63482 18.584299,91.43162 l -0.148167,0.148167 c 0.436033,0.368299 0.732366,0.664632 1.113366,1.062565 0.380999,-0.397933 0.677333,-0.694266 1.113365,-1.062565 L 20.514697,91.43162 c -0.254,0.2032 -0.685799,0.5588 -0.846666,0.723899 v -3.365497 z"
         id="path880" />
    </g>
    <rect
       style="display:inline;fill:#333333;stroke-width:0.168858"
       id="rect1809"
       width="9.8882332"
       height="27.165018"
       x="14.600363"
       y="90.862427"
       inkscape:label="output 3 background" />
    <rect
       style="display:inline;fill:#333333;stroke-width:0.168858"
       id="rect1809-6"
       width="9.8882332"
       height="27.165018"
       x="14.600363"
       y="51.992672"
       inkscape:label="output 2 background" />
    <rect
       style="display:inline;fill:#333333;stroke-width:0.168858"
       id="rect1809-3"
       width="9.8882332"
       height="27.165018"
       x="14.600363"
       y="13.122907"
       inkscape:label="output 1 background" />
  </g>
  <g
     inkscape:groupmode="layer"
     id="layer2"
     inkscape:label="components"
     style="display:none">
    <circle
       style="display:inline;fill:#0000ff;stroke-width:0.264583"
       id="path2787-83-6"
       cx="19.439348"
       cy="97.743073"
       r="3.8932071"
       inkscape:label="G3Q'" />
    <circle
       style="display:inline;fill:#0000ff;stroke-width:0.264583"
       id="path2787-83-5-7"
       cx="19.439348"
       cy="111.1468"
       r="3.8932071"
       inkscape:label="G3Q" />
    <circle
       style="display:inline;fill:#00ff00;stroke-width:0.264583"
       id="path2787-0-0-8"
       cx="9.525466"
       cy="117.84867"
       r="3.8932071"
       inkscape:label="G3In3" />
    <circle
       style="display:inline;fill:#00ff00;stroke-width:0.264583"
       id="path2787-0-0-1"
       cx="9.525466"
       cy="104.44495"
       r="3.8932071"
       inkscape:label="G3In2" />
    <circle
       style="display:inline;fill:#00ff00;stroke-width:0.264583"
       id="path2787-0-0"
       cx="9.525466"
       cy="91.041206"
       r="3.8932071"
       inkscape:label="G3In1" />
    <circle
       style="display:inline;fill:#0000ff;stroke-width:0.264583"
       id="path2787-83-6-9"
       cx="19.439348"
       cy="58.873318"
       r="3.8932071"
       inkscape:label="G2Q'" />
    <circle
       style="display:inline;fill:#0000ff;stroke-width:0.264583"
       id="path2787-83-5-7-2"
       cx="19.439348"
       cy="72.277046"
       r="3.8932071"
       inkscape:label="G2Q" />
    <circle
       style="display:inline;fill:#00ff00;stroke-width:0.264583"
       id="path2787-0-0-8-1"
       cx="9.5254669"
       cy="78.978912"
       r="3.8932071"
       inkscape:label="G2In3" />
    <circle
       style="display:inline;fill:#00ff00;stroke-width:0.264583"
       id="path2787-0-0-1-2"
       cx="9.5254669"
       cy="65.575188"
       r="3.8932071"
       inkscape:label="G2In2" />
    <circle
       style="display:inline;fill:#00ff00;stroke-width:0.264583"
       id="path2787-0-0-7"
       cx="9.5254669"
       cy="52.171452"
       r="3.8932071"
       inkscape:label="G2In1" />
    <circle
       style="display:inline;fill:#0000ff;stroke-width:0.264583"
       id="path2787-83-6-7"
       cx="19.439348"
       cy="20.003551"
       r="3.8932071"
       inkscape:label="G1G'" />
    <circle
       style="display:inline;fill:#0000ff;stroke-width:0.264583"
       id="path2787-83-5-7-6"
       cx="19.439348"
       cy="33.407291"
       r="3.8932071"
       inkscape:label="G1Q" />
    <circle
       style="display:inline;fill:#00ff00;stroke-width:0.264583"
       id="path2787-0-0-8-5"
       cx="9.525466"
       cy="40.109158"
       r="3.8932071"
       inkscape:label="G1In3" />
    <circle
       style="display:inline;fill:#00ff00;stroke-width:0.264583"
       id="path2787-0-0-1-3"
       cx="9.525466"
       cy="26.705425"
       r="3.8932071"
       inkscape:label="G1In2" />
    <circle
       style="display:inline;fill:#00ff00;stroke-width:0.264583"
       id="path2787-0-0-5"
       cx="9.525466"
       cy="13.301686"
       r="3.8932071"
       inkscape:label="G1In1" />
  </g>
</svg>
