<?xml version="1.0" encoding="UTF-8" standalone="no"?>
<!-- Created with Inkscape (http://www.inkscape.org/) -->

<svg
   width="20.32mm"
   height="128.5mm"
   viewBox="0 0 20.32 128.5"
   version="1.1"
   id="svg5"
   inkscape:version="1.3.2 (091e20ef0f, 2023-11-25)"
   sodipodi:docname="RepeatBuddy.svg"
   xmlns:inkscape="http://www.inkscape.org/namespaces/inkscape"
   xmlns:sodipodi="http://sodipodi.sourceforge.net/DTD/sodipodi-0.dtd"
   xmlns="http://www.w3.org/2000/svg"
   xmlns:svg="http://www.w3.org/2000/svg">
  <sodipodi:namedview
     id="namedview7"
     pagecolor="#ffffff"
     bordercolor="#000000"
     borderopacity="0.25"
     inkscape:showpageshadow="2"
     inkscape:pageopacity="0.0"
     inkscape:pagecheckerboard="0"
     inkscape:deskcolor="#d1d1d1"
     inkscape:document-units="mm"
     showgrid="false"
     inkscape:zoom="5.1656856"
     inkscape:cx="7.4530281"
     inkscape:cy="125.34638"
     inkscape:window-width="1920"
     inkscape:window-height="1064"
     inkscape:window-x="1680"
     inkscape:window-y="16"
     inkscape:window-maximized="1"
     inkscape:current-layer="layer2" />
  <defs
     id="defs2" />
  <g
     inkscape:label="Layer 1"
     inkscape:groupmode="layer"
     id="layer1"
     style="display:inline">
    <rect
       style="fill:#808080;stroke-width:0.0926683"
       id="rect251"
       width="20.32"
       height="128.5"
       x="8.8817842e-15"
       y="5.3290705e-15"
       inkscape:label="background" />
    <rect
       style="display:inline;fill:#333333;stroke-width:0.25817"
       id="rect1809-8-7"
       width="9.5701551"
       height="65.612076"
       x="10.174175"
       y="52.33511"
       inkscape:label="counter outputs background" />
    <g
       id="g5"
       inkscape:label="text"
       style="display:none">
      <text
         xml:space="preserve"
         style="font-size:2.82222px;line-height:0.9;display:inline;fill:#000000;stroke:none;stroke-width:0.264583;stroke-opacity:1"
         x="2.2879627"
         y="120.28979"
         id="text4-9-0-2-1-7-2"
         inkscape:label="Division label"><tspan
           sodipodi:role="line"
           style="font-size:2.82222px;line-height:0.9;fill:#000000;stroke-width:0.264583"
           x="2.2879627"
           y="120.28979"
           id="tspan10">In         Out</tspan><tspan
           sodipodi:role="line"
           style="font-size:2.82222px;line-height:0.9;fill:#000000;stroke-width:0.264583"
           x="2.2879627"
           y="122.82979"
           id="tspan11">   Division</tspan></text>
      <text
         xml:space="preserve"
         style="font-size:2.82222px;display:inline;fill:#cccccc;stroke:none;stroke-width:0.264583;stroke-opacity:1"
         x="10.892418"
         y="92.474541"
         id="text4-9-0-2-1-7"
         inkscape:label="counter cv label"><tspan
           sodipodi:role="line"
           style="font-size:2.82222px;fill:#cccccc;stroke-width:0.264583"
           x="10.892418"
           y="92.474541"
           id="tspan9-8-9">Count</tspan></text>
      <text
         xml:space="preserve"
         style="font-size:2.82222px;display:inline;fill:#cccccc;stroke:none;stroke-width:0.264583;stroke-opacity:1"
         x="11.54426"
         y="64.214523"
         id="text4-9-0-2-1"
         inkscape:label="comparator label"><tspan
           sodipodi:role="line"
           style="font-size:2.82222px;fill:#cccccc;stroke-width:0.264583"
           x="11.54426"
           y="64.214523"
           id="tspan9-8">Cmp</tspan></text>
      <text
         xml:space="preserve"
         style="font-size:2.82222px;display:inline;fill:#000000;stroke:none;stroke-width:0.264583;stroke-opacity:1"
         x="3.3020377"
         y="64.214523"
         id="text4-9-0-2"
         inkscape:label="reset label"><tspan
           sodipodi:role="line"
           style="font-size:2.82222px;stroke-width:0.264583"
           x="3.3020377"
           y="64.214523"
           id="tspan9">Rst</tspan></text>
      <text
         xml:space="preserve"
         style="font-size:2.82222px;display:inline;fill:#000000;stroke:none;stroke-width:0.264583;stroke-opacity:1"
         x="1.3846008"
         y="50.870003"
         id="text4-9-0"
         inkscape:label="count label"><tspan
           sodipodi:role="line"
           style="font-size:2.82222px;stroke-width:0.264583"
           x="1.3846008"
           y="50.870003"
           id="tspan8">Count</tspan></text>
      <text
         xml:space="preserve"
         style="font-size:2.82222px;display:inline;fill:#000000;stroke:none;stroke-width:0.264583;stroke-opacity:1"
         x="3.6046774"
         y="22.71261"
         id="text4-9"
         inkscape:label="threshold label"><tspan
           sodipodi:role="line"
           style="font-size:2.82222px;stroke-width:0.264583"
           x="3.6046774"
           y="22.71261"
           id="tspan4">Threshold</tspan></text>
      <text
         xml:space="preserve"
         style="font-size:4.93889px;display:inline;fill:#000000;stroke-width:0.264583"
         x="1.67219"
         y="11.046557"
         id="text1-9"
         inkscape:label="Title"><tspan
           sodipodi:role="line"
           id="tspan1-3"
           style="font-size:4.93889px;stroke-width:0.264583"
           x="1.67219"
           y="11.046557">Repeat</tspan><tspan
           sodipodi:role="line"
           style="font-size:4.93889px;stroke-width:0.264583"
           x="1.67219"
           y="17.220169"
           id="tspan5">Buddy</tspan></text>
    </g>
    <g
       id="g4"
       inkscape:label="paths"
       style="display:inline">
      <g
         id="text4-9-0-2-1-7-2-3"
         style="font-size:2.82222px;line-height:0.9;stroke-width:0.264583"
         inkscape:label="Division label"
         aria-label="In         Out&#10;   Division">
        <path
           d="m 2.5545703,118.22804 h 0.2783635 v 2.05741 H 2.5545703 Z m 2.1042627,1.12586 v 0.93155 H 4.4052742 v -0.92328 q 0,-0.21911 -0.085438,-0.32797 -0.085438,-0.10887 -0.2563149,-0.10887 -0.2053276,0 -0.3238388,0.13091 -0.1185112,0.13092 -0.1185112,0.35692 v 0.87229 H 3.3662342 v -1.5434 H 3.621171 v 0.23978 q 0.09095,-0.13918 0.2135958,-0.20808 0.1240233,-0.0689 0.2852537,-0.0689 0.2659612,0 0.4023868,0.16536 0.1364257,0.16399 0.1364257,0.48369 z m 9.425774,-0.93706 q -0.303168,0 -0.482313,0.22599 -0.177767,0.226 -0.177767,0.61599 0,0.3886 0.177767,0.6146 0.179145,0.226 0.482313,0.226 0.303168,0 0.479557,-0.226 0.177767,-0.226 0.177767,-0.6146 0,-0.38999 -0.177767,-0.61599 -0.176389,-0.22599 -0.479557,-0.22599 z m 0,-0.226 q 0.432704,0 0.691775,0.29076 0.259071,0.28939 0.259071,0.77722 0,0.48644 -0.259071,0.77721 -0.259071,0.28939 -0.691775,0.28939 -0.434082,0 -0.694531,-0.28939 -0.259071,-0.28939 -0.259071,-0.77721 0,-0.48783 0.259071,-0.77722 0.260449,-0.29076 0.694531,-0.29076 z m 1.349098,1.48552 v -0.93431 h 0.253559 v 0.92467 q 0,0.2191 0.08544,0.32935 0.08544,0.10886 0.256315,0.10886 0.205328,0 0.323839,-0.13091 0.119889,-0.13092 0.119889,-0.35691 v -0.87506 h 0.253559 v 1.5434 h -0.253559 v -0.23702 q -0.09233,0.14056 -0.214974,0.20946 -0.121267,0.0675 -0.282497,0.0675 -0.265962,0 -0.403765,-0.16537 -0.137804,-0.16536 -0.137804,-0.48369 z m 0.638031,-0.97151 z m 1.427647,-0.40101 v 0.43821 h 0.522276 v 0.19706 h -0.522276 v 0.83785 q 0,0.18879 0.05099,0.24253 0.05237,0.0537 0.21084,0.0537 h 0.260449 v 0.21221 H 17.76121 q -0.293522,0 -0.405143,-0.10886 -0.111621,-0.11024 -0.111621,-0.39963 v -0.83785 H 17.058411 V 118.742 h 0.186035 v -0.43821 z"
           id="path1" />
        <path
           d="m 5.5242404,120.9968 v 1.5999 h 0.336241 q 0.4258135,0 0.6228728,-0.19293 0.1984374,-0.19292 0.1984374,-0.60909 0,-0.41341 -0.1984374,-0.60496 -0.1970593,-0.19292 -0.6228728,-0.19292 z m -0.2783636,-0.22876 h 0.5718855 q 0.5980681,0 0.8778096,0.24943 0.2797416,0.24804 0.2797416,0.77721 0,0.53192 -0.2811196,0.78135 -0.2811196,0.24942 -0.8764316,0.24942 H 5.2458768 Z m 2.1621401,0.51401 h 0.2535589 v 1.5434 H 7.4080169 Z m 0,-0.60082 h 0.2535589 v 0.32108 H 7.4080169 Z m 0.6022025,0.60082 h 0.2687173 l 0.482313,1.29536 0.482313,-1.29536 h 0.2687172 l -0.5787756,1.5434 H 8.588995 Z m 1.8520817,0 H 10.11586 v 1.5434 H 9.8623011 Z m 0,-0.60082 H 10.11586 v 0.32108 H 9.8623011 Z m 1.7680219,0.6463 v 0.23977 q -0.107487,-0.0551 -0.223242,-0.0827 -0.115755,-0.0276 -0.239778,-0.0276 -0.188792,0 -0.283876,0.0579 -0.09371,0.0579 -0.09371,0.17363 0,0.0882 0.06752,0.13918 0.06752,0.0496 0.271474,0.0951 l 0.08682,0.0193 q 0.270095,0.0579 0.383094,0.16399 0.114377,0.10473 0.114377,0.29352 0,0.21497 -0.170876,0.34037 -0.169499,0.1254 -0.467155,0.1254 -0.124023,0 -0.259071,-0.0248 -0.13367,-0.0234 -0.282498,-0.0717 v -0.26182 q 0.14056,0.073 0.276986,0.11024 0.136426,0.0358 0.270095,0.0358 0.179145,0 0.275608,-0.0606 0.09646,-0.062 0.09646,-0.17363 0,-0.10335 -0.07028,-0.15847 -0.0689,-0.0551 -0.304546,-0.10611 l -0.08819,-0.0207 q -0.235645,-0.0496 -0.340375,-0.15159 -0.104731,-0.10335 -0.104731,-0.28249 0,-0.21773 0.15434,-0.33625 0.15434,-0.11851 0.438216,-0.11851 0.14056,0 0.264583,0.0207 0.124023,0.0207 0.228754,0.062 z m 0.486447,-0.0455 h 0.253559 v 1.5434 H 12.11677 Z m 0,-0.60082 h 0.253559 v 0.32108 H 12.11677 Z m 1.382172,0.77859 q -0.20395,0 -0.322461,0.15985 -0.118511,0.15847 -0.118511,0.43546 0,0.27698 0.117133,0.43684 0.118511,0.15847 0.323839,0.15847 0.202571,0 0.321082,-0.15985 0.118511,-0.15985 0.118511,-0.43546 0,-0.27423 -0.118511,-0.43408 -0.118511,-0.16123 -0.321082,-0.16123 z m 0,-0.21498 q 0.330728,0 0.51952,0.21498 0.188791,0.21497 0.188791,0.59531 0,0.37896 -0.188791,0.59531 -0.188792,0.21497 -0.51952,0.21497 -0.332107,0 -0.520898,-0.21497 -0.187414,-0.21635 -0.187414,-0.59531 0,-0.38034 0.187414,-0.59531 0.188791,-0.21498 0.520898,-0.21498 z m 2.411565,0.64906 v 0.93155 h -0.253559 v -0.92328 q 0,-0.21911 -0.08544,-0.32798 -0.08544,-0.10886 -0.256315,-0.10886 -0.205328,0 -0.323839,0.13091 -0.118511,0.13092 -0.118511,0.35691 v 0.8723 h -0.254937 v -1.5434 h 0.254937 v 0.23978 q 0.09095,-0.13918 0.213596,-0.20808 0.124023,-0.0689 0.285253,-0.0689 0.265961,0 0.402387,0.16537 0.136426,0.16398 0.136426,0.48369 z"
           id="path2" />
      </g>
      <path
         d="m 12.754468,90.802435 v 0.293522 q -0.14056,-0.130914 -0.300412,-0.195681 -0.158474,-0.06477 -0.337619,-0.06477 -0.352778,0 -0.540191,0.216352 -0.187413,0.214974 -0.187413,0.622873 0,0.406521 0.187413,0.622872 0.187413,0.214974 0.540191,0.214974 0.179145,0 0.337619,-0.06477 0.159852,-0.06477 0.300412,-0.195681 v 0.290766 q -0.146072,0.09922 -0.310058,0.148828 -0.162609,0.04961 -0.344509,0.04961 -0.467155,0 -0.735872,-0.285253 -0.268718,-0.286632 -0.268718,-0.781347 0,-0.496094 0.268718,-0.781348 0.268717,-0.286631 0.735872,-0.286631 0.184657,0 0.347265,0.04961 0.163986,0.04823 0.307302,0.146072 z m 1.016992,0.5333 q -0.20395,0 -0.322461,0.159853 -0.118511,0.158474 -0.118511,0.435459 0,0.276986 0.117133,0.436838 0.118511,0.158475 0.323839,0.158475 0.202571,0 0.321082,-0.159853 0.118511,-0.159852 0.118511,-0.43546 0,-0.274229 -0.118511,-0.434081 -0.118511,-0.161231 -0.321082,-0.161231 z m 0,-0.214973 q 0.330729,0 0.51952,0.214973 0.188791,0.214974 0.188791,0.595312 0,0.378961 -0.188791,0.595313 -0.188791,0.214973 -0.51952,0.214973 -0.332107,0 -0.520898,-0.214973 -0.187414,-0.216352 -0.187414,-0.595313 0,-0.380338 0.187414,-0.595312 0.188791,-0.214973 0.520898,-0.214973 z m 1.102429,0.971516 v -0.934309 h 0.253559 v 0.924663 q 0,0.219107 0.08544,0.32935 0.08544,0.108865 0.256314,0.108865 0.205328,0 0.323839,-0.130913 0.119889,-0.130914 0.119889,-0.356912 v -0.875053 h 0.253559 V 92.70137 H 15.91293 v -0.237022 q -0.09233,0.14056 -0.214973,0.209461 -0.121268,0.06752 -0.282498,0.06752 -0.265961,0 -0.403765,-0.165364 Q 14.87389,92.4106 14.87389,92.092274 Z m 0.638032,-0.971516 z m 2.459796,0.649055 v 0.931553 h -0.253559 v -0.923285 q 0,-0.219108 -0.08544,-0.327972 -0.08544,-0.108865 -0.256315,-0.108865 -0.205328,0 -0.323839,0.130913 -0.118511,0.130914 -0.118511,0.356912 v 0.872297 h -0.254937 v -1.543401 h 0.254937 v 0.239778 q 0.09095,-0.139182 0.213595,-0.208084 0.124024,-0.0689 0.285254,-0.0689 0.265961,0 0.402387,0.165364 0.136426,0.163987 0.136426,0.483691 z m 0.756542,-1.050064 v 0.438216 h 0.522276 v 0.197059 h -0.522276 v 0.837847 q 0,0.188791 0.05099,0.242534 0.05236,0.05374 0.210839,0.05374 h 0.260449 v 0.212217 h -0.260449 q -0.293522,0 -0.405143,-0.108865 -0.111621,-0.110243 -0.111621,-0.39963 v -0.837847 h -0.186035 v -0.197059 h 0.186035 v -0.438216 z"
         id="text4-9-0-2-1-7-6"
         style="font-size:2.82222px;fill:#cccccc;stroke-width:0.264583"
         inkscape:label="counter cv label"
         aria-label="Count" />
      <path
         d="m 13.406309,62.542418 v 0.293522 q -0.140559,-0.130914 -0.300412,-0.195682 -0.158474,-0.06477 -0.337619,-0.06477 -0.352777,0 -0.54019,0.216351 -0.187413,0.214974 -0.187413,0.622873 0,0.406521 0.187413,0.622873 0.187413,0.214974 0.54019,0.214974 0.179145,0 0.337619,-0.06477 0.159853,-0.06477 0.300412,-0.195681 v 0.290766 q -0.146072,0.09922 -0.310058,0.148828 -0.162608,0.04961 -0.344509,0.04961 -0.467155,0 -0.735872,-0.285254 -0.268717,-0.286631 -0.268717,-0.781347 0,-0.496093 0.268717,-0.781347 0.268717,-0.286632 0.735872,-0.286632 0.184657,0 0.347265,0.04961 0.163986,0.04823 0.307302,0.146072 z m 1.620572,0.651811 q 0.09509,-0.170876 0.227376,-0.252181 0.132292,-0.0813 0.311437,-0.0813 0.241156,0 0.37207,0.169499 0.130913,0.16812 0.130913,0.479557 v 0.931553 H 15.81374 v -0.923285 q 0,-0.221864 -0.07855,-0.329351 -0.07855,-0.107487 -0.239778,-0.107487 -0.19706,0 -0.311437,0.130914 -0.114377,0.130913 -0.114377,0.356911 v 0.872298 h -0.254937 v -0.923285 q 0,-0.223242 -0.07855,-0.329351 -0.07855,-0.107487 -0.242534,-0.107487 -0.194304,0 -0.308681,0.132292 -0.114377,0.130913 -0.114377,0.355533 v 0.872298 h -0.254937 v -1.543402 h 0.254937 v 0.239779 q 0.08682,-0.141938 0.208084,-0.209462 0.121267,-0.06752 0.28801,-0.06752 0.16812,0 0.285253,0.08544 0.118511,0.08544 0.175011,0.248046 z m 1.792826,1.015614 v 0.818554 H 16.56477 v -2.130446 h 0.254937 v 0.234267 q 0.07993,-0.137804 0.201194,-0.20395 0.122645,-0.06752 0.292144,-0.06752 0.281119,0 0.45613,0.223242 0.176389,0.223242 0.176389,0.587044 0,0.363802 -0.176389,0.587044 -0.175011,0.223242 -0.45613,0.223242 -0.169499,0 -0.292144,-0.06615 -0.121268,-0.06752 -0.201194,-0.205327 z m 0.862652,-0.538813 q 0,-0.279741 -0.115756,-0.438216 -0.114377,-0.159852 -0.31557,-0.159852 -0.201194,0 -0.316949,0.159852 -0.114377,0.158475 -0.114377,0.438216 0,0.279742 0.114377,0.439594 0.115755,0.158474 0.316949,0.158474 0.201193,0 0.31557,-0.158474 0.115756,-0.159852 0.115756,-0.439594 z"
         id="text4-9-0-2-1-8"
         style="font-size:2.82222px;fill:#cccccc;stroke-width:0.264583"
         inkscape:label="comparator label"
         aria-label="Cmp" />
      <path
         d="m 4.5990978,63.476727 q 0.089572,0.03032 0.1736327,0.129535 0.085438,0.09922 0.1708766,0.272852 l 0.2824976,0.562239 H 4.9270706 L 4.6638655,63.913565 q -0.1019747,-0.206706 -0.1984373,-0.27423 -0.095085,-0.06752 -0.260449,-0.06752 H 3.901811 v 0.869542 H 3.6234475 v -2.05741 h 0.6283849 q 0.3527775,0 0.5264102,0.14745 0.1736327,0.14745 0.1736327,0.445106 0,0.194304 -0.09095,0.322461 -0.089572,0.128158 -0.261827,0.177767 z M 3.901811,62.612698 v 0.730359 h 0.3500214 q 0.2011934,0 0.3031682,-0.09233 0.1033528,-0.09371 0.1033528,-0.27423 0,-0.180523 -0.1033528,-0.271473 -0.1019748,-0.09233 -0.3031682,-0.09233 z m 2.6554776,0.330728 v 0.239779 q -0.1074869,-0.05512 -0.223242,-0.08268 -0.1157551,-0.02756 -0.2397785,-0.02756 -0.188791,0 -0.2838756,0.05788 -0.093706,0.05788 -0.093706,0.173632 0,0.0882 0.067524,0.139182 0.067524,0.04961 0.2714733,0.09508 l 0.086816,0.01929 q 0.2700953,0.05788 0.3830944,0.163986 0.1143771,0.104731 0.1143771,0.293522 0,0.214974 -0.1708767,0.340376 -0.1694985,0.125401 -0.4671545,0.125401 -0.1240234,0 -0.259071,-0.02481 -0.1336696,-0.02343 -0.2824976,-0.07166 v -0.261827 q 0.1405597,0.07304 0.2769854,0.110243 0.1364257,0.03583 0.2700953,0.03583 0.1791448,0 0.2756074,-0.06063 0.096463,-0.06201 0.096463,-0.173633 0,-0.103353 -0.07028,-0.158474 -0.068902,-0.05512 -0.3045462,-0.106109 l -0.088194,-0.02067 q -0.2356454,-0.0496 -0.3403762,-0.15158 -0.1047309,-0.103353 -0.1047309,-0.282498 0,-0.217729 0.1543402,-0.336241 0.1543402,-0.118511 0.4382158,-0.118511 0.1405598,0 0.2645832,0.02067 0.1240233,0.02067 0.2287541,0.06201 z m 0.7372499,-0.483691 v 0.438216 h 0.5222761 v 0.19706 H 7.2945385 v 0.837846 q 0,0.188791 0.050987,0.242535 0.052365,0.05374 0.2108397,0.05374 h 0.260449 v 0.212218 h -0.260449 q -0.293522,0 -0.405143,-0.108865 -0.111621,-0.110243 -0.111621,-0.399631 v -0.837846 h -0.186035 v -0.19706 h 0.186035 v -0.438216 z"
         id="text4-9-0-2-9"
         style="font-size:2.82222px;stroke-width:0.264583"
         inkscape:label="reset label"
         aria-label="Rst" />
      <path
         d="m 3.2466583,49.197897 v 0.293522 Q 3.1060985,49.360505 2.9462462,49.295738 2.787772,49.23097 2.6086271,49.23097 q -0.3527775,0 -0.5401905,0.216352 -0.1874131,0.214974 -0.1874131,0.622873 0,0.406521 0.1874131,0.622872 0.187413,0.214974 0.5401905,0.214974 0.1791449,0 0.3376191,-0.06477 0.1598523,-0.06477 0.3004121,-0.195681 v 0.290766 q -0.1460719,0.09922 -0.3100583,0.148828 -0.1626084,0.04961 -0.3445093,0.04961 -0.4671546,0 -0.7358719,-0.285253 -0.2687172,-0.286632 -0.2687172,-0.781347 0,-0.496094 0.2687172,-0.781347 0.2687173,-0.286632 0.7358719,-0.286632 0.184657,0 0.3472653,0.04961 0.1639865,0.04823 0.3073023,0.146072 z m 1.0169914,0.5333 q -0.2039495,0 -0.3224607,0.159853 -0.1185112,0.158474 -0.1185112,0.43546 0,0.276985 0.1171332,0.436837 0.1185112,0.158475 0.3238387,0.158475 0.2025715,0 0.3210827,-0.159853 0.1185112,-0.159852 0.1185112,-0.435459 0,-0.27423 -0.1185112,-0.434082 -0.1185112,-0.161231 -0.3210827,-0.161231 z m 0,-0.214973 q 0.3307289,0 0.51952,0.214973 0.1887911,0.214974 0.1887911,0.595313 0,0.37896 -0.1887911,0.595312 -0.1887911,0.214973 -0.51952,0.214973 -0.3321069,0 -0.520898,-0.214973 -0.1874131,-0.216352 -0.1874131,-0.595312 0,-0.380339 0.1874131,-0.595313 0.1887911,-0.214973 0.520898,-0.214973 z m 1.1024298,0.971516 v -0.934309 h 0.2535589 v 0.924663 q 0,0.219108 0.085438,0.32935 0.085438,0.108865 0.2563149,0.108865 0.2053275,0 0.3238387,-0.130913 0.1198892,-0.130914 0.1198892,-0.356912 v -0.875053 h 0.2535589 v 1.543401 H 6.4051195 V 50.85981 q -0.092328,0.14056 -0.2149738,0.209462 -0.1212672,0.06752 -0.2824976,0.06752 -0.2659612,0 -0.4037649,-0.165364 Q 5.3660795,50.806066 5.3660795,50.48774 Z m 0.6380312,-0.971516 z m 2.4597961,0.649055 v 0.931553 H 8.210348 v -0.923285 q 0,-0.219108 -0.085438,-0.327972 -0.085438,-0.108865 -0.2563149,-0.108865 -0.2053276,0 -0.3238388,0.130913 -0.1185112,0.130914 -0.1185112,0.356912 v 0.872297 H 7.171308 v -1.543401 h 0.2549368 v 0.239778 q 0.09095,-0.139182 0.2135958,-0.208083 0.1240233,-0.0689 0.2852537,-0.0689 0.2659612,0 0.4023868,0.165364 0.1364257,0.163987 0.1364257,0.483691 z m 0.7565427,-1.050064 v 0.438216 h 0.522276 v 0.197059 h -0.522276 v 0.837847 q 0,0.188791 0.050987,0.242534 0.052365,0.05374 0.2108397,0.05374 h 0.260449 v 0.212217 h -0.260449 q -0.2935219,0 -0.4051429,-0.108865 -0.111621,-0.110243 -0.111621,-0.39963 V 49.75049 h -0.186035 v -0.197059 h 0.186035 v -0.438216 z"
         id="text4-9-0-0"
         style="font-size:2.82222px;stroke-width:0.264583"
         inkscape:label="count label"
         aria-label="Count" />
      <path
         d="M 3.6408311,20.88203 H 5.381292 v 0.234267 H 4.6509324 V 22.93944 H 4.3711908 V 21.116297 H 3.6408311 Z m 3.2811065,1.125857 V 22.93944 H 6.6683788 v -0.923285 q 0,-0.219108 -0.085438,-0.327973 -0.085438,-0.108865 -0.2563149,-0.108865 -0.2053276,0 -0.3238388,0.130914 Q 5.884276,21.841144 5.884276,22.067142 V 22.93944 H 5.6293388 v -2.144226 h 0.2549369 v 0.840603 q 0.09095,-0.139182 0.2135957,-0.208084 0.1240234,-0.0689 0.2852537,-0.0689 0.2659612,0 0.4023868,0.165365 0.1364257,0.163986 0.1364257,0.483691 z m 1.4000857,-0.374826 q -0.042719,-0.02481 -0.093707,-0.03583 -0.049609,-0.0124 -0.1102429,-0.0124 -0.2149738,0 -0.3307289,0.14056 -0.1143771,0.139182 -0.1143771,0.401009 v 0.81304 H 7.4180309 v -1.543402 h 0.2549369 v 0.239779 q 0.079926,-0.14056 0.2080836,-0.208084 0.1281574,-0.0689 0.3114364,-0.0689 0.026183,0 0.057878,0.0041 0.031695,0.0028 0.07028,0.0096 z m 1.5241091,0.471288 v 0.124024 H 8.680313 q 0.016537,0.261827 0.1570962,0.39963 0.1419379,0.136426 0.3941187,0.136426 0.1460719,0 0.2824976,-0.03583 0.1378037,-0.03583 0.2728513,-0.107487 v 0.239779 q -0.1364256,0.05788 -0.2797415,0.08819 -0.1433159,0.03032 -0.2907658,0.03032 -0.369314,0 -0.5856658,-0.214974 -0.2149738,-0.214974 -0.2149738,-0.581532 0,-0.37896 0.2039495,-0.600824 0.2053275,-0.223242 0.5525929,-0.223242 0.3114364,0 0.4919592,0.201194 0.1819009,0.199815 0.1819009,0.544324 z m -0.2535588,-0.07441 q -0.00276,-0.208083 -0.1171332,-0.332107 -0.112999,-0.124023 -0.3004121,-0.124023 -0.2122177,0 -0.3403751,0.119889 -0.1267795,0.119889 -0.146072,0.337619 z m 1.6536444,-0.588422 v 0.239779 q -0.107487,-0.05512 -0.223242,-0.08268 -0.115755,-0.02756 -0.239778,-0.02756 -0.188792,0 -0.283876,0.05788 -0.09371,0.05788 -0.09371,0.173633 0,0.0882 0.06752,0.139182 0.06752,0.04961 0.271474,0.09508 l 0.08682,0.01929 q 0.270095,0.05788 0.383094,0.163986 0.114377,0.104731 0.114377,0.293522 0,0.214974 -0.170876,0.340375 -0.169499,0.125402 -0.467155,0.125402 -0.124023,0 -0.259071,-0.02481 -0.133669,-0.02343 -0.282498,-0.07166 v -0.261827 q 0.14056,0.07304 0.276986,0.110243 0.136426,0.03583 0.270095,0.03583 0.179145,0 0.275608,-0.06063 0.09646,-0.06201 0.09646,-0.173632 0,-0.103353 -0.07028,-0.158474 -0.0689,-0.05512 -0.304546,-0.106109 l -0.08819,-0.02067 q -0.235645,-0.04961 -0.340375,-0.151584 -0.104731,-0.103353 -0.104731,-0.282498 0,-0.217729 0.15434,-0.336241 0.15434,-0.118511 0.438216,-0.118511 0.14056,0 0.264583,0.02067 0.124023,0.02067 0.228754,0.06201 z m 1.7694,0.566374 v 0.931553 h -0.253559 v -0.923285 q 0,-0.219108 -0.08544,-0.327973 -0.08544,-0.108865 -0.256315,-0.108865 -0.205327,0 -0.323839,0.130914 -0.118511,0.130913 -0.118511,0.356911 v 0.872298 h -0.254937 v -2.144226 h 0.254937 v 0.840603 q 0.09095,-0.139182 0.213596,-0.208084 0.124023,-0.0689 0.285254,-0.0689 0.265961,0 0.402386,0.165365 0.136426,0.163986 0.136426,0.483691 z m 1.103807,-0.434082 q -0.203949,0 -0.322461,0.159852 -0.118511,0.158475 -0.118511,0.43546 0,0.276985 0.117133,0.436838 0.118512,0.158474 0.323839,0.158474 0.202572,0 0.321083,-0.159852 0.118511,-0.159853 0.118511,-0.43546 0,-0.274229 -0.118511,-0.434082 -0.118511,-0.16123 -0.321083,-0.16123 z m 0,-0.214974 q 0.330729,0 0.51952,0.214974 0.188791,0.214974 0.188791,0.595312 0,0.37896 -0.188791,0.595312 -0.188791,0.214974 -0.51952,0.214974 -0.332107,0 -0.520898,-0.214974 -0.187413,-0.216352 -0.187413,-0.595312 0,-0.380338 0.187413,-0.595312 0.188791,-0.214974 0.520898,-0.214974 z m 1.128613,-0.563617 h 0.253559 v 2.144226 h -0.253559 z m 1.799717,0.83509 v -0.83509 h 0.253558 v 2.144226 h -0.253558 v -0.23151 q -0.07993,0.137803 -0.202572,0.205327 -0.121267,0.06615 -0.292144,0.06615 -0.279741,0 -0.45613,-0.223242 -0.175011,-0.223242 -0.175011,-0.587044 0,-0.363802 0.175011,-0.587044 0.176389,-0.223242 0.45613,-0.223242 0.170877,0 0.292144,0.06752 0.122645,0.06615 0.202572,0.203949 z m -0.86403,0.538813 q 0,0.279742 0.114377,0.439594 0.115755,0.158474 0.316949,0.158474 0.201193,0 0.316948,-0.158474 0.115756,-0.159852 0.115756,-0.439594 0,-0.279742 -0.115756,-0.438216 -0.115755,-0.159852 -0.316948,-0.159852 -0.201194,0 -0.316949,0.159852 -0.114377,0.158474 -0.114377,0.438216 z"
         id="text4-9-3"
         style="font-size:2.82222px;stroke-width:0.264583"
         inkscape:label="threshold label"
         aria-label="Threshold" />
      <g
         id="text1-9-5"
         style="font-size:4.93889px;stroke-width:0.264583"
         inkscape:label="Title"
         aria-label="Repeat&#10;Buddy">
        <path
           d="M 3.9087288,9.5852898 Q 4.0654806,9.6383443 4.2125862,9.8119771 4.3621034,9.98561 4.5116206,10.289467 l 0.4943713,0.98392 H 4.4826818 L 4.0220724,10.349757 Q 3.8436164,9.9880215 3.6748067,9.8698547 3.5084086,9.7516879 3.2190205,9.7516879 H 2.6884757 V 11.273387 H 2.201339 V 7.6729169 h 1.0996748 q 0.6173612,0 0.9212187,0.2580377 0.3038575,0.2580377 0.3038575,0.7789362 0,0.340031 -0.1591634,0.5643068 Q 4.2101747,9.4984734 3.9087288,9.5852898 Z M 2.6884757,8.0732371 v 1.2781307 h 0.6125381 q 0.3520888,0 0.5305448,-0.1615751 0.1808675,-0.1639865 0.1808675,-0.4799019 0,-0.3159153 -0.1808675,-0.4750787 -0.178456,-0.161575 -0.5305448,-0.161575 z m 5.0136485,1.73874 v 0.2170409 h -2.040186 q 0.028939,0.458198 0.2749187,0.699355 0.2483915,0.238745 0.6897083,0.238745 0.2556261,0 0.4943713,-0.0627 0.2411567,-0.0627 0.4774903,-0.188102 v 0.419613 q -0.2387451,0.101285 -0.4895481,0.15434 -0.250803,0.05305 -0.5088407,0.05305 -0.6463001,0 -1.0249162,-0.376204 -0.3762045,-0.376205 -0.3762045,-1.0176815 0,-0.6631811 0.356912,-1.0514434 0.3593235,-0.3906739 0.9670385,-0.3906739 0.5450142,0 0.8609296,0.3520888 0.3183268,0.3496773 0.3183268,0.9525691 z M 7.2583958,9.6817525 Q 7.2535727,9.3176058 7.0534126,9.1005648 6.8556641,8.8835237 6.5276909,8.8835237 q -0.3713813,0 -0.5956571,0.2098063 -0.2218642,0.2098064 -0.2556261,0.5908341 z m 1.6012808,1.1864915 v 1.432471 H 8.4135367 V 8.5724315 H 8.8596766 V 8.982398 Q 8.9995475,8.7412412 9.2117655,8.625486 9.426395,8.5073192 9.7230177,8.5073192 q 0.4919593,0 0.7982293,0.3906739 0.30868,0.3906739 0.30868,1.0273277 0,0.6366542 -0.30868,1.0273272 -0.30627,0.390674 -0.7982293,0.390674 -0.2966227,0 -0.5112522,-0.115755 Q 8.9995475,11.1094 8.8596766,10.868244 Z M 10.369318,9.9253208 q 0,-0.4895482 -0.202572,-0.7668784 -0.2001599,-0.2797418 -0.5522488,-0.2797418 -0.3520888,0 -0.5546605,0.2797418 -0.2001601,0.2773302 -0.2001601,0.7668784 0,0.4895482 0.2001601,0.7692902 0.2025717,0.27733 0.5546605,0.27733 0.3520889,0 0.5522488,-0.27733 0.202572,-0.279742 0.202572,-0.7692902 z m 3.506419,-0.1133437 v 0.2170409 h -2.040186 q 0.02894,0.458198 0.274918,0.699355 0.248392,0.238745 0.689709,0.238745 0.255626,0 0.494371,-0.0627 0.241157,-0.0627 0.47749,-0.188102 v 0.419613 q -0.238745,0.101285 -0.489548,0.15434 -0.250803,0.05305 -0.508841,0.05305 -0.6463,0 -1.024916,-0.376204 -0.376204,-0.376205 -0.376204,-1.0176815 0,-0.6631811 0.356912,-1.0514434 0.359323,-0.3906739 0.967038,-0.3906739 0.545014,0 0.86093,0.3520888 0.318327,0.3496773 0.318327,0.9525691 z M 13.432008,9.6817525 q -0.0048,-0.3641467 -0.204983,-0.5811877 -0.197749,-0.2170411 -0.525722,-0.2170411 -0.371381,0 -0.595657,0.2098063 -0.221864,0.2098064 -0.255626,0.5908341 z m 2.39951,0.233922 q -0.53778,0 -0.745174,0.1229895 -0.207395,0.12299 -0.207395,0.419613 0,0.236334 0.15434,0.376205 0.156752,0.137459 0.424436,0.137459 0.36897,0 0.590834,-0.260449 0.224276,-0.262861 0.224276,-0.696943 V 9.915674 Z m 0.885045,-0.1832791 v 1.5409916 h -0.443728 v -0.409966 q -0.151929,0.245979 -0.378616,0.364146 -0.226688,0.115755 -0.554661,0.115755 -0.414789,0 -0.660769,-0.23151 -0.243568,-0.233922 -0.243568,-0.624596 0,-0.455786 0.303857,-0.6872967 0.306269,-0.2315105 0.911572,-0.2315105 h 0.622185 v -0.043408 q 0,-0.306269 -0.202572,-0.4726672 -0.20016,-0.1688097 -0.564307,-0.1688097 -0.23151,0 -0.450963,0.055466 -0.219452,0.055466 -0.422024,0.1663982 V 8.6954214 q 0.243568,-0.094051 0.472667,-0.1398709 0.229099,-0.048231 0.44614,-0.048231 0.586011,0 0.875399,0.3038575 0.289388,0.3038575 0.289388,0.9212184 z m 1.352889,-1.9268423 v 0.7668784 h 0.913984 v 0.3448541 h -0.913984 v 1.4662334 q 0,0.330384 0.08923,0.424435 0.09164,0.09405 0.36897,0.09405 h 0.455786 v 0.371381 H 18.52765 q -0.513664,0 -0.709001,-0.190514 -0.195337,-0.192925 -0.195337,-0.699354 V 8.9172856 H 17.297751 V 8.5724315 h 0.325561 V 7.8055531 Z"
           id="path3" />
        <path
           d="m 2.6884757,15.727552 v 1.319127 h 0.7813478 q 0.3930855,0 0.5811877,-0.161575 0.1905138,-0.163986 0.1905138,-0.499194 0,-0.33762 -0.1905138,-0.496783 Q 3.862909,15.727552 3.4698235,15.727552 Z m 0,-1.480702 v 1.085205 h 0.7210586 q 0.356912,0 0.5305448,-0.132636 0.1760444,-0.135048 0.1760444,-0.409967 0,-0.272507 -0.1760444,-0.407555 Q 3.7664463,14.24685 3.4095343,14.24685 Z M 2.201339,13.846529 h 1.2443688 q 0.5570721,0 0.858518,0.231511 0.3014459,0.23151 0.3014459,0.658358 0,0.330384 -0.1543403,0.525721 -0.1543403,0.195337 -0.4533747,0.243569 0.3593236,0.07717 0.5570721,0.32315 0.2001601,0.243568 0.2001601,0.610126 0,0.482314 -0.3279732,0.745175 -0.3279731,0.26286 -0.9332765,0.26286 H 2.201339 Z m 3.32314,2.534558 v -1.635043 h 0.4437284 v 1.618162 q 0,0.383439 0.1495172,0.576364 0.1495171,0.190514 0.4485515,0.190514 0.3593235,0 0.5667183,-0.229099 0.2098064,-0.229099 0.2098064,-0.624596 v -1.531345 h 0.4437284 v 2.700955 H 7.3428008 V 17.03221 q -0.161575,0.24598 -0.3762045,0.366558 -0.212218,0.118167 -0.4943713,0.118167 -0.4654325,0 -0.7065893,-0.289388 Q 5.524479,16.938159 5.524479,16.381087 Z m 1.1165557,-1.700155 z m 3.8368043,0.475078 v -1.461409 h 0.443728 v 3.752398 h -0.443728 v -0.405143 q -0.139871,0.241157 -0.354501,0.359324 -0.2122177,0.115755 -0.5112521,0.115755 -0.4895481,0 -0.7982288,-0.390674 -0.306269,-0.390674 -0.306269,-1.027328 0,-0.636654 0.306269,-1.027327 0.3086807,-0.390674 0.7982288,-0.390674 0.2990344,0 0.5112521,0.118166 0.21463,0.115756 0.354501,0.356912 z m -1.5120531,0.942923 q 0,0.489548 0.2001601,0.76929 0.2025716,0.277331 0.5546605,0.277331 0.3520885,0 0.5546605,-0.277331 0.202572,-0.279742 0.202572,-0.76929 0,-0.489548 -0.202572,-0.766878 -0.202572,-0.279742 -0.5546605,-0.279742 -0.3520889,0 -0.5546605,0.279742 -0.2001601,0.27733 -0.2001601,0.766878 z M 13.612876,15.15601 v -1.461409 h 0.443728 v 3.752398 h -0.443728 v -0.405143 q -0.139871,0.241157 -0.3545,0.359324 -0.212218,0.115755 -0.511253,0.115755 -0.489548,0 -0.798228,-0.390674 -0.30627,-0.390674 -0.30627,-1.027328 0,-0.636654 0.30627,-1.027327 0.30868,-0.390674 0.798228,-0.390674 0.299035,0 0.511253,0.118166 0.214629,0.115756 0.3545,0.356912 z m -1.512053,0.942923 q 0,0.489548 0.20016,0.76929 0.202572,0.277331 0.554661,0.277331 0.352089,0 0.55466,-0.277331 0.202572,-0.279742 0.202572,-0.76929 0,-0.489548 -0.202572,-0.766878 -0.202571,-0.279742 -0.55466,-0.279742 -0.352089,0 -0.554661,0.279742 -0.20016,0.27733 -0.20016,0.766878 z m 3.993556,1.598869 q -0.188103,0.482314 -0.366559,0.62942 -0.178456,0.147105 -0.47749,0.147105 h -0.3545 v -0.371381 h 0.260449 q 0.183279,0 0.284565,-0.08682 0.101286,-0.08682 0.224276,-0.409966 l 0.07958,-0.202572 -1.09244,-2.657547 h 0.470256 l 0.844049,2.112533 0.844048,-2.112533 h 0.470256 z"
           id="path4" />
      </g>
    </g>
  </g>
  <g
     inkscape:groupmode="layer"
     id="layer2"
     inkscape:label="components"
     style="display:none">
    <circle
       style="display:inline;fill:#ff00ff;fill-opacity:1;stroke-width:0.0957139"
       id="path2787-83-3-2-9-3-6-1-6"
       cx="12.209918"
       cy="24.993435"
       r="1.4083825"
       inkscape:label="threshold_led_7" />
    <circle
       style="display:inline;fill:#ff00ff;fill-opacity:1;stroke-width:0.0957139"
       id="path2787-83-3-2-9-3-6-1-3"
       cx="12.209918"
       cy="28.640114"
       r="1.4083825"
       inkscape:label="threshold_led_6" />
    <circle
       style="display:inline;fill:#ff00ff;fill-opacity:1;stroke-width:0.0957139"
       id="path2787-83-3-2-9-3-6-1-9"
       cx="12.209918"
       cy="32.286785"
       r="1.4083825"
       inkscape:label="threshold_led_5" />
    <circle
       style="display:inline;fill:#ff00ff;fill-opacity:1;stroke-width:0.0957139"
       id="path2787-83-3-2-9-3-6-1-0"
       cx="12.209918"
       cy="35.933464"
       r="1.4083825"
       inkscape:label="threshold_led_4" />
    <circle
       style="display:inline;fill:#ff00ff;fill-opacity:1;stroke-width:0.0957139"
       id="path2787-83-3-2-9-3-6-1-7"
       cx="12.209918"
       cy="39.580143"
       r="1.4083825"
       inkscape:label="threshold_led_3" />
    <circle
       style="display:inline;fill:#ff00ff;fill-opacity:1;stroke-width:0.0957139"
       id="path2787-83-3-2-9-3-6-1-2"
       cx="12.209918"
       cy="43.226818"
       r="1.4083825"
       inkscape:label="threshold_led_2" />
    <circle
       style="display:inline;fill:#ff00ff;fill-opacity:1;stroke-width:0.0957139"
       id="path2787-83-3-2-9-3-6-1"
       cx="12.209918"
       cy="46.873497"
       r="1.4083825"
       inkscape:label="threshold_led_1" />
    <circle
       style="display:inline;fill:#ff00ff;fill-opacity:1;stroke-width:0.0957139"
       id="path2787-83-3-2-9-3-6-9"
       cx="17.530418"
       cy="24.993435"
       r="1.4083825"
       inkscape:label="counter_led_7" />
    <circle
       style="display:inline;fill:#ff00ff;fill-opacity:1;stroke-width:0.0957139"
       id="path2787-83-3-2-9-3-6-2"
       cx="17.530418"
       cy="28.640114"
       r="1.4083825"
       inkscape:label="counter_led_6" />
    <circle
       style="display:inline;fill:#ff00ff;fill-opacity:1;stroke-width:0.0957139"
       id="path2787-83-3-2-9-3-6-56"
       cx="17.530418"
       cy="32.286785"
       r="1.4083825"
       inkscape:label="counter_led_5" />
    <circle
       style="display:inline;fill:#ff00ff;fill-opacity:1;stroke-width:0.0957139"
       id="path2787-83-3-2-9-3-6-3"
       cx="17.530418"
       cy="35.933464"
       r="1.4083825"
       inkscape:label="counter_led_4" />
    <circle
       style="display:inline;fill:#ff00ff;fill-opacity:1;stroke-width:0.0957139"
       id="path2787-83-3-2-9-3-6-5"
       cx="17.530418"
       cy="39.580143"
       r="1.4083825"
       inkscape:label="counter_led_3" />
    <circle
       style="display:inline;fill:#ff00ff;fill-opacity:1;stroke-width:0.0957139"
       id="path2787-83-3-2-9-3-6-7"
       cx="17.530418"
       cy="43.226818"
       r="1.4083825"
       inkscape:label="counter_led_2" />
    <circle
       style="display:inline;fill:#ff00ff;fill-opacity:1;stroke-width:0.0957139"
       id="path2787-83-3-2-9-3-6"
       cx="17.530418"
       cy="46.873497"
       r="1.4083825"
       inkscape:label="counter_led_1" />
    <circle
       style="display:inline;fill:#ff0000;stroke-width:0.264583"
       id="path2787-83-3-2-9"
       cx="10.16"
       cy="99.209328"
       r="3.8932071"
       inkscape:label="division_attenuator_parameter" />
    <circle
       style="display:inline;fill:#00ff00;stroke-width:0.264583"
       id="path2787-70-0-3-6"
       cx="5.433526"
       cy="113.32339"
       r="3.8932071"
       inkscape:label="division_cv_input" />
    <circle
       style="display:inline;fill:#0000ff;stroke-width:0.264583"
       id="path2787-83-7-1-3-7-5-2"
       cx="14.886474"
       cy="113.21447"
       r="3.8932071"
       inkscape:label="divided_trigger_output" />
    <circle
       style="display:inline;fill:#ff0000;stroke-width:0.264583"
       id="path2787-83-3-2-9-3"
       cx="10.16"
       cy="71.199036"
       r="3.8932071"
       inkscape:label="counter_cv_attenuator_parameter" />
    <circle
       style="display:inline;fill:#0000ff;stroke-width:0.264583"
       id="path2787-83-7-1-3-7-5"
       cx="14.886474"
       cy="85.204178"
       r="3.8932071"
       inkscape:label="counter_cv_output" />
    <circle
       style="display:inline;fill:#00ff00;stroke-width:0.264583"
       id="path2787-70-0"
       cx="5.433526"
       cy="56.941181"
       r="3.8932071"
       inkscape:label="counter_reset_input" />
    <circle
       style="display:inline;fill:#0000ff;stroke-width:0.264583"
       id="path2787-83-7-1-3-7-5-2-6"
       cx="14.886474"
       cy="57.19389"
       r="3.8932071"
       inkscape:label="comparator_gate_output" />
    <circle
       style="display:inline;fill:#00ff00;stroke-width:0.264583"
       id="path2787-70-0-2"
       cx="5.433526"
       cy="42.936039"
       r="3.8932071"
       inkscape:label="increase_trigger_input" />
    <circle
       style="display:inline;fill:#00ff00;stroke-width:0.264583"
       id="path2787-70-0-3"
       cx="5.433526"
       cy="28.930893"
       r="3.8932071"
       inkscape:label="threshold_cv_input" />
  </g>
</svg>
