<?xml version="1.0" encoding="UTF-8" standalone="no"?>
<!-- Created with Inkscape (http://www.inkscape.org/) -->

<svg
   width="40.639999mm"
   height="128.5mm"
   viewBox="0 0 40.64 128.5"
   version="1.1"
   id="svg5"
   inkscape:version="1.3.2 (091e20ef0f, 2023-11-25)"
   sodipodi:docname="ShiftComputer.svg"
   xmlns:inkscape="http://www.inkscape.org/namespaces/inkscape"
   xmlns:sodipodi="http://sodipodi.sourceforge.net/DTD/sodipodi-0.dtd"
   xmlns="http://www.w3.org/2000/svg"
   xmlns:svg="http://www.w3.org/2000/svg">
  <sodipodi:namedview
     id="namedview7"
     pagecolor="#ffffff"
     bordercolor="#000000"
     borderopacity="0.25"
     inkscape:showpageshadow="2"
     inkscape:pageopacity="0.0"
     inkscape:pagecheckerboard="0"
     inkscape:deskcolor="#d1d1d1"
     inkscape:document-units="mm"
     showgrid="false"
     inkscape:zoom="1.2914214"
     inkscape:cx="49.944968"
     inkscape:cy="233.46369"
     inkscape:window-width="1920"
     inkscape:window-height="1064"
     inkscape:window-x="1680"
     inkscape:window-y="16"
     inkscape:window-maximized="1"
     inkscape:current-layer="layer1" />
  <defs
     id="defs2" />
  <g
     inkscape:label="Layer 1"
     inkscape:groupmode="layer"
     id="layer1"
     style="display:inline">
    <rect
       style="display:inline;fill:#808080;stroke-width:0.131053"
       id="rect251"
       width="40.639999"
       height="128.5"
       x="8.8817842e-15"
       y="5.3290705e-15"
       inkscape:label="background" />
    <rect
       style="display:inline;fill:#333333;stroke-width:0.442429"
       id="rect1809-8-7"
       width="19.959539"
       height="92.390747"
       x="20.099085"
       y="33.185398"
       inkscape:label="counter outputs background" />
    <text
       xml:space="preserve"
       style="display:inline;font-size:2.82222px;line-height:1.1;fill:#000000;stroke-width:0.264583"
       x="2.9829152"
       y="13.664937"
       id="text1-9-0"
       inkscape:label="input_labels"><tspan
         sodipodi:role="line"
         style="font-size:2.82222px;line-height:1.1;stroke-width:0.264583"
         x="2.9829152"
         y="13.664937"
         id="tspan5-6">             ┌Select┐</tspan><tspan
         sodipodi:role="line"
         style="font-size:2.82222px;line-height:1.1;stroke-width:0.264583"
         x="2.9829152"
         y="16.769379"
         id="tspan1">EXT     SRC     DST    CLK</tspan></text>
    <text
       xml:space="preserve"
       style="font-size:4.93889px;display:inline;fill:#000000;stroke-width:0.264583"
       x="2.0958009"
       y="9.6564627"
       id="text1-9"
       inkscape:label="Title"><tspan
         sodipodi:role="line"
         style="font-size:4.93889px;stroke-width:0.264583"
         x="2.0958009"
         y="9.6564627"
         id="tspan5">Shift Computer</tspan></text>
    <g
       id="text1-9-0-5"
       style="font-size:2.82222px;line-height:1.1;stroke-width:0.264583"
       inkscape:label="input_labels"
       aria-label="             ┌Select┐&#10;EXT     SRC     DST    CLK">
      <path
         d="m 15.383872,14.370492 v -1.794204 h 0.988052 v 0.237022 h -0.767566 v 1.557182 z m 2.47082,-2.695441 v 0.271474 q -0.158474,-0.07579 -0.299034,-0.112999 -0.14056,-0.03721 -0.271473,-0.03721 -0.227376,0 -0.3514,0.08819 -0.122645,0.08819 -0.122645,0.250803 0,0.136425 0.0813,0.206705 0.08268,0.0689 0.311437,0.111621 l 0.16812,0.03445 q 0.311437,0.05926 0.458887,0.209462 0.148828,0.148828 0.148828,0.399631 0,0.299034 -0.201194,0.453374 -0.199815,0.15434 -0.587044,0.15434 -0.146072,0 -0.311436,-0.03307 -0.163987,-0.03307 -0.340375,-0.09784 v -0.286632 q 0.169498,0.09508 0.332107,0.143316 0.162608,0.04823 0.319704,0.04823 0.238401,0 0.367936,-0.09371 0.129536,-0.09371 0.129536,-0.267339 0,-0.151584 -0.09371,-0.237022 -0.09233,-0.08544 -0.304546,-0.128158 l -0.169499,-0.03307 q -0.311436,-0.06201 -0.450618,-0.194304 -0.139182,-0.132291 -0.139182,-0.367936 0,-0.272851 0.191548,-0.429947 0.192925,-0.157096 0.530544,-0.157096 0.144694,0 0.2949,0.02618 0.150206,0.02618 0.307302,0.07855 z m 1.867241,1.154796 v 0.124023 h -1.16582 q 0.01654,0.261827 0.157097,0.399631 0.141937,0.136425 0.394118,0.136425 0.146072,0 0.282498,-0.03583 0.137804,-0.03583 0.272851,-0.107487 v 0.239779 q -0.136425,0.05788 -0.279741,0.08819 -0.143316,0.03032 -0.290766,0.03032 -0.369314,0 -0.585666,-0.214974 -0.214974,-0.214973 -0.214974,-0.581531 0,-0.378961 0.20395,-0.600825 0.205327,-0.223242 0.552593,-0.223242 0.311436,0 0.491959,0.201194 0.181901,0.199815 0.181901,0.544325 z m -0.253559,-0.07441 q -0.0028,-0.208083 -0.117133,-0.332106 -0.112999,-0.124024 -0.300412,-0.124024 -0.212218,0 -0.340375,0.119889 -0.12678,0.11989 -0.146072,0.33762 z m 0.669725,-1.234721 h 0.253559 v 2.144226 h -0.253559 z m 2.104263,1.309136 v 0.124023 h -1.165819 q 0.01654,0.261827 0.157096,0.399631 0.141938,0.136425 0.394119,0.136425 0.146072,0 0.282497,-0.03583 0.137804,-0.03583 0.272852,-0.107487 v 0.239779 q -0.136426,0.05788 -0.279742,0.08819 -0.143316,0.03032 -0.290766,0.03032 -0.369314,0 -0.585665,-0.214974 -0.214974,-0.214973 -0.214974,-0.581531 0,-0.378961 0.203949,-0.600825 0.205328,-0.223242 0.552593,-0.223242 0.311437,0 0.49196,0.201194 0.1819,0.199815 0.1819,0.544325 z m -0.253558,-0.07441 q -0.0028,-0.208083 -0.117134,-0.332106 -0.112999,-0.124024 -0.300412,-0.124024 -0.212217,0 -0.340375,0.119889 -0.126779,0.11989 -0.146072,0.33762 z m 1.780423,-0.574641 v 0.237022 q -0.107487,-0.05926 -0.216352,-0.08819 -0.107487,-0.03032 -0.21773,-0.03032 -0.246668,0 -0.383094,0.157096 -0.136426,0.155719 -0.136426,0.438216 0,0.282498 0.136426,0.439594 0.136426,0.155718 0.383094,0.155718 0.110243,0 0.21773,-0.02894 0.108865,-0.03032 0.216352,-0.08957 v 0.234266 q -0.106109,0.04961 -0.220486,0.07441 -0.112999,0.02481 -0.241156,0.02481 -0.348644,0 -0.553971,-0.219108 -0.205328,-0.219108 -0.205328,-0.591178 0,-0.377582 0.206706,-0.593934 0.208083,-0.216352 0.569129,-0.216352 0.117133,0 0.228754,0.02481 0.111621,0.02343 0.216352,0.07166 z m 0.691775,-0.497471 v 0.438215 h 0.522276 v 0.19706 h -0.522276 v 0.837846 q 0,0.188791 0.05099,0.242535 0.05237,0.05374 0.21084,0.05374 h 0.260449 v 0.212218 h -0.260449 q -0.293522,0 -0.405143,-0.108865 -0.111621,-0.110243 -0.111621,-0.399631 V 12.318595 H 24.02003 v -0.19706 h 0.186035 V 11.68332 Z m 1.328427,2.687172 V 12.81331 h -0.766188 v -0.237022 h 0.986674 v 1.794204 z"
         id="path2" />
      <path
         d="m 3.2599006,14.71197 h 1.3008671 v 0.234266 H 3.5382641 v 0.609092 h 0.9797845 v 0.234267 H 3.5382641 v 0.745518 h 1.0473083 v 0.234266 H 3.2599006 Z m 1.6839615,0 h 0.299034 l 0.5112518,0.76481 0.5140079,-0.76481 h 0.299034 L 5.905732,15.700022 6.611287,16.769379 H 6.312253 L 5.7334774,15.894326 5.1505676,16.769379 H 4.8501555 l 0.7344938,-1.098295 z m 1.6977417,0 h 1.740461 v 0.234266 H 7.6517051 v 1.823143 H 7.3719635 V 14.946236 H 6.6416038 Z m 7.7280322,0.06752 v 0.271473 q -0.158474,-0.07579 -0.299034,-0.112999 -0.14056,-0.03721 -0.271473,-0.03721 -0.227376,0 -0.3514,0.08819 -0.122645,0.08819 -0.122645,0.250803 0,0.136426 0.0813,0.206706 0.08268,0.0689 0.311437,0.111621 l 0.16812,0.03445 q 0.311437,0.05926 0.458887,0.209462 0.148828,0.148828 0.148828,0.399631 0,0.299034 -0.201194,0.453374 -0.199815,0.15434 -0.587044,0.15434 -0.146072,0 -0.311436,-0.03307 -0.163986,-0.03307 -0.340375,-0.09784 v -0.286632 q 0.169498,0.09509 0.332107,0.143316 0.162608,0.04823 0.319704,0.04823 0.238401,0 0.367936,-0.09371 0.129536,-0.09371 0.129536,-0.26734 0,-0.151584 -0.09371,-0.237022 -0.09233,-0.08544 -0.304546,-0.128157 l -0.169499,-0.03307 q -0.311436,-0.06201 -0.450618,-0.194304 -0.139181,-0.132291 -0.139181,-0.367935 0,-0.272852 0.191547,-0.429948 0.192925,-0.157096 0.530544,-0.157096 0.144694,0 0.2949,0.02618 0.150206,0.02618 0.307302,0.07855 z m 1.533756,1.025259 q 0.08957,0.03032 0.173633,0.129536 0.08544,0.09922 0.170876,0.272851 l 0.282498,0.562239 H 16.231365 L 15.96816,16.241591 q -0.101975,-0.206706 -0.198438,-0.274229 -0.09508,-0.06752 -0.260449,-0.06752 h -0.303168 v 0.869541 H 14.927742 V 14.71197 h 0.628385 q 0.352777,0 0.52641,0.14745 0.173632,0.14745 0.173632,0.445106 0,0.194303 -0.09095,0.32246 -0.08957,0.128158 -0.261827,0.177767 z m -0.697287,-0.864029 v 0.73036 h 0.350022 q 0.201193,0 0.303168,-0.09233 0.103352,-0.09371 0.103352,-0.274229 0,-0.180523 -0.103352,-0.271474 -0.101975,-0.09233 -0.303168,-0.09233 z m 3.082669,-0.07028 v 0.293522 q -0.14056,-0.130914 -0.300412,-0.195681 -0.158474,-0.06477 -0.337619,-0.06477 -0.352778,0 -0.540191,0.216352 -0.187413,0.214974 -0.187413,0.622873 0,0.40652 0.187413,0.622872 0.187413,0.214974 0.540191,0.214974 0.179145,0 0.337619,-0.06477 0.159852,-0.06477 0.300412,-0.195681 v 0.290766 q -0.146072,0.09922 -0.310058,0.148828 -0.162609,0.04961 -0.34451,0.04961 -0.467154,0 -0.735871,-0.285253 -0.268718,-0.286632 -0.268718,-0.781347 0,-0.496094 0.268718,-0.781348 0.268717,-0.286631 0.735871,-0.286631 0.184657,0 0.347266,0.04961 0.163986,0.04823 0.307302,0.146072 z m 5.193822,0.07028 v 1.599901 h 0.336241 q 0.425814,0 0.622873,-0.192925 0.198437,-0.192925 0.198437,-0.609093 0,-0.413411 -0.198437,-0.604958 -0.197059,-0.192925 -0.622873,-0.192925 z M 23.204233,14.71197 h 0.571885 q 0.598068,0 0.87781,0.249424 0.279741,0.248047 0.279741,0.777213 0,0.531923 -0.281119,0.781347 -0.28112,0.249425 -0.876432,0.249425 h -0.571885 z m 3.406507,0.06752 v 0.271473 q -0.158474,-0.07579 -0.299034,-0.112999 -0.140559,-0.03721 -0.271473,-0.03721 -0.227376,0 -0.351399,0.08819 -0.122646,0.08819 -0.122646,0.250803 0,0.136426 0.0813,0.206706 0.08268,0.0689 0.311437,0.111621 l 0.16812,0.03445 q 0.311437,0.05926 0.458887,0.209462 0.148828,0.148828 0.148828,0.399631 0,0.299034 -0.201194,0.453374 -0.199815,0.15434 -0.587044,0.15434 -0.146071,0 -0.311436,-0.03307 -0.163986,-0.03307 -0.340375,-0.09784 v -0.286632 q 0.169498,0.09509 0.332107,0.143316 0.162608,0.04823 0.319704,0.04823 0.238401,0 0.367936,-0.09371 0.129536,-0.09371 0.129536,-0.26734 0,-0.151584 -0.09371,-0.237022 -0.09233,-0.08544 -0.304546,-0.128157 l -0.169498,-0.03307 q -0.311437,-0.06201 -0.450619,-0.194304 -0.139181,-0.132291 -0.139181,-0.367935 0,-0.272852 0.191547,-0.429948 0.192925,-0.157096 0.530544,-0.157096 0.144694,0 0.2949,0.02618 0.150206,0.02618 0.307302,0.07855 z m 0.272852,-0.06752 h 1.740461 v 0.234266 h -0.73036 v 1.823143 h -0.279741 v -1.823143 h -0.73036 z m 7.138231,0.158474 v 0.293522 q -0.140559,-0.130914 -0.300412,-0.195681 -0.158474,-0.06477 -0.337619,-0.06477 -0.352777,0 -0.54019,0.216352 -0.187413,0.214974 -0.187413,0.622873 0,0.40652 0.187413,0.622872 0.187413,0.214974 0.54019,0.214974 0.179145,0 0.337619,-0.06477 0.159853,-0.06477 0.300412,-0.195681 v 0.290766 q -0.146072,0.09922 -0.310058,0.148828 -0.162608,0.04961 -0.344509,0.04961 -0.467155,0 -0.735872,-0.285253 -0.268717,-0.286632 -0.268717,-0.781347 0,-0.496094 0.268717,-0.781348 0.268717,-0.286631 0.735872,-0.286631 0.184657,0 0.347265,0.04961 0.163987,0.04823 0.307302,0.146072 z m 0.429949,-0.158474 h 0.278364 v 1.823143 h 1.001833 v 0.234266 h -1.280197 z m 1.572338,0 h 0.278364 v 0.869541 l 0.923285,-0.869541 h 0.358289 l -1.021125,0.959114 1.094161,1.098295 H 37.290527 L 36.302474,15.77857 v 0.990809 H 36.02411 Z"
         id="path3" />
    </g>
    <path
       d="M 4.7388787,6.1741594 V 6.6492382 Q 4.4615485,6.5166019 4.2155686,6.4514896 3.9695887,6.3863773 3.7404898,6.3863773 q -0.3979086,0 -0.6149497,0.1543403 -0.2146295,0.1543403 -0.2146295,0.4389053 0,0.2387452 0.1422825,0.3617351 0.1446941,0.1205784 0.5450143,0.1953369 l 0.2942112,0.060289 q 0.5450142,0.1036974 0.8030519,0.3665583 0.2604493,0.2604492 0.2604493,0.6993545 0,0.5233101 -0.3520889,0.7934057 -0.3496772,0.2700955 -1.0273277,0.2700955 -0.2556261,0 -0.5450142,-0.057878 Q 2.7445125,9.6106429 2.4358319,9.4972992 v -0.501606 q 0.2966228,0.1663982 0.5811877,0.250803 0.284565,0.084405 0.5594836,0.084405 0.4172012,0 0.6438885,-0.1639866 0.2266874,-0.1639866 0.2266874,-0.4678441 0,-0.2652724 -0.1639866,-0.4147896 Q 4.1215175,8.1347637 3.7501361,8.0600051 L 3.4535133,8.0021275 Q 2.9084991,7.8936069 2.6649308,7.6620965 2.4213625,7.430586 2.4213625,7.018208 q 0,-0.4774904 0.3352078,-0.7524091 0.3376195,-0.2749186 0.9284535,-0.2749186 0.2532145,0 0.5160754,0.04582 0.2628608,0.04582 0.5377795,0.1374594 z M 7.9414403,8.0262431 V 9.6564627 H 7.4977119 V 8.0407125 q 0,-0.3834392 -0.1495172,-0.573953 -0.1495172,-0.1905138 -0.4485515,-0.1905138 -0.3593236,0 -0.5667184,0.2290989 Q 6.12553,7.7344435 6.12553,8.1299405 V 9.6564627 H 5.6793901 V 5.9040638 H 6.12553 V 7.3751199 Q 6.2846935,7.1315516 6.499323,7.0109733 6.716364,6.8903949 6.9985174,6.8903949 q 0.4654325,0 0.7041777,0.2893881 0.2387452,0.2869765 0.2387452,0.8464601 z M 8.8264855,6.9555072 H 9.2702139 V 9.6564627 H 8.8264855 Z m 0,-1.0514434 H 9.2702139 V 6.465959 H 8.8264855 Z m 2.7395405,0 V 6.2730336 H 11.14159 q -0.238745,0 -0.332796,0.096463 -0.09164,0.096463 -0.09164,0.3472657 v 0.2387452 h 0.730705 v 0.3448541 h -0.730705 v 2.3561014 h -0.44614 V 7.3003613 H 9.8465785 V 6.9555072 H 10.271014 V 6.767405 q 0,-0.4509631 0.209807,-0.6559464 0.209806,-0.2073948 0.665592,-0.2073948 z m 0.723471,0.284565 v 0.7668784 h 0.913984 v 0.3448541 h -0.913984 v 1.466233 q 0,0.3303847 0.08923,0.4244359 0.09164,0.094051 0.36897,0.094051 h 0.455786 v 0.3713814 h -0.455786 q -0.513664,0 -0.709001,-0.1905139 Q 11.843357,9.2730235 11.843357,8.7665943 V 7.3003613 H 11.517795 V 6.9555072 h 0.325562 V 6.1886288 Z m 5.782938,0.144694 v 0.5136639 q -0.24598,-0.2290989 -0.525722,-0.3424426 -0.27733,-0.1133437 -0.590834,-0.1133437 -0.617361,0 -0.945334,0.3786161 -0.327974,0.3762045 -0.327974,1.0900285 0,0.7114124 0.327974,1.0900284 0.327973,0.3762045 0.945334,0.3762045 0.313504,0 0.590834,-0.1133436 0.279742,-0.1133437 0.525722,-0.3424426 v 0.5088407 q -0.255627,0.1736329 -0.542603,0.2604493 -0.284565,0.086816 -0.602892,0.086816 -0.817521,0 -1.287777,-0.4991944 -0.470256,-0.501606 -0.470256,-1.3673587 0,-0.8681643 0.470256,-1.3673587 0.470256,-0.501606 1.287777,-0.501606 0.32315,0 0.607715,0.086816 0.286977,0.084405 0.53778,0.2556261 z m 1.779737,0.9332766 q -0.356912,0 -0.564307,0.2797418 -0.207395,0.2773303 -0.207395,0.7620553 0,0.484725 0.204983,0.7644669 0.207395,0.2773302 0.566719,0.2773302 0.3545,0 0.561895,-0.2797418 0.207395,-0.2797418 0.207395,-0.7620553 0,-0.4799019 -0.207395,-0.7596437 -0.207395,-0.2821534 -0.561895,-0.2821534 z m 0,-0.3762045 q 0.578776,0 0.909161,0.3762045 0.330384,0.3762045 0.330384,1.0417971 0,0.663181 -0.330384,1.0417971 -0.330385,0.3762045 -0.909161,0.3762045 -0.581188,0 -0.911573,-0.3762045 -0.327973,-0.3786161 -0.327973,-1.0417971 0,-0.6655926 0.327973,-1.0417971 0.330385,-0.3762045 0.911573,-0.3762045 z m 4.07796,0.5835993 q 0.166398,-0.2990344 0.397909,-0.4413168 0.23151,-0.1422825 0.545014,-0.1422825 0.422024,0 0.651123,0.2966228 0.229099,0.2942112 0.229099,0.8392254 v 1.6302196 h -0.44614 V 8.0407125 q 0,-0.3882623 -0.137459,-0.5763646 -0.137459,-0.1881022 -0.419613,-0.1881022 -0.344854,0 -0.545014,0.2290989 -0.20016,0.2290989 -0.20016,0.6245959 v 1.5265222 h -0.44614 V 8.0407125 q 0,-0.3906739 -0.137459,-0.5763646 -0.13746,-0.1881022 -0.424436,-0.1881022 -0.340031,0 -0.540191,0.2315104 -0.20016,0.2290989 -0.20016,0.6221844 v 1.5265222 h -0.44614 V 6.9555072 h 0.44614 v 0.4196127 q 0.151928,-0.2483914 0.364146,-0.3665582 0.212218,-0.1181668 0.504018,-0.1181668 0.294211,0 0.499194,0.1495172 0.207395,0.1495171 0.306269,0.4340821 z m 3.13745,1.7773252 V 10.68379 h -0.44614 V 6.9555072 h 0.44614 v 0.4099665 q 0.139871,-0.2411568 0.352089,-0.356912 0.214629,-0.1181668 0.511252,-0.1181668 0.49196,0 0.798229,0.3906739 0.30868,0.3906739 0.30868,1.0273277 0,0.6366538 -0.30868,1.0273277 -0.306269,0.3906739 -0.798229,0.3906739 -0.296623,0 -0.511252,-0.1157552 -0.212218,-0.1181668 -0.352089,-0.3593235 z m 1.509641,-0.9429229 q 0,-0.4895482 -0.202572,-0.7668784 -0.20016,-0.2797418 -0.552249,-0.2797418 -0.352089,0 -0.55466,0.2797418 -0.20016,0.2773302 -0.20016,0.7668784 0,0.4895482 0.20016,0.76929 0.202571,0.2773302 0.55466,0.2773302 0.352089,0 0.552249,-0.2773302 0.202572,-0.2797418 0.202572,-0.76929 z m 1.150318,0.2821534 V 6.9555072 h 0.443729 v 1.6181617 q 0,0.3834392 0.149517,0.5763646 0.149517,0.1905138 0.448551,0.1905138 0.359324,0 0.566719,-0.2290989 0.209806,-0.2290989 0.209806,-0.6245959 V 6.9555072 h 0.443728 V 9.6564627 H 31.545863 V 9.2416731 q -0.161575,0.2459799 -0.376204,0.3665582 -0.212218,0.1181668 -0.494372,0.1181668 -0.465432,0 -0.706589,-0.2893881 -0.241157,-0.289388 -0.241157,-0.8464601 z m 1.116556,-1.700155 z m 2.498382,-0.7017661 v 0.7668784 h 0.913984 v 0.3448541 h -0.913984 v 1.466233 q 0,0.3303847 0.08923,0.4244359 0.09164,0.094051 0.36897,0.094051 h 0.455786 v 0.3713814 h -0.455786 q -0.513664,0 -0.709001,-0.1905139 Q 32.896339,9.2730235 32.896339,8.7665943 V 7.3003613 H 32.570778 V 6.9555072 h 0.325561 V 6.1886288 Z m 3.807867,2.006424 V 8.4120939 H 35.11016 q 0.02894,0.4581978 0.274919,0.6993545 0.248392,0.2387452 0.689708,0.2387452 0.255626,0 0.494372,-0.062701 0.241156,-0.062701 0.47749,-0.1881023 v 0.4196127 q -0.238745,0.1012859 -0.489548,0.1543403 -0.250803,0.053055 -0.508841,0.053055 -0.6463,0 -1.024916,-0.3762045 -0.376205,-0.3762045 -0.376205,-1.0176814 0,-0.663181 0.356912,-1.0514434 0.359324,-0.3906739 0.967039,-0.3906739 0.545014,0 0.86093,0.3520888 0.318326,0.3496773 0.318326,0.9525691 z M 36.706618,8.0648282 q -0.0048,-0.3641467 -0.204983,-0.5811877 -0.197749,-0.2170411 -0.525722,-0.2170411 -0.371381,0 -0.595657,0.2098064 -0.221864,0.2098063 -0.255626,0.590834 z m 2.737128,-0.6945314 q -0.07476,-0.043408 -0.163986,-0.062701 -0.08682,-0.021704 -0.192926,-0.021704 -0.376204,0 -0.578776,0.2459799 -0.20016,0.2435683 -0.20016,0.7017661 v 1.4228248 h -0.44614 V 6.9555072 h 0.44614 v 0.4196127 q 0.139871,-0.2459798 0.364147,-0.3641466 0.224276,-0.1205784 0.545014,-0.1205784 0.04582,0 0.101286,0.00723 0.05547,0.00482 0.12299,0.016881 z"
       id="text1-9-9"
       style="font-size:4.93889px;stroke-width:0.264583"
       inkscape:label="Title"
       aria-label="Shift Computer" />
  </g>
  <g
     inkscape:groupmode="layer"
     id="layer2"
     inkscape:label="components"
     style="display:none">
    <circle
       style="display:inline;fill:#ff00ff;fill-opacity:1;stroke-width:0.0957139"
       id="path2787-83-3-2-9-3-6-9-0"
       cx="25.218254"
       cy="119.75372"
       r="1.4083825"
       inkscape:label="dest_led_10" />
    <circle
       style="display:inline;fill:#ff00ff;fill-opacity:1;stroke-width:0.0957139"
       id="path2787-83-3-2-9-3-6-9-7"
       cx="35.014767"
       cy="108.57188"
       r="1.4083825"
       inkscape:label="dest_led_9" />
    <circle
       style="display:inline;fill:#ff00ff;fill-opacity:1;stroke-width:0.0957139"
       id="path2787-83-3-2-9-3-6-9-2"
       cx="25.218254"
       cy="99.874855"
       r="1.4083825"
       inkscape:label="dest_led_8" />
    <circle
       style="display:inline;fill:#ff00ff;fill-opacity:1;stroke-width:0.0957139"
       id="path2787-83-3-2-9-3-6-9"
       cx="35.014767"
       cy="91.177841"
       r="1.4083825"
       inkscape:label="dest_led_7" />
    <circle
       style="display:inline;fill:#ff00ff;fill-opacity:1;stroke-width:0.0957139"
       id="path2787-83-3-2-9-3-6-2"
       cx="25.218254"
       cy="82.48082"
       r="1.4083825"
       inkscape:label="dest_led_6" />
    <circle
       style="display:inline;fill:#ff00ff;fill-opacity:1;stroke-width:0.0957139"
       id="path2787-83-3-2-9-3-6-56"
       cx="35.014767"
       cy="73.783798"
       r="1.4083825"
       inkscape:label="dest_led_5" />
    <circle
       style="display:inline;fill:#ff00ff;fill-opacity:1;stroke-width:0.0957139"
       id="path2787-83-3-2-9-3-6-3"
       cx="25.218254"
       cy="65.086777"
       r="1.4083825"
       inkscape:label="dest_led_4" />
    <circle
       style="display:inline;fill:#ff00ff;fill-opacity:1;stroke-width:0.0957139"
       id="path2787-83-3-2-9-3-6-5"
       cx="35.014767"
       cy="56.389759"
       r="1.4083825"
       inkscape:label="dest_led_3" />
    <circle
       style="display:inline;fill:#ff00ff;fill-opacity:1;stroke-width:0.0957139"
       id="path2787-83-3-2-9-3-6-7"
       cx="25.218254"
       cy="47.692738"
       r="1.4083825"
       inkscape:label="dest_led_2" />
    <circle
       style="display:inline;fill:#ff00ff;fill-opacity:1;stroke-width:0.0957139"
       id="path2787-83-3-2-9-3-6"
       cx="35.014767"
       cy="38.99572"
       r="1.4083825"
       inkscape:label="dest_led_1" />
    <circle
       style="display:inline;fill:#ff00ff;fill-opacity:1;stroke-width:0.0957139"
       id="path2787-83-3-2-9-3-6-9-0-3"
       cx="15.421743"
       cy="108.57188"
       r="1.4083825"
       inkscape:label="source_led_10" />
    <circle
       style="display:inline;fill:#ff00ff;fill-opacity:1;stroke-width:0.0957139"
       id="path2787-83-3-2-9-3-6-9-7-6"
       cx="5.6252322"
       cy="99.874855"
       r="1.4083825"
       inkscape:label="source_led_9" />
    <circle
       style="display:inline;fill:#ff00ff;fill-opacity:1;stroke-width:0.0957139"
       id="path2787-83-3-2-9-3-6-9-2-7"
       cx="15.421743"
       cy="91.177841"
       r="1.4083825"
       inkscape:label="source_led_8" />
    <circle
       style="display:inline;fill:#ff00ff;fill-opacity:1;stroke-width:0.0957139"
       id="path2787-83-3-2-9-3-6-9-5"
       cx="5.6252322"
       cy="82.48082"
       r="1.4083825"
       inkscape:label="source_led_7" />
    <circle
       style="display:inline;fill:#ff00ff;fill-opacity:1;stroke-width:0.0957139"
       id="path2787-83-3-2-9-3-6-2-3"
       cx="15.421743"
       cy="73.783798"
       r="1.4083825"
       inkscape:label="source_led_6" />
    <circle
       style="display:inline;fill:#ff00ff;fill-opacity:1;stroke-width:0.0957139"
       id="path2787-83-3-2-9-3-6-56-5"
       cx="5.6252322"
       cy="65.086777"
       r="1.4083825"
       inkscape:label="source_led_5" />
    <circle
       style="display:inline;fill:#ff00ff;fill-opacity:1;stroke-width:0.0957139"
       id="path2787-83-3-2-9-3-6-3-6"
       cx="15.421743"
       cy="56.389759"
       r="1.4083825"
       inkscape:label="source_led_4" />
    <circle
       style="display:inline;fill:#ff00ff;fill-opacity:1;stroke-width:0.0957139"
       id="path2787-83-3-2-9-3-6-5-2"
       cx="5.6252322"
       cy="47.692738"
       r="1.4083825"
       inkscape:label="source_led_3" />
    <circle
       style="display:inline;fill:#ff00ff;fill-opacity:1;stroke-width:0.0957139"
       id="path2787-83-3-2-9-3-6-7-9"
       cx="15.421743"
       cy="38.99572"
       r="1.4083825"
       inkscape:label="source_led_2" />
    <circle
       style="display:inline;fill:#ff00ff;fill-opacity:1;stroke-width:0.0957139"
       id="path2787-83-3-2-9-3-6-1"
       cx="5.6252322"
       cy="30.298698"
       r="1.4083825"
       inkscape:label="source_led_1" />
    <circle
       style="display:inline;fill:#ff0000;stroke-width:0.264583"
       id="path2787-83-3-2-9-3-92"
       cx="15.421743"
       cy="119.75372"
       r="3.8932071"
       inkscape:label="atten_10" />
    <circle
       style="display:inline;fill:#ff0000;stroke-width:0.264583"
       id="path2787-83-3-2-9-3-7"
       cx="5.6252322"
       cy="108.57188"
       r="3.8932071"
       inkscape:label="atten_9" />
    <circle
       style="display:inline;fill:#ff0000;stroke-width:0.264583"
       id="path2787-83-3-2-9-3-8"
       cx="15.421743"
       cy="99.874855"
       r="3.8932071"
       inkscape:label="atten_8" />
    <circle
       style="display:inline;fill:#ff0000;stroke-width:0.264583"
       id="path2787-83-3-2-9-3-61"
       cx="5.6252322"
       cy="91.177841"
       r="3.8932071"
       inkscape:label="atten_7" />
    <circle
       style="display:inline;fill:#ff0000;stroke-width:0.264583"
       id="path2787-83-3-2-9-3-62"
       cx="15.421743"
       cy="82.48082"
       r="3.8932071"
       inkscape:label="atten_6" />
    <circle
       style="display:inline;fill:#ff0000;stroke-width:0.264583"
       id="path2787-83-3-2-9-3-60"
       cx="5.6252322"
       cy="73.783798"
       r="3.8932071"
       inkscape:label="atten_5" />
    <circle
       style="display:inline;fill:#ff0000;stroke-width:0.264583"
       id="path2787-83-3-2-9-3-3"
       cx="15.421743"
       cy="65.086777"
       r="3.8932071"
       inkscape:label="atten_4" />
    <circle
       style="display:inline;fill:#ff0000;stroke-width:0.264583"
       id="path2787-83-3-2-9-3-9"
       cx="5.6252322"
       cy="56.389759"
       r="3.8932071"
       inkscape:label="atten_3" />
    <circle
       style="display:inline;fill:#ff0000;stroke-width:0.264583"
       id="path2787-83-3-2-9"
       cx="15.421743"
       cy="47.692738"
       r="3.8932071"
       inkscape:label="atten_2" />
    <circle
       style="display:inline;fill:#ff0000;stroke-width:0.264583"
       id="path2787-83-3-2-9-3"
       cx="5.6252322"
       cy="38.99572"
       r="3.8932071"
       inkscape:label="atten_1" />
    <circle
       style="display:inline;fill:#0000ff;stroke-width:0.264583"
       id="path2787-83-7-1-3-7-5-2-1"
       cx="35.014767"
       cy="119.75372"
       r="3.8932071"
       inkscape:label="stage_10" />
    <circle
       style="display:inline;fill:#0000ff;stroke-width:0.264583"
       id="path2787-83-7-1-3-7-5-2-9"
       cx="25.218254"
       cy="108.57188"
       r="3.8932071"
       inkscape:label="stage_9" />
    <circle
       style="display:inline;fill:#0000ff;stroke-width:0.264583"
       id="path2787-83-7-1-3-7-5-2-62"
       cx="35.014767"
       cy="99.874855"
       r="3.8932071"
       inkscape:label="stage_8" />
    <circle
       style="display:inline;fill:#0000ff;stroke-width:0.264583"
       id="path2787-83-7-1-3-7-5-2-35"
       cx="25.218254"
       cy="91.177841"
       r="3.8932071"
       inkscape:label="stage_7" />
    <circle
       style="display:inline;fill:#0000ff;stroke-width:0.264583"
       id="path2787-83-7-1-3-7-5-2-5"
       cx="35.014767"
       cy="82.48082"
       r="3.8932071"
       inkscape:label="stage_6" />
    <circle
       style="display:inline;fill:#0000ff;stroke-width:0.264583"
       id="path2787-83-7-1-3-7-5-2-67"
       cx="25.218254"
       cy="73.783798"
       r="3.8932071"
       inkscape:label="stage_5" />
    <circle
       style="display:inline;fill:#0000ff;stroke-width:0.264583"
       id="path2787-83-7-1-3-7-5-2-3"
       cx="35.014767"
       cy="65.086777"
       r="3.8932071"
       inkscape:label="stage_4" />
    <circle
       style="display:inline;fill:#0000ff;stroke-width:0.264583"
       id="path2787-83-7-1-3-7-5-2"
       cx="25.218254"
       cy="56.389759"
       r="3.8932071"
       inkscape:label="stage_3" />
    <circle
       style="display:inline;fill:#0000ff;stroke-width:0.264583"
       id="path2787-83-7-1-3-7-5"
       cx="35.014767"
       cy="47.692738"
       r="3.8932071"
       inkscape:label="stage_2" />
    <circle
       style="display:inline;fill:#0000ff;stroke-width:0.264583"
       id="path2787-83-7-1-3-7-5-2-6"
       cx="25.218254"
       cy="38.99572"
       r="3.8932071"
       inkscape:label="stage_1" />
    <circle
       style="display:inline;fill:#00ff00;stroke-width:0.264583"
       id="path2787-70-0-3-6"
       cx="35.014767"
       cy="21.601681"
       r="3.8932071"
       inkscape:label="sample_trig" />
    <circle
       style="display:inline;fill:#00ff00;stroke-width:0.264583"
       id="path2787-70-0"
       cx="25.218254"
       cy="21.601681"
       r="3.8932071"
       inkscape:label="destination_select" />
    <circle
       style="display:inline;fill:#00ff00;stroke-width:0.264583"
       id="path2787-70-0-2"
       cx="15.421743"
       cy="21.601681"
       r="3.8932071"
       inkscape:label="source_select" />
    <circle
       style="display:inline;fill:#00ff00;stroke-width:0.264583"
       id="path2787-70-0-3"
       cx="5.6252322"
       cy="21.601681"
       r="3.8932071"
       inkscape:label="external_source" />
  </g>
</svg>
