<?xml version="1.0" encoding="UTF-8" standalone="no"?>
<!-- Created with Inkscape (http://www.inkscape.org/) -->

<svg
   width="81.279999mm"
   height="128.5mm"
   viewBox="0 0 81.28 128.5"
   version="1.1"
   id="svg5"
   inkscape:version="1.3.2 (091e20ef0f, 2023-11-25)"
   sodipodi:docname="ShiftComputer.svg"
   xmlns:inkscape="http://www.inkscape.org/namespaces/inkscape"
   xmlns:sodipodi="http://sodipodi.sourceforge.net/DTD/sodipodi-0.dtd"
   xmlns="http://www.w3.org/2000/svg"
   xmlns:svg="http://www.w3.org/2000/svg">
  <sodipodi:namedview
     id="namedview7"
     pagecolor="#ffffff"
     bordercolor="#000000"
     borderopacity="0.25"
     inkscape:showpageshadow="2"
     inkscape:pageopacity="0.0"
     inkscape:pagecheckerboard="0"
     inkscape:deskcolor="#d1d1d1"
     inkscape:document-units="mm"
     showgrid="false"
     inkscape:zoom="1.8263457"
     inkscape:cx="207.79199"
     inkscape:cy="237.35923"
     inkscape:window-width="1920"
     inkscape:window-height="1064"
     inkscape:window-x="3600"
     inkscape:window-y="16"
     inkscape:window-maximized="1"
     inkscape:current-layer="layer1" />
  <defs
     id="defs2" />
  <g
     inkscape:label="Layer 1"
     inkscape:groupmode="layer"
     id="layer1"
     style="display:inline">
    <rect
       style="display:inline;fill:#808080;stroke-width:0.185337"
       id="rect251"
       width="81.279999"
       height="128.5"
       x="8.8817842e-15"
       y="5.3290705e-15"
       inkscape:label="background" />
    <rect
       style="display:inline;fill:#333333;stroke-width:0.459628"
       id="rect1809-8-7"
       width="19.959539"
       height="99.713181"
       x="59.9277"
       y="26.097862"
       inkscape:label="counter outputs background" />
    <text
       xml:space="preserve"
       style="font-size:2.82222px;display:inline;fill:#cccccc;stroke:none;stroke-width:0.264583;stroke-opacity:1"
       x="65.901924"
       y="28.938488"
       id="text4-9-0-2-1"
       inkscape:label="poly label"><tspan
         sodipodi:role="line"
         style="font-size:2.82222px;fill:#cccccc;stroke-width:0.264583"
         x="65.901924"
         y="28.938488"
         id="tspan9-8">Poly</tspan><tspan
         sodipodi:role="line"
         style="font-size:2.82222px;fill:#cccccc;stroke-width:0.264583"
         x="65.901924"
         y="32.466263"
         id="tspan8">   └</tspan></text>
    <text
       xml:space="preserve"
       style="font-size:2.82222px;display:inline;fill:#000000;stroke-width:0.264583"
       x="4.1840119"
       y="11.834816"
       id="text1-9-53"
       inkscape:label="input_labels"><tspan
         sodipodi:role="line"
         style="font-size:2.82222px;stroke-width:0.264583"
         x="4.1840119"
         y="11.834816"
         id="tspan5-5">            ┌   Up   ┐          ┌Down┐         ┌Reset┐</tspan><tspan
         sodipodi:role="line"
         style="font-size:2.82222px;stroke-width:0.264583"
         x="4.1840119"
         y="15.362591"
         id="tspan1">EXT    SRC -&gt; DST    SRC -&gt; DST   SRC -&gt; DST    CLK</tspan></text>
    <text
       xml:space="preserve"
       style="display:inline;font-size:2.82222px;fill:#000000;stroke-width:0.264583"
       x="-95.317818"
       y="58.599224"
       id="text1-9-53-6-6"
       inkscape:label="cv_output_label"
       transform="rotate(-90)"><tspan
         sodipodi:role="line"
         style="font-size:2.82222px;stroke-width:0.264583"
         x="-95.317818"
         y="58.599224"
         id="tspan1-9-0">┌ CV Outputs ┐</tspan><tspan
         sodipodi:role="line"
         style="font-size:2.82222px;stroke-width:0.264583"
         x="-95.317818"
         y="62.126999"
         id="tspan2-6" /></text>
    <text
       xml:space="preserve"
       style="font-size:2.82222px;display:inline;fill:#000000;stroke-width:0.264583"
       x="-115.10939"
       y="23.739351"
       id="text1-9-53-6"
       inkscape:label="knob_label"
       transform="rotate(-90)"><tspan
         sodipodi:role="line"
         style="font-size:2.82222px;stroke-width:0.264583"
         x="-115.10939"
         y="23.739351"
         id="tspan1-9">└ CV Output Attenuators ┘</tspan><tspan
         sodipodi:role="line"
         style="font-size:2.82222px;stroke-width:0.264583"
         x="-115.10939"
         y="27.267126"
         id="tspan2" /></text>
    <text
       xml:space="preserve"
       style="font-size:2.82222px;display:inline;fill:#000000;stroke-width:0.264583"
       x="-89.857986"
       y="29.836067"
       id="text1-9-53-6-0"
       inkscape:label="gate_label"
       transform="rotate(-90)"><tspan
         sodipodi:role="line"
         style="font-size:2.82222px;stroke-width:0.264583"
         x="-89.857986"
         y="29.836067"
         id="tspan2-3">┌ Selected destination gate outputs ┐</tspan></text>
    <text
       xml:space="preserve"
       style="display:inline;font-size:4.93889px;fill:#000000;stroke-width:0.264583"
       x="21.803246"
       y="6.4418359"
       id="text1-9"
       inkscape:label="Title"><tspan
         sodipodi:role="line"
         style="font-size:4.93889px;stroke-width:0.264583"
         x="21.803246"
         y="6.4418359"
         id="tspan5">Shift Computer</tspan></text>
    <g
       id="text4-9-0-2-1-2"
       style="font-size:2.82222px;fill:#cccccc;stroke-width:0.264583"
       inkscape:label="poly label"
       aria-label="Poly&#10;   └">
      <path
         d="m 66.457273,27.109833 v 0.773079 h 0.350022 q 0.194303,0 0.300412,-0.100597 0.106109,-0.100597 0.106109,-0.286632 0,-0.184657 -0.106109,-0.285254 -0.106109,-0.100596 -0.300412,-0.100596 z M 66.17891,26.881079 h 0.628385 q 0.345887,0 0.522276,0.157096 0.177766,0.155718 0.177766,0.457508 0,0.304546 -0.177766,0.460265 -0.176389,0.155718 -0.522276,0.155718 h -0.350022 v 0.826822 H 66.17891 Z m 2.188323,0.691774 q -0.20395,0 -0.322461,0.159852 -0.118511,0.158475 -0.118511,0.43546 0,0.276986 0.117133,0.436838 0.118511,0.158474 0.323839,0.158474 0.202571,0 0.321082,-0.159852 0.118511,-0.159852 0.118511,-0.43546 0,-0.274229 -0.118511,-0.434081 -0.118511,-0.161231 -0.321082,-0.161231 z m 0,-0.214974 q 0.330728,0 0.51952,0.214974 0.188791,0.214974 0.188791,0.595312 0,0.37896 -0.188791,0.595312 -0.188792,0.214974 -0.51952,0.214974 -0.332107,0 -0.520898,-0.214974 -0.187414,-0.216352 -0.187414,-0.595312 0,-0.380338 0.187414,-0.595312 0.188791,-0.214974 0.520898,-0.214974 z m 1.128612,-0.563617 h 0.253559 v 2.144226 h -0.253559 z m 1.426269,2.287542 q -0.107487,0.275607 -0.209462,0.359668 -0.101975,0.08406 -0.272851,0.08406 h -0.202572 v -0.212218 h 0.148828 q 0.104731,0 0.162608,-0.04961 0.05788,-0.04961 0.128158,-0.234267 l 0.04547,-0.115755 -0.624251,-1.518597 h 0.268718 l 0.482313,1.207161 0.482313,-1.207161 h 0.268717 z"
         id="path5" />
      <path
         d="m 69.331859,31.614636 v -1.795582 h 0.220486 v 1.55856 h 0.767566 v 0.237022 z"
         id="path6" />
    </g>
    <g
       id="text1-9-53-8"
       style="font-size:2.82222px;stroke-width:0.264583"
       inkscape:label="input_labels"
       aria-label="            ┌   Up   ┐          ┌Down┐         ┌Reset┐&#10;EXT    SRC -&gt; DST    SRC -&gt; DST   SRC -&gt; DST    CLK">
      <path
         d="m 15.687866,12.540371 v -1.794204 h 0.988053 v 0.237022 h -0.767567 v 1.557182 z m 3.897089,-2.7629645 h 0.279741 v 1.2498795 q 0,0.330729 0.119889,0.476801 0.11989,0.144694 0.388607,0.144694 0.267339,0 0.387228,-0.144694 0.11989,-0.146072 0.11989,-0.476801 V 9.7774065 h 0.279741 v 1.2843305 q 0,0.402387 -0.199815,0.607715 -0.198438,0.205327 -0.587044,0.205327 -0.389985,0 -0.5898,-0.205327 -0.198437,-0.205328 -0.198437,-0.607715 z m 2.331639,1.8258995 v 0.818554 h -0.254937 v -2.130446 h 0.254937 v 0.234267 q 0.07993,-0.137804 0.201194,-0.20395 0.122645,-0.06752 0.292144,-0.06752 0.281119,0 0.45613,0.223242 0.176389,0.223242 0.176389,0.587044 0,0.363802 -0.176389,0.587044 -0.175011,0.223242 -0.45613,0.223242 -0.169499,0 -0.292144,-0.06615 -0.121267,-0.06752 -0.201194,-0.205327 z m 0.862652,-0.538813 q 0,-0.279741 -0.115756,-0.438216 -0.114377,-0.159852 -0.31557,-0.159852 -0.201193,0 -0.316949,0.159852 -0.114377,0.158475 -0.114377,0.438216 0,0.279742 0.114377,0.439594 0.115756,0.158474 0.316949,0.158474 0.201193,0 0.31557,-0.158474 0.115756,-0.159852 0.115756,-0.439594 z m 3.847478,1.475878 v -1.557182 h -0.766188 v -0.237022 h 0.986674 v 1.794204 z m 10.670141,0 v -1.794204 h 0.988053 v 0.237022 h -0.767567 v 1.557182 z m 1.515841,-2.53421 v 1.599901 h 0.336241 q 0.425814,0 0.622873,-0.192925 0.198437,-0.192926 0.198437,-0.609093 0,-0.413411 -0.198437,-0.604958 -0.197059,-0.192925 -0.622873,-0.192925 z M 38.534343,9.7774065 h 0.571885 q 0.598068,0 0.87781,0.2494245 0.279741,0.248047 0.279741,0.777213 0,0.531923 -0.281119,0.781347 -0.28112,0.249425 -0.876432,0.249425 h -0.571885 z m 2.760208,0.6917745 q -0.20395,0 -0.322461,0.159852 -0.118511,0.158475 -0.118511,0.43546 0,0.276986 0.117133,0.436838 0.118511,0.158474 0.323839,0.158474 0.202571,0 0.321082,-0.159852 0.118512,-0.159852 0.118512,-0.43546 0,-0.274229 -0.118512,-0.434081 -0.118511,-0.161231 -0.321082,-0.161231 z m 0,-0.214974 q 0.330729,0 0.51952,0.214974 0.188791,0.214974 0.188791,0.595312 0,0.37896 -0.188791,0.595312 -0.188791,0.214974 -0.51952,0.214974 -0.332107,0 -0.520898,-0.214974 -0.187413,-0.216352 -0.187413,-0.595312 0,-0.380338 0.187413,-0.595312 0.188791,-0.214974 0.520898,-0.214974 z m 0.981162,0.03721 h 0.253559 l 0.316949,1.204405 0.31557,-1.204405 h 0.299034 l 0.316949,1.204405 0.31557,-1.204405 h 0.253559 l -0.403765,1.543402 h -0.299034 l -0.332107,-1.265038 -0.333485,1.265038 h -0.299034 z m 3.738615,0.611849 v 0.931553 h -0.253559 v -0.923285 q 0,-0.219108 -0.08544,-0.327973 -0.08544,-0.108865 -0.256315,-0.108865 -0.205327,0 -0.323838,0.130914 -0.118512,0.130913 -0.118512,0.356911 v 0.872298 h -0.254937 v -1.543402 h 0.254937 v 0.239779 q 0.09095,-0.139182 0.213596,-0.208084 0.124023,-0.0689 0.285254,-0.0689 0.265961,0 0.402387,0.165365 0.136425,0.163986 0.136425,0.483691 z m 0.978407,1.637108 v -1.557182 h -0.766189 v -0.237022 h 0.986675 v 1.794204 z m 9.773041,0 v -1.794204 h 0.988052 v 0.237022 h -0.767566 v 1.557182 z m 2.213127,-1.670181 q 0.08957,0.03032 0.173633,0.129535 0.08544,0.09922 0.170876,0.272852 l 0.282498,0.562239 h -0.299034 l -0.263205,-0.527788 q -0.101975,-0.206706 -0.198437,-0.27423 -0.09508,-0.06752 -0.26045,-0.06752 h -0.303168 v 0.869541 H 58.003253 V 9.7774065 h 0.628385 q 0.352777,0 0.52641,0.14745 0.173633,0.1474495 0.173633,0.4451055 0,0.194304 -0.09095,0.322461 -0.08957,0.128158 -0.261827,0.177767 z m -0.697287,-0.864029 v 0.730359 h 0.350022 q 0.201193,0 0.303168,-0.09233 0.103353,-0.09371 0.103353,-0.27423 0,-0.180522 -0.103353,-0.271473 -0.101975,-0.09233 -0.303168,-0.09233 z m 2.86494,0.993564 v 0.124024 h -1.16582 q 0.01654,0.261827 0.157096,0.399631 0.141938,0.136425 0.394119,0.136425 0.146072,0 0.282498,-0.03583 0.137803,-0.03583 0.272851,-0.107487 v 0.239779 q -0.136426,0.05788 -0.279742,0.08819 -0.143315,0.03032 -0.290765,0.03032 -0.369314,0 -0.585666,-0.214974 -0.214974,-0.214974 -0.214974,-0.581531 0,-0.378961 0.20395,-0.600825 0.205327,-0.223242 0.552592,-0.223242 0.311437,0 0.49196,0.201194 0.181901,0.199815 0.181901,0.544324 z m -0.253559,-0.07441 q -0.0028,-0.208083 -0.117133,-0.332106 -0.112999,-0.124024 -0.300413,-0.124024 -0.212217,0 -0.340375,0.119889 -0.126779,0.11989 -0.146072,0.337619 z m 1.653646,-0.588421 v 0.239778 q -0.107487,-0.05512 -0.223242,-0.08268 -0.115755,-0.02756 -0.239779,-0.02756 -0.188791,0 -0.283875,0.05788 -0.09371,0.05788 -0.09371,0.173632 0,0.0882 0.06752,0.139182 0.06752,0.04961 0.271473,0.09509 l 0.08682,0.01929 q 0.270096,0.05788 0.383095,0.163987 0.114377,0.10473 0.114377,0.293521 0,0.214974 -0.170877,0.340376 -0.169498,0.125401 -0.467154,0.125401 -0.124024,0 -0.259071,-0.02481 -0.13367,-0.02343 -0.282498,-0.07166 v -0.261827 q 0.14056,0.07304 0.276986,0.110243 0.136425,0.03583 0.270095,0.03583 0.179145,0 0.275607,-0.06063 0.09646,-0.06201 0.09646,-0.173633 0,-0.103353 -0.07028,-0.158474 -0.0689,-0.05512 -0.304546,-0.106109 l -0.08819,-0.02067 q -0.235644,-0.04961 -0.340375,-0.151584 -0.104731,-0.103353 -0.104731,-0.282497 0,-0.21773 0.154341,-0.336241 0.15434,-0.118512 0.438215,-0.118512 0.14056,0 0.264583,0.02067 0.124024,0.02067 0.228755,0.06201 z m 1.806604,0.662835 v 0.124024 h -1.165819 q 0.01654,0.261827 0.157096,0.399631 0.141938,0.136425 0.394119,0.136425 0.146072,0 0.282497,-0.03583 0.137804,-0.03583 0.272852,-0.107487 v 0.239779 q -0.136426,0.05788 -0.279742,0.08819 -0.143316,0.03032 -0.290766,0.03032 -0.369314,0 -0.585665,-0.214974 -0.214974,-0.214974 -0.214974,-0.581531 0,-0.378961 0.203949,-0.600825 0.205328,-0.223242 0.552593,-0.223242 0.311437,0 0.491959,0.201194 0.181901,0.199815 0.181901,0.544324 z m -0.253559,-0.07441 q -0.0028,-0.208083 -0.117133,-0.332106 -0.112999,-0.124024 -0.300412,-0.124024 -0.212217,0 -0.340375,0.119889 -0.126779,0.11989 -0.146072,0.337619 z m 0.920531,-1.0721124 v 0.4382154 h 0.522276 v 0.19706 h -0.522276 v 0.837846 q 0,0.188791 0.05099,0.242535 0.05236,0.05374 0.21084,0.05374 h 0.260449 v 0.212218 h -0.260449 q -0.293522,0 -0.405143,-0.108865 -0.111621,-0.110243 -0.111621,-0.399631 v -0.837846 h -0.186035 v -0.19706 h 0.186035 V 9.8531986 Z m 1.328427,2.6871724 v -1.557182 h -0.766188 v -0.237022 h 0.986674 v 1.794204 z"
         id="path3" />
      <path
         d="m 4.4609974,13.305182 h 1.3008671 v 0.234266 H 4.7393609 v 0.609092 h 0.9797844 v 0.234267 H 4.7393609 v 0.745518 h 1.0473082 v 0.234266 H 4.4609974 Z m 1.6839614,0 h 0.2990341 l 0.5112518,0.76481 0.5140078,-0.76481 h 0.2990341 l -0.6614578,0.988052 0.705555,1.069357 H 7.5133497 L 6.9345741,14.487537 6.3516644,15.362591 H 6.0512523 l 0.7344938,-1.098296 z m 1.6977418,0 h 1.7404609 v 0.234266 H 8.8528018 v 1.823143 H 8.5730603 V 13.539448 H 7.8427006 Z m 6.8309304,0.06752 v 0.271474 q -0.158475,-0.07579 -0.299034,-0.112999 -0.14056,-0.03721 -0.271474,-0.03721 -0.227376,0 -0.351399,0.08819 -0.122645,0.08819 -0.122645,0.250803 0,0.136426 0.0813,0.206705 0.08268,0.0689 0.311436,0.111621 l 0.168121,0.03445 q 0.311436,0.05926 0.458886,0.209462 0.148828,0.148828 0.148828,0.399631 0,0.299034 -0.201193,0.453374 -0.199816,0.15434 -0.587044,0.15434 -0.146072,0 -0.311437,-0.03307 -0.163986,-0.03307 -0.340375,-0.09784 v -0.286632 q 0.169499,0.09508 0.332107,0.143316 0.162609,0.04823 0.319705,0.04823 0.2384,0 0.367936,-0.09371 0.129535,-0.09371 0.129535,-0.26734 0,-0.151584 -0.09371,-0.237022 -0.09233,-0.08544 -0.304547,-0.128158 l -0.169498,-0.03307 q -0.311437,-0.06201 -0.450618,-0.194304 -0.139182,-0.132291 -0.139182,-0.367936 0,-0.272851 0.191547,-0.429947 0.192925,-0.157096 0.530544,-0.157096 0.144694,0 0.2949,0.02618 0.150206,0.02618 0.307303,0.07855 z m 1.533755,1.02526 q 0.08957,0.03032 0.173633,0.129536 0.08544,0.09922 0.170877,0.272851 l 0.282497,0.562239 h -0.299034 l -0.263205,-0.527788 q -0.101975,-0.206706 -0.198437,-0.27423 -0.09508,-0.06752 -0.260449,-0.06752 H 15.5101 v 0.869541 h -0.278364 v -2.057409 h 0.628385 q 0.352777,0 0.52641,0.14745 0.173633,0.14745 0.173633,0.445106 0,0.194303 -0.09095,0.32246 -0.08957,0.128158 -0.261827,0.177767 z M 15.5101,13.533936 v 0.730359 h 0.350021 q 0.201193,0 0.303168,-0.09233 0.103353,-0.09371 0.103353,-0.274229 0,-0.180523 -0.103353,-0.271474 -0.101975,-0.09233 -0.303168,-0.09233 z m 3.082668,-0.07028 v 0.293522 q -0.140559,-0.130914 -0.300412,-0.195681 -0.158474,-0.06477 -0.337619,-0.06477 -0.352777,0 -0.54019,0.216352 -0.187413,0.214973 -0.187413,0.622872 0,0.406521 0.187413,0.622873 0.187413,0.214974 0.54019,0.214974 0.179145,0 0.337619,-0.06477 0.159853,-0.06477 0.300412,-0.195681 v 0.290766 q -0.146072,0.09922 -0.310058,0.148828 -0.162608,0.04961 -0.344509,0.04961 -0.467155,0 -0.735872,-0.285254 -0.268717,-0.286631 -0.268717,-0.781347 0,-0.496093 0.268717,-0.781347 0.268717,-0.286631 0.735872,-0.286631 0.184657,0 0.347265,0.04961 0.163987,0.04823 0.307302,0.146072 z m 1.187869,1.012857 h 0.742762 v 0.225998 h -0.742762 z m 1.179599,-0.502983 v -0.250803 l 1.766644,0.640787 v 0.228754 l -1.766644,0.640788 v -0.250803 l 1.419378,-0.502984 z m 3.518129,-0.439594 v 1.599901 h 0.336241 q 0.425814,0 0.622873,-0.192925 0.198437,-0.192925 0.198437,-0.609093 0,-0.413411 -0.198437,-0.604958 -0.197059,-0.192925 -0.622873,-0.192925 z m -0.278363,-0.228754 h 0.571885 q 0.598068,0 0.87781,0.249424 0.279741,0.248047 0.279741,0.777213 0,0.531923 -0.281119,0.781347 -0.28112,0.249425 -0.876432,0.249425 h -0.571885 z m 3.406507,0.06752 v 0.271474 q -0.158474,-0.07579 -0.299034,-0.112999 -0.14056,-0.03721 -0.271473,-0.03721 -0.227376,0 -0.3514,0.08819 -0.122645,0.08819 -0.122645,0.250803 0,0.136426 0.0813,0.206705 0.08268,0.0689 0.311437,0.111621 l 0.16812,0.03445 q 0.311437,0.05926 0.458886,0.209462 0.148829,0.148828 0.148829,0.399631 0,0.299034 -0.201194,0.453374 -0.199815,0.15434 -0.587044,0.15434 -0.146072,0 -0.311436,-0.03307 -0.163987,-0.03307 -0.340375,-0.09784 v -0.286632 q 0.169498,0.09508 0.332107,0.143316 0.162608,0.04823 0.319704,0.04823 0.238401,0 0.367936,-0.09371 0.129536,-0.09371 0.129536,-0.26734 0,-0.151584 -0.09371,-0.237022 -0.09233,-0.08544 -0.304546,-0.128158 l -0.169499,-0.03307 q -0.311436,-0.06201 -0.450618,-0.194304 -0.139182,-0.132291 -0.139182,-0.367936 0,-0.272851 0.191548,-0.429947 0.192925,-0.157096 0.530544,-0.157096 0.144694,0 0.2949,0.02618 0.150206,0.02618 0.307302,0.07855 z m 0.272852,-0.06752 h 1.740461 v 0.234266 h -0.73036 v 1.823143 H 28.60972 v -1.823143 h -0.730359 z m 6.830931,0.06752 v 0.271474 q -0.158474,-0.07579 -0.299034,-0.112999 -0.14056,-0.03721 -0.271474,-0.03721 -0.227376,0 -0.351399,0.08819 -0.122645,0.08819 -0.122645,0.250803 0,0.136426 0.0813,0.206705 0.08268,0.0689 0.311436,0.111621 l 0.168121,0.03445 q 0.311436,0.05926 0.458886,0.209462 0.148828,0.148828 0.148828,0.399631 0,0.299034 -0.201193,0.453374 -0.199816,0.15434 -0.587044,0.15434 -0.146072,0 -0.311436,-0.03307 -0.163987,-0.03307 -0.340376,-0.09784 v -0.286632 q 0.169499,0.09508 0.332107,0.143316 0.162609,0.04823 0.319705,0.04823 0.2384,0 0.367936,-0.09371 0.129535,-0.09371 0.129535,-0.26734 0,-0.151584 -0.09371,-0.237022 -0.09233,-0.08544 -0.304546,-0.128158 l -0.169499,-0.03307 q -0.311436,-0.06201 -0.450618,-0.194304 -0.139182,-0.132291 -0.139182,-0.367936 0,-0.272851 0.191547,-0.429947 0.192925,-0.157096 0.530545,-0.157096 0.144693,0 0.2949,0.02618 0.150206,0.02618 0.307302,0.07855 z m 1.533755,1.02526 q 0.08957,0.03032 0.173633,0.129536 0.08544,0.09922 0.170877,0.272851 l 0.282497,0.562239 H 36.57202 l -0.263205,-0.527788 q -0.101975,-0.206706 -0.198437,-0.27423 -0.09508,-0.06752 -0.260449,-0.06752 h -0.303168 v 0.869541 h -0.278364 v -2.057409 h 0.628385 q 0.352778,0 0.52641,0.14745 0.173633,0.14745 0.173633,0.445106 0,0.194303 -0.09095,0.32246 -0.08957,0.128158 -0.261828,0.177767 z m -0.697286,-0.864029 v 0.730359 h 0.350021 q 0.201194,0 0.303168,-0.09233 0.103353,-0.09371 0.103353,-0.274229 0,-0.180523 -0.103353,-0.271474 -0.101974,-0.09233 -0.303168,-0.09233 z m 3.082667,-0.07028 v 0.293522 q -0.14056,-0.130914 -0.300412,-0.195681 -0.158475,-0.06477 -0.33762,-0.06477 -0.352777,0 -0.54019,0.216352 -0.187413,0.214973 -0.187413,0.622872 0,0.406521 0.187413,0.622873 0.187413,0.214974 0.54019,0.214974 0.179145,0 0.33762,-0.06477 0.159852,-0.06477 0.300412,-0.195681 v 0.290766 q -0.146072,0.09922 -0.310059,0.148828 -0.162608,0.04961 -0.344509,0.04961 -0.467155,0 -0.735872,-0.285254 -0.268717,-0.286631 -0.268717,-0.781347 0,-0.496093 0.268717,-0.781347 0.268717,-0.286631 0.735872,-0.286631 0.184657,0 0.347265,0.04961 0.163987,0.04823 0.307303,0.146072 z m 1.187867,1.012857 h 0.742762 v 0.225998 h -0.742762 z m 1.179602,-0.502983 v -0.250803 l 1.766644,0.640787 v 0.228754 l -1.766644,0.640788 v -0.250803 l 1.419378,-0.502984 z m 3.518129,-0.439594 v 1.599901 h 0.336241 q 0.425814,0 0.622873,-0.192925 0.198437,-0.192925 0.198437,-0.609093 0,-0.413411 -0.198437,-0.604958 -0.197059,-0.192925 -0.622873,-0.192925 z m -0.278363,-0.228754 h 0.571885 q 0.598068,0 0.87781,0.249424 0.279741,0.248047 0.279741,0.777213 0,0.531923 -0.281119,0.781347 -0.28112,0.249425 -0.876432,0.249425 h -0.571885 z m 3.406507,0.06752 v 0.271474 q -0.158474,-0.07579 -0.299034,-0.112999 -0.14056,-0.03721 -0.271473,-0.03721 -0.227376,0 -0.3514,0.08819 -0.122645,0.08819 -0.122645,0.250803 0,0.136426 0.0813,0.206705 0.08268,0.0689 0.311437,0.111621 l 0.16812,0.03445 q 0.311437,0.05926 0.458887,0.209462 0.148828,0.148828 0.148828,0.399631 0,0.299034 -0.201194,0.453374 -0.199815,0.15434 -0.587044,0.15434 -0.146072,0 -0.311436,-0.03307 -0.163986,-0.03307 -0.340375,-0.09784 v -0.286632 q 0.169498,0.09508 0.332107,0.143316 0.162608,0.04823 0.319704,0.04823 0.238401,0 0.367936,-0.09371 0.129536,-0.09371 0.129536,-0.26734 0,-0.151584 -0.09371,-0.237022 -0.09233,-0.08544 -0.304546,-0.128158 l -0.169498,-0.03307 q -0.311437,-0.06201 -0.450619,-0.194304 -0.139181,-0.132291 -0.139181,-0.367936 0,-0.272851 0.191547,-0.429947 0.192925,-0.157096 0.530544,-0.157096 0.144694,0 0.2949,0.02618 0.150206,0.02618 0.307302,0.07855 z m 0.27285,-0.06752 h 1.740461 v 0.234266 h -0.73036 v 1.823143 H 48.64638 v -1.823143 h -0.73036 z m 5.933831,0.06752 v 0.271474 q -0.158475,-0.07579 -0.299034,-0.112999 -0.14056,-0.03721 -0.271474,-0.03721 -0.227376,0 -0.351399,0.08819 -0.122646,0.08819 -0.122646,0.250803 0,0.136426 0.08131,0.206705 0.08268,0.0689 0.311436,0.111621 l 0.168121,0.03445 q 0.311436,0.05926 0.458886,0.209462 0.148828,0.148828 0.148828,0.399631 0,0.299034 -0.201193,0.453374 -0.199816,0.15434 -0.587044,0.15434 -0.146072,0 -0.311437,-0.03307 -0.163986,-0.03307 -0.340375,-0.09784 v -0.286632 q 0.169499,0.09508 0.332107,0.143316 0.162608,0.04823 0.319705,0.04823 0.2384,0 0.367936,-0.09371 0.129535,-0.09371 0.129535,-0.26734 0,-0.151584 -0.09371,-0.237022 -0.09233,-0.08544 -0.304547,-0.128158 l -0.169498,-0.03307 q -0.311437,-0.06201 -0.450618,-0.194304 -0.139182,-0.132291 -0.139182,-0.367936 0,-0.272851 0.191547,-0.429947 0.192925,-0.157096 0.530544,-0.157096 0.144694,0 0.2949,0.02618 0.150206,0.02618 0.307303,0.07855 z m 1.533753,1.02526 q 0.08957,0.03032 0.173633,0.129536 0.08544,0.09922 0.170877,0.272851 l 0.282497,0.562239 h -0.299034 l -0.263205,-0.527788 q -0.101975,-0.206706 -0.198437,-0.27423 -0.09508,-0.06752 -0.260449,-0.06752 h -0.303168 v 0.869541 h -0.278364 v -2.057409 h 0.628385 q 0.352777,0 0.52641,0.14745 0.173633,0.14745 0.173633,0.445106 0,0.194303 -0.09095,0.32246 -0.08957,0.128158 -0.261827,0.177767 z m -0.697286,-0.864029 v 0.730359 h 0.350021 q 0.201193,0 0.303168,-0.09233 0.103353,-0.09371 0.103353,-0.274229 0,-0.180523 -0.103353,-0.271474 -0.101975,-0.09233 -0.303168,-0.09233 z m 3.08267,-0.07028 v 0.293522 q -0.140559,-0.130914 -0.300412,-0.195681 -0.158474,-0.06477 -0.337619,-0.06477 -0.352777,0 -0.54019,0.216352 -0.187413,0.214973 -0.187413,0.622872 0,0.406521 0.187413,0.622873 0.187413,0.214974 0.54019,0.214974 0.179145,0 0.337619,-0.06477 0.159853,-0.06477 0.300412,-0.195681 v 0.290766 q -0.146072,0.09922 -0.310058,0.148828 -0.162608,0.04961 -0.344509,0.04961 -0.467155,0 -0.735872,-0.285254 -0.268717,-0.286631 -0.268717,-0.781347 0,-0.496093 0.268717,-0.781347 0.268717,-0.286631 0.735872,-0.286631 0.184657,0 0.347265,0.04961 0.163987,0.04823 0.307302,0.146072 z m 1.187868,1.012857 h 0.742762 v 0.225998 h -0.742762 z m 1.179598,-0.502983 v -0.250803 l 1.766644,0.640787 v 0.228754 l -1.766644,0.640788 v -0.250803 l 1.419378,-0.502984 z m 3.518129,-0.439594 v 1.599901 h 0.336241 q 0.425814,0 0.622873,-0.192925 0.198437,-0.192925 0.198437,-0.609093 0,-0.413411 -0.198437,-0.604958 -0.197059,-0.192925 -0.622873,-0.192925 z M 63.37622,13.305182 h 0.571885 q 0.598068,0 0.87781,0.249424 0.279741,0.248047 0.279741,0.777213 0,0.531923 -0.281119,0.781347 -0.28112,0.249425 -0.876432,0.249425 H 63.37622 Z m 3.406507,0.06752 v 0.271474 q -0.158474,-0.07579 -0.299034,-0.112999 -0.14056,-0.03721 -0.271473,-0.03721 -0.227376,0 -0.3514,0.08819 -0.122645,0.08819 -0.122645,0.250803 0,0.136426 0.0813,0.206705 0.08268,0.0689 0.311437,0.111621 l 0.16812,0.03445 q 0.311437,0.05926 0.458887,0.209462 0.148828,0.148828 0.148828,0.399631 0,0.299034 -0.201194,0.453374 -0.199815,0.15434 -0.587044,0.15434 -0.146072,0 -0.311436,-0.03307 -0.163987,-0.03307 -0.340375,-0.09784 v -0.286632 q 0.169498,0.09508 0.332107,0.143316 0.162608,0.04823 0.319704,0.04823 0.238401,0 0.367936,-0.09371 0.129536,-0.09371 0.129536,-0.26734 0,-0.151584 -0.09371,-0.237022 -0.09233,-0.08544 -0.304546,-0.128158 l -0.169499,-0.03307 q -0.311436,-0.06201 -0.450618,-0.194304 -0.139182,-0.132291 -0.139182,-0.367936 0,-0.272851 0.191548,-0.429947 0.192925,-0.157096 0.530544,-0.157096 0.144694,0 0.2949,0.02618 0.150206,0.02618 0.307302,0.07855 z m 0.272854,-0.06752 h 1.740461 v 0.234266 h -0.73036 v 1.823143 H 67.78594 v -1.823143 h -0.730359 z m 7.138231,0.158474 v 0.293522 q -0.14056,-0.130914 -0.300412,-0.195681 -0.158474,-0.06477 -0.337619,-0.06477 -0.352778,0 -0.540191,0.216352 -0.187413,0.214973 -0.187413,0.622872 0,0.406521 0.187413,0.622873 0.187413,0.214974 0.540191,0.214974 0.179145,0 0.337619,-0.06477 0.159852,-0.06477 0.300412,-0.195681 v 0.290766 q -0.146072,0.09922 -0.310058,0.148828 -0.162609,0.04961 -0.34451,0.04961 -0.467154,0 -0.735871,-0.285254 -0.268718,-0.286631 -0.268718,-0.781347 0,-0.496093 0.268718,-0.781347 0.268717,-0.286631 0.735871,-0.286631 0.184657,0 0.347266,0.04961 0.163986,0.04823 0.307302,0.146072 z m 0.429951,-0.158474 h 0.278363 v 1.823143 h 1.001833 v 0.234266 h -1.280196 z m 1.572334,0 h 0.278364 v 0.869541 l 0.923285,-0.869541 h 0.358289 l -1.021125,0.959113 1.094161,1.098296 h -0.366558 l -0.988052,-0.990809 v 0.990809 h -0.278364 z"
         id="path4" />
    </g>
    <path
       d="m -94.57919,59.304779 v -1.794204 h 0.988053 v 0.237022 h -0.767567 v 1.557182 z m 3.675225,-2.60449 v 0.293522 q -0.14056,-0.130914 -0.300412,-0.195681 -0.158474,-0.06477 -0.337619,-0.06477 -0.352777,0 -0.540191,0.216352 -0.187413,0.214973 -0.187413,0.622872 0,0.406521 0.187413,0.622873 0.187414,0.214974 0.540191,0.214974 0.179145,0 0.337619,-0.06477 0.159852,-0.06477 0.300412,-0.195681 v 0.290766 q -0.146072,0.09922 -0.310058,0.148828 -0.162609,0.04961 -0.344509,0.04961 -0.467155,0 -0.735872,-0.285254 -0.268717,-0.286631 -0.268717,-0.781347 0,-0.496093 0.268717,-0.781347 0.268717,-0.286631 0.735872,-0.286631 0.184657,0 0.347265,0.04961 0.163986,0.04823 0.307302,0.146072 z m 0.960492,1.898935 -0.785481,-2.057409 h 0.290766 l 0.651811,1.732192 0.65319,-1.732192 h 0.289388 l -0.784104,2.057409 z m 3.132279,-1.868618 q -0.303168,0 -0.482313,0.225998 -0.177767,0.225998 -0.177767,0.615982 0,0.388607 0.177767,0.614605 0.179145,0.225998 0.482313,0.225998 0.303168,0 0.479557,-0.225998 0.177766,-0.225998 0.177766,-0.614605 0,-0.389984 -0.177766,-0.615982 -0.176389,-0.225998 -0.479557,-0.225998 z m 0,-0.225998 q 0.432703,0 0.691774,0.290765 0.259071,0.289388 0.259071,0.777213 0,0.486448 -0.259071,0.777213 -0.259071,0.289388 -0.691774,0.289388 -0.434082,0 -0.694531,-0.289388 -0.259071,-0.289387 -0.259071,-0.777213 0,-0.487825 0.259071,-0.777213 0.260449,-0.290765 0.694531,-0.290765 z m 1.349098,1.485524 v -0.93431 h 0.253559 v 0.924663 q 0,0.219108 0.08544,0.329351 0.08544,0.108865 0.256315,0.108865 0.205327,0 0.323839,-0.130913 0.119889,-0.130914 0.119889,-0.356912 v -0.875054 h 0.253559 v 1.543402 h -0.253559 v -0.237022 q -0.09233,0.140559 -0.214974,0.209461 -0.121267,0.06752 -0.282498,0.06752 -0.265961,0 -0.403765,-0.165364 -0.137803,-0.165365 -0.137803,-0.483691 z m 0.638031,-0.971517 z m 1.427647,-0.401008 v 0.438215 h 0.522276 v 0.19706 h -0.522276 v 0.837846 q 0,0.188791 0.05099,0.242535 0.05237,0.05374 0.21084,0.05374 h 0.260449 v 0.212218 h -0.260449 q -0.293522,0 -0.405143,-0.108865 -0.111621,-0.110243 -0.111621,-0.399631 v -0.837846 h -0.186035 v -0.19706 h 0.186035 v -0.438215 z m 1.101051,1.750107 v 0.818554 h -0.254937 v -2.130446 h 0.254937 v 0.234267 q 0.07993,-0.137804 0.201194,-0.20395 0.122645,-0.06752 0.292143,-0.06752 0.28112,0 0.456131,0.223242 0.176388,0.223243 0.176388,0.587044 0,0.363802 -0.176388,0.587044 -0.175011,0.223242 -0.456131,0.223242 -0.169498,0 -0.292143,-0.06615 -0.121268,-0.06752 -0.201194,-0.205327 z m 0.862651,-0.538813 q 0,-0.279741 -0.115755,-0.438215 -0.114377,-0.159853 -0.31557,-0.159853 -0.201194,0 -0.316949,0.159853 -0.114377,0.158474 -0.114377,0.438215 0,0.279742 0.114377,0.439594 0.115755,0.158474 0.316949,0.158474 0.201193,0 0.31557,-0.158474 0.115755,-0.159852 0.115755,-0.439594 z m 0.657324,0.161231 v -0.93431 h 0.253559 v 0.924663 q 0,0.219108 0.08544,0.329351 0.08544,0.108865 0.256314,0.108865 0.205328,0 0.323839,-0.130913 0.119889,-0.130914 0.119889,-0.356912 v -0.875054 h 0.253559 v 1.543402 h -0.253559 v -0.237022 q -0.09233,0.140559 -0.214973,0.209461 -0.121268,0.06752 -0.282498,0.06752 -0.265961,0 -0.403765,-0.165364 -0.137804,-0.165365 -0.137804,-0.483691 z m 0.638032,-0.971517 z m 1.427645,-0.401008 v 0.438215 h 0.522276 v 0.19706 h -0.522276 v 0.837846 q 0,0.188791 0.05099,0.242535 0.05236,0.05374 0.210839,0.05374 h 0.260449 v 0.212218 h -0.260449 q -0.293521,0 -0.405143,-0.108865 -0.111621,-0.110243 -0.111621,-0.399631 v -0.837846 h -0.186035 v -0.19706 h 0.186035 v -0.438215 z m 1.839682,0.483691 v 0.239778 q -0.107487,-0.05512 -0.223242,-0.08268 -0.115756,-0.02756 -0.239779,-0.02756 -0.188791,0 -0.283876,0.05788 -0.09371,0.05788 -0.09371,0.173632 0,0.0882 0.06752,0.139182 0.06752,0.04961 0.271473,0.09508 l 0.08682,0.01929 q 0.270096,0.05788 0.383095,0.163987 0.114377,0.104731 0.114377,0.293522 0,0.214973 -0.170877,0.340375 -0.169498,0.125401 -0.467154,0.125401 -0.124024,0 -0.259071,-0.02481 -0.13367,-0.02343 -0.282498,-0.07166 v -0.261827 q 0.14056,0.07303 0.276985,0.110242 0.136426,0.03583 0.270096,0.03583 0.179145,0 0.275607,-0.06063 0.09646,-0.06201 0.09646,-0.173633 0,-0.103353 -0.07028,-0.158474 -0.0689,-0.05512 -0.304546,-0.106109 l -0.0882,-0.02067 q -0.235644,-0.04961 -0.340375,-0.151584 -0.104731,-0.103352 -0.104731,-0.282497 0,-0.21773 0.15434,-0.336241 0.154341,-0.118512 0.438216,-0.118512 0.14056,0 0.264583,0.02067 0.124024,0.02067 0.228755,0.06201 z m 1.856216,2.203481 v -1.557182 h -0.766189 v -0.237022 h 0.986675 v 1.794204 z"
       id="text1-9-53-6-6-0"
       style="font-size:2.82222px;stroke-width:0.264583"
       inkscape:label="cv_output_label"
       transform="rotate(-90)"
       aria-label="┌ CV Outputs ┐&#10;" />
    <path
       d="m -114.37076,22.887724 v -1.795582 h 0.22048 v 1.55856 h 0.76757 v 0.237022 z m 3.67522,-1.047308 v 0.293522 q -0.14056,-0.130914 -0.30041,-0.195681 -0.15847,-0.06477 -0.33762,-0.06477 -0.35278,0 -0.54019,0.216352 -0.18741,0.214974 -0.18741,0.622873 0,0.406521 0.18741,0.622872 0.18741,0.214974 0.54019,0.214974 0.17915,0 0.33762,-0.06477 0.15985,-0.06477 0.30041,-0.195681 v 0.290766 q -0.14607,0.09922 -0.31006,0.148828 -0.1626,0.04961 -0.3445,0.04961 -0.46716,0 -0.73588,-0.285253 -0.26871,-0.286632 -0.26871,-0.781347 0,-0.496094 0.26871,-0.781347 0.26872,-0.286632 0.73588,-0.286632 0.18465,0 0.34726,0.04961 0.16399,0.04823 0.3073,0.146072 z m 0.96049,1.898935 -0.78548,-2.057409 h 0.29077 l 0.65181,1.732193 0.65319,-1.732193 h 0.28939 l -0.78411,2.057409 z m 3.13228,-1.868618 q -0.30316,0 -0.48231,0.225998 -0.17777,0.225998 -0.17777,0.615983 0,0.388606 0.17777,0.614604 0.17915,0.225998 0.48231,0.225998 0.30317,0 0.47956,-0.225998 0.17777,-0.225998 0.17777,-0.614604 0,-0.389985 -0.17777,-0.615983 -0.17639,-0.225998 -0.47956,-0.225998 z m 0,-0.225998 q 0.43271,0 0.69178,0.290766 0.25907,0.289387 0.25907,0.777213 0,0.486447 -0.25907,0.777213 -0.25907,0.289387 -0.69178,0.289387 -0.43408,0 -0.69453,-0.289387 -0.25907,-0.289388 -0.25907,-0.777213 0,-0.487826 0.25907,-0.777213 0.26045,-0.290766 0.69453,-0.290766 z m 1.3491,1.485524 V 22.19595 h 0.25356 v 0.924663 q 0,0.219107 0.0854,0.32935 0.0854,0.108865 0.25631,0.108865 0.20533,0 0.32384,-0.130913 0.11989,-0.130914 0.11989,-0.356912 V 22.19595 h 0.25356 v 1.543401 h -0.25356 v -0.237022 q -0.0923,0.14056 -0.21497,0.209462 -0.12127,0.06752 -0.2825,0.06752 -0.26596,0 -0.40377,-0.165364 -0.1378,-0.165365 -0.1378,-0.483691 z m 0.63803,-0.971516 z m 1.42765,-0.401009 v 0.438216 h 0.52228 v 0.197059 h -0.52228 v 0.837847 q 0,0.188791 0.051,0.242534 0.0524,0.05374 0.21084,0.05374 h 0.26045 v 0.212217 h -0.26045 q -0.29353,0 -0.40515,-0.108865 -0.11162,-0.110243 -0.11162,-0.39963 v -0.837847 h -0.18603 V 22.19595 h 0.18603 v -0.438216 z m 1.10105,1.750107 v 0.818554 h -0.25494 V 22.19595 h 0.25494 v 0.234266 q 0.0799,-0.137804 0.20119,-0.20395 0.12265,-0.06752 0.29215,-0.06752 0.28112,0 0.45613,0.223242 0.17639,0.223242 0.17639,0.587044 0,0.363801 -0.17639,0.587043 -0.17501,0.223242 -0.45613,0.223242 -0.1695,0 -0.29215,-0.06614 -0.12126,-0.06752 -0.20119,-0.205328 z m 0.86265,-0.538812 q 0,-0.279742 -0.11575,-0.438216 -0.11438,-0.159853 -0.31557,-0.159853 -0.2012,0 -0.31695,0.159853 -0.11438,0.158474 -0.11438,0.438216 0,0.279741 0.11438,0.439593 0.11575,0.158475 0.31695,0.158475 0.20119,0 0.31557,-0.158475 0.11575,-0.159852 0.11575,-0.439593 z m 0.65733,0.16123 V 22.19595 h 0.25355 v 0.924663 q 0,0.219107 0.0854,0.32935 0.0854,0.108865 0.256318,0.108865 0.205327,0 0.323839,-0.130913 0.119889,-0.130914 0.119889,-0.356912 V 22.19595 h 0.253559 v 1.543401 h -0.253559 v -0.237022 q -0.09233,0.14056 -0.214974,0.209462 -0.121267,0.06752 -0.282502,0.06752 -0.26596,0 -0.40376,-0.165364 -0.1378,-0.165365 -0.1378,-0.483691 z m 0.638027,-0.971516 z m 1.427646,-0.401009 v 0.438216 h 0.522276 v 0.197059 h -0.522276 v 0.837847 q 0,0.188791 0.05099,0.242534 0.05237,0.05374 0.21084,0.05374 h 0.260449 v 0.212217 h -0.260449 q -0.293522,0 -0.405143,-0.108865 -0.111621,-0.110243 -0.111621,-0.39963 v -0.837847 h -0.186035 V 22.19595 h 0.186035 v -0.438216 z m 2.451528,0.198437 -0.377582,1.023882 h 0.756542 z m -0.157096,-0.274229 h 0.31557 l 0.784103,2.057409 h -0.289388 l -0.187413,-0.527788 h -0.927419 l -0.187413,0.527788 h -0.293522 z m 1.590255,0.07579 v 0.438216 h 0.522276 v 0.197059 H -94.6166 v 0.837847 q 0,0.188791 0.05099,0.242534 0.05236,0.05374 0.210839,0.05374 h 0.260449 v 0.212217 h -0.260449 q -0.293522,0 -0.405143,-0.108865 -0.111621,-0.110243 -0.111621,-0.39963 v -0.837847 h -0.186035 V 22.19595 h 0.186035 v -0.438216 z m 1.106564,0 v 0.438216 h 0.522276 v 0.197059 h -0.522276 v 0.837847 q 0,0.188791 0.05099,0.242534 0.05237,0.05374 0.21084,0.05374 h 0.260449 v 0.212217 h -0.260449 q -0.293522,0 -0.405143,-0.108865 -0.111621,-0.110243 -0.111621,-0.39963 v -0.837847 h -0.186035 V 22.19595 h 0.186035 v -0.438216 z m 2.17592,1.146527 v 0.124023 h -1.165819 q 0.01654,0.261827 0.157096,0.399631 0.141938,0.136426 0.394119,0.136426 0.146072,0 0.282497,-0.03583 0.137804,-0.03583 0.272852,-0.107487 v 0.239778 q -0.136426,0.05788 -0.279742,0.08819 -0.143316,0.03032 -0.290766,0.03032 -0.369314,0 -0.585666,-0.214973 -0.214973,-0.214974 -0.214973,-0.581532 0,-0.37896 0.203949,-0.600824 0.205328,-0.223242 0.552593,-0.223242 0.311436,0 0.491959,0.201193 0.181901,0.199815 0.181901,0.544325 z m -0.253559,-0.07441 q -0.0028,-0.208084 -0.117133,-0.332107 -0.112999,-0.124024 -0.300412,-0.124024 -0.212218,0 -0.340375,0.11989 -0.12678,0.119889 -0.146072,0.337619 z m 1.95268,-0.02205 v 0.931553 h -0.253559 v -0.923285 q 0,-0.219108 -0.08544,-0.327972 -0.08544,-0.108865 -0.256315,-0.108865 -0.205327,0 -0.323838,0.130913 -0.118512,0.130914 -0.118512,0.356912 v 0.872297 h -0.254937 V 22.19595 h 0.254937 v 0.239778 q 0.09095,-0.139182 0.213596,-0.208083 0.124023,-0.0689 0.285254,-0.0689 0.265961,0 0.402387,0.165364 0.136425,0.163987 0.136425,0.483691 z m 0.479556,0.322461 V 22.19595 h 0.253558 v 0.924663 q 0,0.219107 0.08544,0.32935 0.08544,0.108865 0.256315,0.108865 0.205327,0 0.323838,-0.130913 0.11989,-0.130914 0.11989,-0.356912 V 22.19595 h 0.253558 v 1.543401 h -0.253558 v -0.237022 q -0.09233,0.14056 -0.214974,0.209462 -0.121267,0.06752 -0.282498,0.06752 -0.265961,0 -0.403765,-0.165364 -0.137803,-0.165365 -0.137803,-0.483691 z m 0.638031,-0.971516 z m 1.878265,0.804773 q -0.307303,0 -0.425814,0.07028 -0.118511,0.07028 -0.118511,0.239779 0,0.135047 0.08819,0.214974 0.08957,0.07855 0.242535,0.07855 0.21084,0 0.337619,-0.148828 0.128157,-0.150206 0.128157,-0.398253 v -0.0565 z m 0.505739,-0.10473 v 0.880565 h -0.253559 v -0.234266 q -0.08682,0.14056 -0.216351,0.208084 -0.129536,0.06614 -0.316949,0.06614 -0.237022,0 -0.377582,-0.132291 -0.139182,-0.13367 -0.139182,-0.356912 0,-0.260449 0.173633,-0.39274 0.175011,-0.132292 0.520898,-0.132292 h 0.355533 v -0.02481 q 0,-0.17501 -0.115755,-0.270095 -0.114377,-0.09646 -0.32246,-0.09646 -0.132292,0 -0.257693,0.03169 -0.125402,0.03169 -0.241157,0.09508 V 22.26623 q 0.139182,-0.05374 0.270095,-0.07993 0.130914,-0.02756 0.254937,-0.02756 0.334863,0 0.500228,0.173632 0.165364,0.173633 0.165364,0.526411 z m 0.773079,-1.101052 v 0.438216 h 0.522276 v 0.197059 h -0.522276 v 0.837847 q 0,0.188791 0.05099,0.242534 0.05236,0.05374 0.210839,0.05374 h 0.260449 v 0.212217 h -0.260449 q -0.293521,0 -0.405142,-0.108865 -0.111621,-0.110243 -0.111621,-0.39963 v -0.837847 h -0.186036 V 22.19595 h 0.186036 v -0.438216 z m 1.453829,0.615982 q -0.203949,0 -0.32246,0.159853 -0.118512,0.158474 -0.118512,0.43546 0,0.276985 0.117134,0.436837 0.118511,0.158475 0.323838,0.158475 0.202572,0 0.321083,-0.159853 0.118511,-0.159852 0.118511,-0.435459 0,-0.27423 -0.118511,-0.434082 -0.118511,-0.161231 -0.321083,-0.161231 z m 0,-0.214973 q 0.330729,0 0.51952,0.214973 0.188791,0.214974 0.188791,0.595313 0,0.37896 -0.188791,0.595312 -0.188791,0.214973 -0.51952,0.214973 -0.332107,0 -0.520898,-0.214973 -0.187413,-0.216352 -0.187413,-0.595312 0,-0.380339 0.187413,-0.595313 0.188791,-0.214973 0.520898,-0.214973 z m 2.022961,0.274229 q -0.04272,-0.02481 -0.09371,-0.03583 -0.04961,-0.0124 -0.110243,-0.0124 -0.214973,0 -0.330728,0.14056 -0.114378,0.139181 -0.114378,0.401008 v 0.813042 h -0.254936 V 22.19595 h 0.254936 v 0.239778 q 0.07993,-0.14056 0.208084,-0.208083 0.128158,-0.0689 0.311436,-0.0689 0.02618,0 0.05788,0.0041 0.03169,0.0028 0.07028,0.0096 z m 1.249877,-0.191547 v 0.239778 q -0.107486,-0.05512 -0.223242,-0.08268 -0.115755,-0.02756 -0.239778,-0.02756 -0.188791,0 -0.283876,0.05788 -0.09371,0.05788 -0.09371,0.173633 0,0.08819 0.06752,0.139181 0.06752,0.04961 0.271473,0.09509 l 0.08682,0.01929 q 0.270096,0.05788 0.383095,0.163987 0.114377,0.104731 0.114377,0.293522 0,0.214974 -0.170877,0.340375 -0.169499,0.125401 -0.467155,0.125401 -0.124023,0 -0.259071,-0.0248 -0.133669,-0.02343 -0.282497,-0.07166 v -0.261827 q 0.14056,0.07304 0.276985,0.110243 0.136426,0.03583 0.270096,0.03583 0.179144,0 0.275607,-0.06063 0.09646,-0.06201 0.09646,-0.173633 0,-0.103352 -0.07028,-0.158474 -0.0689,-0.05512 -0.304546,-0.106109 l -0.08819,-0.02067 q -0.235644,-0.04961 -0.340375,-0.151584 -0.104731,-0.103353 -0.104731,-0.282498 0,-0.21773 0.15434,-0.336241 0.15434,-0.118511 0.438216,-0.118511 0.14056,0 0.264583,0.02067 0.124024,0.02067 0.228754,0.06201 z m 1.09003,0.646299 v -0.237022 h 0.766188 v -1.55856 h 0.220486 v 1.795582 z"
       id="text1-9-53-6-7"
       style="font-size:2.82222px;stroke-width:0.264583"
       inkscape:label="knob_label"
       transform="rotate(-90)"
       aria-label="└ CV Output Attenuators ┘&#10;" />
    <path
       d="m -89.119359,30.541622 v -1.794204 h 0.988053 v 0.237022 h -0.767567 v 1.557182 z m 3.367923,-2.69544 v 0.271473 q -0.158474,-0.07579 -0.299034,-0.112999 -0.14056,-0.03721 -0.271473,-0.03721 -0.227376,0 -0.3514,0.08819 -0.122645,0.08819 -0.122645,0.250803 0,0.136426 0.0813,0.206706 0.08268,0.0689 0.311437,0.111621 l 0.16812,0.03445 q 0.311437,0.05926 0.458887,0.209462 0.148828,0.148828 0.148828,0.399631 0,0.299034 -0.201194,0.453374 -0.199815,0.15434 -0.587044,0.15434 -0.146072,0 -0.311436,-0.03307 -0.163987,-0.03307 -0.340375,-0.09784 v -0.286632 q 0.169498,0.09509 0.332107,0.143316 0.162608,0.04823 0.319704,0.04823 0.238401,0 0.367936,-0.09371 0.129536,-0.09371 0.129536,-0.26734 0,-0.151584 -0.09371,-0.237022 -0.09233,-0.08544 -0.304546,-0.128157 l -0.169499,-0.03307 q -0.311436,-0.06201 -0.450618,-0.194304 -0.139182,-0.132291 -0.139182,-0.367935 0,-0.272852 0.191548,-0.429948 0.192925,-0.157096 0.530544,-0.157096 0.144694,0 0.2949,0.02618 0.150206,0.02618 0.307302,0.07855 z m 1.867241,1.154795 V 29.125 h -1.16582 q 0.01654,0.261827 0.157097,0.399631 0.141937,0.136425 0.394118,0.136425 0.146072,0 0.282498,-0.03583 0.137804,-0.03583 0.272851,-0.107487 v 0.239778 q -0.136425,0.05788 -0.279741,0.08819 -0.143316,0.03032 -0.290766,0.03032 -0.369314,0 -0.585666,-0.214974 -0.214974,-0.214973 -0.214974,-0.581531 0,-0.37896 0.20395,-0.600824 0.205327,-0.223242 0.552593,-0.223242 0.311436,0 0.491959,0.201193 0.181901,0.199815 0.181901,0.544325 z m -0.253559,-0.07441 q -0.0028,-0.208084 -0.117133,-0.332107 -0.112999,-0.124024 -0.300412,-0.124024 -0.212218,0 -0.340375,0.11989 -0.12678,0.119889 -0.146072,0.337619 z m 0.669726,-1.234722 h 0.253559 v 2.144226 h -0.253559 z m 2.104262,1.309136 V 29.125 h -1.165819 q 0.01654,0.261827 0.157096,0.399631 0.141938,0.136425 0.394119,0.136425 0.146072,0 0.282497,-0.03583 0.137804,-0.03583 0.272852,-0.107487 v 0.239778 q -0.136426,0.05788 -0.279742,0.08819 -0.143316,0.03032 -0.290766,0.03032 -0.369313,0 -0.585665,-0.214974 -0.214974,-0.214973 -0.214974,-0.581531 0,-0.37896 0.203949,-0.600824 0.205328,-0.223242 0.552593,-0.223242 0.311437,0 0.49196,0.201193 0.1819,0.199815 0.1819,0.544325 z m -0.253558,-0.07441 q -0.0028,-0.208084 -0.117134,-0.332107 -0.112999,-0.124024 -0.300412,-0.124024 -0.212217,0 -0.340375,0.11989 -0.126779,0.119889 -0.146072,0.337619 z m 1.780424,-0.574642 v 0.237023 q -0.107487,-0.05926 -0.216352,-0.0882 -0.107487,-0.03032 -0.21773,-0.03032 -0.246668,0 -0.383094,0.157097 -0.136426,0.155718 -0.136426,0.438215 0,0.282498 0.136426,0.439594 0.136426,0.155718 0.383094,0.155718 0.110243,0 0.21773,-0.02894 0.108865,-0.03032 0.216352,-0.08957 v 0.234267 q -0.106109,0.04961 -0.220486,0.07441 -0.112999,0.0248 -0.241156,0.0248 -0.348644,0 -0.553971,-0.219108 -0.205328,-0.219108 -0.205328,-0.591178 0,-0.377582 0.206706,-0.593934 0.208083,-0.216351 0.569129,-0.216351 0.117133,0 0.228754,0.0248 0.111621,0.02343 0.216352,0.07166 z m 0.691775,-0.497471 v 0.438216 h 0.522276 v 0.197059 h -0.522276 v 0.837846 q 0,0.188792 0.05099,0.242535 0.05237,0.05374 0.21084,0.05374 h 0.260449 v 0.212218 h -0.260449 q -0.293522,0 -0.405143,-0.108865 -0.111621,-0.110243 -0.111621,-0.399631 v -0.837846 h -0.186035 v -0.197059 h 0.186035 V 27.85445 Z m 2.17592,1.146527 V 29.125 h -1.165819 q 0.01654,0.261827 0.157096,0.399631 0.141938,0.136425 0.394119,0.136425 0.146072,0 0.282497,-0.03583 0.137804,-0.03583 0.272852,-0.107487 v 0.239778 q -0.136426,0.05788 -0.279742,0.08819 -0.143316,0.03032 -0.290766,0.03032 -0.369314,0 -0.585666,-0.214974 -0.214973,-0.214973 -0.214973,-0.581531 0,-0.37896 0.203949,-0.600824 0.205328,-0.223242 0.552593,-0.223242 0.311436,0 0.491959,0.201193 0.181901,0.199815 0.181901,0.544325 z m -0.253559,-0.07441 q -0.0028,-0.208084 -0.117133,-0.332107 -0.112999,-0.124024 -0.300412,-0.124024 -0.212218,0 -0.340375,0.11989 -0.126779,0.119889 -0.146072,0.337619 z m 1.685339,-0.399631 v -0.835091 h 0.253559 v 2.144226 h -0.253559 v -0.23151 q -0.07993,0.137804 -0.202571,0.205327 -0.121267,0.06615 -0.292144,0.06615 -0.279742,0 -0.45613,-0.223242 -0.175011,-0.223242 -0.175011,-0.587044 0,-0.363801 0.175011,-0.587043 0.176388,-0.223242 0.45613,-0.223242 0.170877,0 0.292144,0.06752 0.122645,0.06615 0.202571,0.20395 z m -0.864029,0.538812 q 0,0.279742 0.114377,0.439594 0.115755,0.158475 0.316949,0.158475 0.201193,0 0.316948,-0.158475 0.115755,-0.159852 0.115755,-0.439594 0,-0.279741 -0.115755,-0.438215 -0.115755,-0.159853 -0.316948,-0.159853 -0.201194,0 -0.316949,0.159853 -0.114377,0.158474 -0.114377,0.438215 z m 3.55258,-0.538812 v -0.835091 h 0.253559 v 2.144226 h -0.253559 v -0.23151 q -0.07993,0.137804 -0.202571,0.205327 -0.121268,0.06615 -0.292144,0.06615 -0.279742,0 -0.45613,-0.223242 -0.175011,-0.223242 -0.175011,-0.587044 0,-0.363801 0.175011,-0.587043 0.176388,-0.223242 0.45613,-0.223242 0.170876,0 0.292144,0.06752 0.122645,0.06615 0.202571,0.20395 z m -0.864029,0.538812 q 0,0.279742 0.114377,0.439594 0.115755,0.158475 0.316949,0.158475 0.201193,0 0.316948,-0.158475 0.115755,-0.159852 0.115755,-0.439594 0,-0.279741 -0.115755,-0.438215 -0.115755,-0.159853 -0.316948,-0.159853 -0.201194,0 -0.316949,0.159853 -0.114377,0.158474 -0.114377,0.438215 z m 2.960023,-0.06477 V 29.125 h -1.165819 q 0.01654,0.261827 0.157096,0.399631 0.141938,0.136425 0.394118,0.136425 0.146072,0 0.282498,-0.03583 0.137804,-0.03583 0.272851,-0.107487 v 0.239778 q -0.136425,0.05788 -0.279741,0.08819 -0.143316,0.03032 -0.290766,0.03032 -0.369314,0 -0.585666,-0.214974 -0.214974,-0.214973 -0.214974,-0.581531 0,-0.37896 0.20395,-0.600824 0.205328,-0.223242 0.552593,-0.223242 0.311436,0 0.491959,0.201193 0.181901,0.199815 0.181901,0.544325 z m -0.253559,-0.07441 q -0.0028,-0.208084 -0.117133,-0.332107 -0.112999,-0.124024 -0.300412,-0.124024 -0.212218,0 -0.340375,0.11989 -0.12678,0.119889 -0.146072,0.337619 z m 1.653646,-0.588422 v 0.239778 q -0.107487,-0.05512 -0.223242,-0.08268 -0.115755,-0.02756 -0.239778,-0.02756 -0.188791,0 -0.283876,0.05788 -0.09371,0.05788 -0.09371,0.173633 0,0.08819 0.06752,0.139181 0.06752,0.04961 0.271474,0.09509 l 0.08682,0.01929 q 0.270095,0.05788 0.383094,0.163987 0.114377,0.104731 0.114377,0.293522 0,0.214974 -0.170876,0.340375 -0.169499,0.125401 -0.467155,0.125401 -0.124023,0 -0.259071,-0.0248 -0.133669,-0.02343 -0.282497,-0.07166 v -0.261827 q 0.140559,0.07304 0.276985,0.110243 0.136426,0.03583 0.270095,0.03583 0.179145,0 0.275608,-0.06063 0.09646,-0.06201 0.09646,-0.173633 0,-0.103353 -0.07028,-0.158474 -0.0689,-0.05512 -0.304546,-0.106109 l -0.08819,-0.02067 q -0.235645,-0.04961 -0.340375,-0.151585 -0.104731,-0.103352 -0.104731,-0.282497 0,-0.21773 0.15434,-0.336241 0.15434,-0.118511 0.438216,-0.118511 0.14056,0 0.264583,0.02067 0.124023,0.02067 0.228754,0.06201 z m 0.73725,-0.483691 v 0.438216 h 0.522276 v 0.197059 h -0.522276 v 0.837846 q 0,0.188792 0.05099,0.242535 0.05237,0.05374 0.21084,0.05374 h 0.260449 v 0.212218 h -0.260449 q -0.293522,0 -0.405143,-0.108865 -0.111621,-0.110243 -0.111621,-0.399631 v -0.837846 h -0.186035 v -0.197059 h 0.186035 V 27.85445 Z m 0.855761,0.438216 h 0.253559 v 1.543401 h -0.253559 z m 0,-0.600825 h 0.253559 v 0.321083 h -0.253559 z m 2.067056,1.212673 v 0.931553 h -0.253559 v -0.923285 q 0,-0.219108 -0.08544,-0.327973 -0.08544,-0.108864 -0.256315,-0.108864 -0.205328,0 -0.323839,0.130913 -0.118511,0.130914 -0.118511,0.356912 v 0.872297 h -0.254937 v -1.543401 h 0.254937 v 0.239778 q 0.09095,-0.139182 0.213595,-0.208084 0.124024,-0.0689 0.285254,-0.0689 0.265961,0 0.402387,0.165364 0.136426,0.163986 0.136426,0.483691 z m 1.20716,0.155718 q -0.307302,0 -0.425813,0.07028 -0.118511,0.07028 -0.118511,0.239779 0,0.135047 0.08819,0.214973 0.08957,0.07855 0.242535,0.07855 0.210839,0 0.337619,-0.148828 0.128157,-0.150207 0.128157,-0.398253 v -0.0565 z m 0.50574,-0.104731 v 0.880566 h -0.253559 v -0.234266 q -0.08682,0.14056 -0.216352,0.208083 -0.129535,0.06615 -0.316948,0.06615 -0.237023,0 -0.377582,-0.132291 -0.139182,-0.13367 -0.139182,-0.356912 0,-0.260449 0.173633,-0.392741 0.17501,-0.132291 0.520898,-0.132291 h 0.355533 v -0.02481 q 0,-0.17501 -0.115755,-0.270095 -0.114377,-0.09646 -0.322461,-0.09646 -0.132291,0 -0.257692,0.0317 -0.125402,0.03169 -0.241157,0.09508 v -0.234267 q 0.139182,-0.05374 0.270095,-0.07993 0.130914,-0.02756 0.254937,-0.02756 0.334863,0 0.500228,0.173632 0.165364,0.173633 0.165364,0.52641 z m 0.773079,-1.101051 v 0.438216 h 0.522276 v 0.197059 h -0.522276 v 0.837846 q 0,0.188792 0.05099,0.242535 0.05237,0.05374 0.210839,0.05374 h 0.260449 v 0.212218 h -0.260449 q -0.293522,0 -0.405143,-0.108865 -0.111621,-0.110243 -0.111621,-0.399631 v -0.837846 h -0.186035 v -0.197059 h 0.186035 V 27.85445 Z m 0.855761,0.438216 h 0.253559 v 1.543401 h -0.253559 z m 0,-0.600825 h 0.253559 v 0.321083 h -0.253559 z m 1.382172,0.778591 q -0.20395,0 -0.322461,0.159853 -0.118511,0.158474 -0.118511,0.435459 0,0.276986 0.117133,0.436838 0.118511,0.158474 0.323839,0.158474 0.202571,0 0.321082,-0.159852 0.118511,-0.159852 0.118511,-0.43546 0,-0.274229 -0.118511,-0.434081 -0.118511,-0.161231 -0.321082,-0.161231 z m 0,-0.214973 q 0.330728,0 0.51952,0.214973 0.188791,0.214974 0.188791,0.595312 0,0.378961 -0.188791,0.595312 -0.188792,0.214974 -0.51952,0.214974 -0.332107,0 -0.520899,-0.214974 -0.187413,-0.216351 -0.187413,-0.595312 0,-0.380338 0.187413,-0.595312 0.188792,-0.214973 0.520899,-0.214973 z m 2.411563,0.649055 v 0.931553 h -0.253559 v -0.923285 q 0,-0.219108 -0.08544,-0.327973 -0.08544,-0.108864 -0.256315,-0.108864 -0.205328,0 -0.323839,0.130913 -0.118511,0.130914 -0.118511,0.356912 v 0.872297 h -0.254937 v -1.543401 h 0.254937 v 0.239778 q 0.09095,-0.139182 0.213596,-0.208084 0.124023,-0.0689 0.285253,-0.0689 0.265961,0 0.402387,0.165364 0.136426,0.163986 0.136426,0.483691 z m 2.418457,0.141938 q 0,-0.275608 -0.114377,-0.427192 -0.112999,-0.151584 -0.318326,-0.151584 -0.20395,0 -0.318327,0.151584 -0.112999,0.151584 -0.112999,0.427192 0,0.274229 0.112999,0.425813 0.114377,0.151584 0.318327,0.151584 0.205327,0 0.318326,-0.151584 0.114377,-0.151584 0.114377,-0.425813 z m 0.253559,0.598068 q 0,0.394119 -0.175011,0.585666 -0.17501,0.192925 -0.536056,0.192925 -0.13367,0 -0.252181,-0.02067 -0.118511,-0.01929 -0.230132,-0.06063 v -0.246669 q 0.111621,0.06063 0.220486,0.08957 0.108865,0.02894 0.221864,0.02894 0.249425,0 0.373448,-0.130913 0.124023,-0.129536 0.124023,-0.392741 v -0.125401 q -0.07855,0.136426 -0.201193,0.203949 -0.122645,0.06752 -0.293522,0.06752 -0.283876,0 -0.457508,-0.216352 -0.173633,-0.216351 -0.173633,-0.573263 0,-0.35829 0.173633,-0.574642 0.173632,-0.216351 0.457508,-0.216351 0.170877,0 0.293522,0.06752 0.122645,0.06752 0.201193,0.20395 v -0.234266 h 0.253559 z m 1.223696,-0.584288 q -0.307303,0 -0.425814,0.07028 -0.118511,0.07028 -0.118511,0.239779 0,0.135047 0.08819,0.214973 0.08957,0.07855 0.242535,0.07855 0.210839,0 0.337619,-0.148828 0.128157,-0.150207 0.128157,-0.398253 v -0.0565 z m 0.505739,-0.104731 v 0.880566 h -0.253559 v -0.234266 q -0.08682,0.14056 -0.216351,0.208083 -0.129536,0.06615 -0.316949,0.06615 -0.237022,0 -0.377582,-0.132291 -0.139182,-0.13367 -0.139182,-0.356912 0,-0.260449 0.173633,-0.392741 0.17501,-0.132291 0.520898,-0.132291 h 0.355533 v -0.02481 q 0,-0.17501 -0.115755,-0.270095 -0.114377,-0.09646 -0.32246,-0.09646 -0.132292,0 -0.257693,0.0317 -0.125402,0.03169 -0.241157,0.09508 v -0.234267 q 0.139182,-0.05374 0.270095,-0.07993 0.130914,-0.02756 0.254937,-0.02756 0.334863,0 0.500228,0.173632 0.165364,0.173633 0.165364,0.52641 z m 0.773077,-1.101051 v 0.438216 h 0.522276 v 0.197059 h -0.522276 v 0.837846 q 0,0.188792 0.05099,0.242535 0.05237,0.05374 0.210839,0.05374 h 0.260449 v 0.212218 h -0.260449 q -0.293521,0 -0.405142,-0.108865 -0.111621,-0.110243 -0.111621,-0.399631 v -0.837846 h -0.186035 v -0.197059 h 0.186035 V 27.85445 Z m 2.175925,1.146527 V 29.125 h -1.16582 q 0.01654,0.261827 0.157096,0.399631 0.141938,0.136425 0.394119,0.136425 0.146072,0 0.282498,-0.03583 0.137803,-0.03583 0.272851,-0.107487 v 0.239778 q -0.136426,0.05788 -0.279742,0.08819 -0.143315,0.03032 -0.290765,0.03032 -0.369314,0 -0.585666,-0.214974 -0.214974,-0.214973 -0.214974,-0.581531 0,-0.37896 0.20395,-0.600824 0.205327,-0.223242 0.552592,-0.223242 0.311437,0 0.49196,0.201193 0.181901,0.199815 0.181901,0.544325 z m -0.253559,-0.07441 q -0.0028,-0.208084 -0.117133,-0.332107 -0.112999,-0.124024 -0.300412,-0.124024 -0.212218,0 -0.340376,0.11989 -0.126779,0.119889 -0.146072,0.337619 z m 2.164894,-0.456131 q -0.20395,0 -0.322461,0.159853 -0.118511,0.158474 -0.118511,0.435459 0,0.276986 0.117133,0.436838 0.118511,0.158474 0.323839,0.158474 0.202571,0 0.321082,-0.159852 0.118512,-0.159852 0.118512,-0.43546 0,-0.274229 -0.118512,-0.434081 -0.118511,-0.161231 -0.321082,-0.161231 z m 0,-0.214973 q 0.330729,0 0.51952,0.214973 0.188791,0.214974 0.188791,0.595312 0,0.378961 -0.188791,0.595312 -0.188791,0.214974 -0.51952,0.214974 -0.332107,0 -0.520898,-0.214974 -0.187413,-0.216351 -0.187413,-0.595312 0,-0.380338 0.187413,-0.595312 0.188791,-0.214973 0.520898,-0.214973 z m 1.10243,0.971516 v -0.934309 h 0.253559 v 0.924663 q 0,0.219107 0.08544,0.32935 0.08544,0.108865 0.256315,0.108865 0.205327,0 0.323839,-0.130913 0.119889,-0.130914 0.119889,-0.356912 v -0.875053 h 0.253559 v 1.543401 h -0.253559 v -0.237022 q -0.09233,0.14056 -0.214974,0.209461 -0.121267,0.06752 -0.282498,0.06752 -0.265961,0 -0.403765,-0.165364 -0.137803,-0.165365 -0.137803,-0.483691 z m 0.638031,-0.971516 z m 1.427647,-0.401009 v 0.438216 h 0.522276 v 0.197059 h -0.522276 v 0.837846 q 0,0.188792 0.05099,0.242535 0.05237,0.05374 0.21084,0.05374 h 0.260449 v 0.212218 h -0.260449 q -0.293522,0 -0.405143,-0.108865 -0.111621,-0.110243 -0.111621,-0.399631 v -0.837846 h -0.186035 v -0.197059 h 0.186035 V 27.85445 Z m 1.101051,1.750107 v 0.818554 h -0.254937 v -2.130445 h 0.254937 v 0.234266 q 0.07993,-0.137804 0.201194,-0.20395 0.122645,-0.06752 0.292143,-0.06752 0.28112,0 0.456131,0.223242 0.176388,0.223242 0.176388,0.587043 0,0.363802 -0.176388,0.587044 -0.175011,0.223242 -0.456131,0.223242 -0.169498,0 -0.292143,-0.06615 -0.121268,-0.06752 -0.201194,-0.205327 z m 0.862651,-0.538813 q 0,-0.279741 -0.115755,-0.438215 -0.114377,-0.159853 -0.31557,-0.159853 -0.201194,0 -0.316949,0.159853 -0.114377,0.158474 -0.114377,0.438215 0,0.279742 0.114377,0.439594 0.115755,0.158475 0.316949,0.158475 0.201193,0 0.31557,-0.158475 0.115755,-0.159852 0.115755,-0.439594 z m 0.657322,0.161231 v -0.934309 h 0.253559 v 0.924663 q 0,0.219107 0.08544,0.32935 0.08544,0.108865 0.256315,0.108865 0.205327,0 0.323838,-0.130913 0.119889,-0.130914 0.119889,-0.356912 v -0.875053 h 0.253559 v 1.543401 h -0.253559 v -0.237022 q -0.09233,0.14056 -0.214973,0.209461 -0.121268,0.06752 -0.282498,0.06752 -0.265961,0 -0.403765,-0.165364 -0.137804,-0.165365 -0.137804,-0.483691 z m 0.638032,-0.971516 z m 1.427646,-0.401009 v 0.438216 h 0.522276 v 0.197059 h -0.522276 v 0.837846 q 0,0.188792 0.05099,0.242535 0.05237,0.05374 0.210839,0.05374 h 0.260449 v 0.212218 h -0.260449 q -0.293521,0 -0.405142,-0.108865 -0.111621,-0.110243 -0.111621,-0.399631 v -0.837846 h -0.186035 v -0.197059 h 0.186035 V 27.85445 Z m 1.83968,0.483691 v 0.239778 q -0.107487,-0.05512 -0.223242,-0.08268 -0.115755,-0.02756 -0.239779,-0.02756 -0.188791,0 -0.283875,0.05788 -0.09371,0.05788 -0.09371,0.173633 0,0.08819 0.06752,0.139181 0.06752,0.04961 0.271473,0.09509 l 0.08682,0.01929 q 0.270095,0.05788 0.383094,0.163987 0.114377,0.104731 0.114377,0.293522 0,0.214974 -0.170877,0.340375 -0.169498,0.125401 -0.467154,0.125401 -0.124024,0 -0.259071,-0.0248 -0.13367,-0.02343 -0.282498,-0.07166 v -0.261827 q 0.14056,0.07304 0.276986,0.110243 0.136425,0.03583 0.270095,0.03583 0.179145,0 0.275607,-0.06063 0.09646,-0.06201 0.09646,-0.173633 0,-0.103353 -0.07028,-0.158474 -0.0689,-0.05512 -0.304546,-0.106109 l -0.08819,-0.02067 q -0.235644,-0.04961 -0.340375,-0.151585 -0.104731,-0.103352 -0.104731,-0.282497 0,-0.21773 0.154341,-0.336241 0.15434,-0.118511 0.438215,-0.118511 0.14056,0 0.264584,0.02067 0.124023,0.02067 0.228754,0.06201 z m 1.856218,2.203481 V 28.98444 h -0.766189 v -0.237022 h 0.986675 v 1.794204 z"
       id="text1-9-53-6-0-2"
       style="font-size:2.82222px;stroke-width:0.264583"
       inkscape:label="gate_label"
       transform="rotate(-90)"
       aria-label="┌ Selected destination gate outputs ┐" />
    <path
       d="m 24.446323,2.9595326 v 0.4750788 q -0.27733,-0.1326362 -0.52331,-0.1977486 -0.24598,-0.065112 -0.475079,-0.065112 -0.397908,0 -0.614949,0.1543403 -0.21463,0.1543403 -0.21463,0.4389053 0,0.2387452 0.142283,0.3617351 0.144694,0.1205784 0.545014,0.195337 l 0.294211,0.060289 q 0.545014,0.1036974 0.803052,0.3665583 0.260449,0.2604493 0.260449,0.6993545 0,0.5233101 -0.352088,0.7934057 -0.349678,0.2700955 -1.027328,0.2700955 -0.255626,0 -0.545014,-0.057878 -0.286977,-0.057878 -0.595657,-0.1712213 v -0.501606 q 0.296622,0.1663982 0.581187,0.250803 0.284565,0.084405 0.559484,0.084405 0.417201,0 0.643888,-0.1639866 0.226688,-0.1639866 0.226688,-0.4678441 0,-0.2652724 -0.163987,-0.4147896 Q 23.828962,4.9201369 23.457581,4.8453783 L 23.160958,4.7875007 Q 22.615944,4.6789801 22.372375,4.4474697 22.128807,4.2159592 22.128807,3.8035812 q 0,-0.4774904 0.335208,-0.752409 0.337619,-0.2749187 0.928453,-0.2749187 0.253215,0 0.516076,0.04582 0.262861,0.04582 0.537779,0.1374593 z m 3.202562,1.8520837 V 6.4418359 H 27.205157 V 4.8260857 q 0,-0.3834392 -0.149518,-0.573953 -0.149517,-0.1905138 -0.448551,-0.1905138 -0.359324,0 -0.566719,0.2290989 -0.207394,0.2290989 -0.207394,0.6245959 v 1.5265222 h -0.44614 V 2.689437 h 0.44614 v 1.4710561 q 0.159163,-0.2435683 0.373793,-0.3641466 0.217041,-0.1205784 0.499194,-0.1205784 0.465433,0 0.704178,0.2893881 0.238745,0.2869765 0.238745,0.8464601 z M 28.53393,3.7408804 h 0.443729 V 6.4418359 H 28.53393 Z m 0,-1.0514434 h 0.443729 V 3.2513322 H 28.53393 Z m 2.739541,0 v 0.3689699 h -0.424436 q -0.238745,0 -0.332796,0.096463 -0.09164,0.096463 -0.09164,0.3472657 v 0.2387451 h 0.730705 v 0.3448542 h -0.730705 v 2.3561013 h -0.44614 V 4.0857346 H 29.554023 V 3.7408804 h 0.424436 V 3.5527782 q 0,-0.4509631 0.209806,-0.6559464 0.209807,-0.2073948 0.665593,-0.2073948 z m 0.72347,0.284565 v 0.7668784 h 0.913984 v 0.3448542 h -0.913984 v 1.4662329 q 0,0.3303847 0.08923,0.4244359 0.09164,0.094051 0.36897,0.094051 h 0.455786 v 0.3713814 h -0.455786 q -0.513664,0 -0.709001,-0.1905138 Q 31.550801,6.0583967 31.550801,5.5519675 V 4.0857346 H 31.22524 V 3.7408804 h 0.325561 V 2.974002 Z m 5.782938,0.144694 V 3.6323599 Q 37.533899,3.403261 37.254158,3.2899173 36.976827,3.1765737 36.663324,3.1765737 q -0.617362,0 -0.945335,0.378616 -0.327973,0.3762045 -0.327973,1.0900285 0,0.7114124 0.327973,1.0900284 0.327973,0.3762046 0.945335,0.3762046 0.313503,0 0.590834,-0.1133437 0.279741,-0.1133437 0.525721,-0.3424426 v 0.5088407 q -0.255626,0.1736329 -0.542602,0.2604493 -0.284565,0.086816 -0.602892,0.086816 -0.817522,0 -1.287777,-0.4991944 -0.470256,-0.501606 -0.470256,-1.3673587 0,-0.8681643 0.470256,-1.3673587 0.470255,-0.501606 1.287777,-0.501606 0.32315,0 0.607715,0.086816 0.286976,0.084405 0.537779,0.2556261 z m 1.779737,0.9332766 q -0.356912,0 -0.564306,0.2797418 -0.207395,0.2773303 -0.207395,0.7620553 0,0.4847251 0.204983,0.7644669 0.207395,0.2773302 0.566718,0.2773302 0.354501,0 0.561895,-0.2797418 0.207395,-0.2797418 0.207395,-0.7620553 0,-0.4799019 -0.207395,-0.7596437 -0.207394,-0.2821534 -0.561895,-0.2821534 z m 0,-0.3762045 q 0.578776,0 0.909161,0.3762045 0.330385,0.3762045 0.330385,1.0417971 0,0.663181 -0.330385,1.0417971 -0.330385,0.3762045 -0.909161,0.3762045 -0.581187,0 -0.911572,-0.3762045 -0.327973,-0.3786161 -0.327973,-1.0417971 0,-0.6655926 0.327973,-1.0417971 0.330385,-0.3762045 0.911572,-0.3762045 z m 4.077961,0.5835993 q 0.166398,-0.2990343 0.397909,-0.4413168 0.23151,-0.1422825 0.545014,-0.1422825 0.422024,0 0.651123,0.2966228 0.229099,0.2942112 0.229099,0.8392254 v 1.6302196 h -0.44614 V 4.8260857 q 0,-0.3882623 -0.137459,-0.5763646 -0.13746,-0.1881022 -0.419613,-0.1881022 -0.344854,0 -0.545014,0.2290989 -0.20016,0.2290989 -0.20016,0.6245959 v 1.5265222 h -0.44614 V 4.8260857 q 0,-0.3906739 -0.13746,-0.5763646 -0.137459,-0.1881022 -0.424436,-0.1881022 -0.340031,0 -0.540191,0.2315105 -0.20016,0.2290989 -0.20016,0.6221843 v 1.5265222 h -0.44614 V 3.7408804 h 0.44614 v 0.4196127 q 0.151929,-0.2483914 0.364147,-0.3665582 0.212218,-0.1181668 0.504017,-0.1181668 0.294212,0 0.499195,0.1495172 0.207395,0.1495172 0.306269,0.4340821 z m 3.137449,1.7773252 v 1.432471 h -0.44614 V 3.7408804 h 0.44614 v 0.4099665 q 0.139871,-0.2411568 0.352089,-0.356912 0.21463,-0.1181668 0.511252,-0.1181668 0.49196,0 0.798229,0.3906739 0.308681,0.3906739 0.308681,1.0273277 0,0.6366538 -0.308681,1.0273277 -0.306269,0.3906739 -0.798229,0.3906739 -0.296622,0 -0.511252,-0.1157552 -0.212218,-0.1181668 -0.352089,-0.3593235 z m 1.509642,-0.9429229 q 0,-0.4895482 -0.202572,-0.7668784 -0.20016,-0.2797418 -0.552249,-0.2797418 -0.352089,0 -0.554661,0.2797418 -0.20016,0.2773302 -0.20016,0.7668784 0,0.4895482 0.20016,0.76929 0.202572,0.2773303 0.554661,0.2773303 0.352089,0 0.552249,-0.2773303 0.202572,-0.2797418 0.202572,-0.76929 z m 1.150318,0.2821534 V 3.7408804 h 0.443728 v 1.6181617 q 0,0.3834392 0.149518,0.5763646 0.149517,0.1905139 0.448551,0.1905139 0.359324,0 0.566718,-0.2290989 0.209807,-0.2290989 0.209807,-0.624596 V 3.7408804 h 0.443728 V 6.4418359 H 51.253308 V 6.0270463 q -0.161575,0.2459799 -0.376205,0.3665582 -0.212218,0.1181668 -0.494371,0.1181668 -0.465433,0 -0.706589,-0.2893881 -0.241157,-0.289388 -0.241157,-0.8464601 z m 1.116556,-1.700155 z M 53.049924,2.974002 v 0.7668784 h 0.913984 v 0.3448542 h -0.913984 v 1.4662329 q 0,0.3303847 0.08923,0.4244359 0.09164,0.094051 0.36897,0.094051 h 0.455786 v 0.3713814 h -0.455786 q -0.513664,0 -0.709001,-0.1905138 Q 52.603784,6.0583967 52.603784,5.5519675 V 4.0857346 H 52.278222 V 3.7408804 h 0.325562 V 2.974002 Z m 3.807867,2.0064241 v 0.217041 h -2.040186 q 0.02894,0.4581978 0.274919,0.6993546 0.248391,0.2387451 0.689708,0.2387451 0.255626,0 0.494371,-0.062701 0.241157,-0.062701 0.477491,-0.1881023 v 0.4196127 q -0.238745,0.1012859 -0.489549,0.1543404 -0.250803,0.053054 -0.50884,0.053054 -0.6463,0 -1.024916,-0.3762045 -0.376205,-0.3762045 -0.376205,-1.0176814 0,-0.663181 0.356912,-1.0514434 0.359324,-0.3906739 0.967039,-0.3906739 0.545014,0 0.860929,0.3520888 0.318327,0.3496773 0.318327,0.9525692 z M 56.414063,4.8502014 Q 56.40924,4.4860547 56.209079,4.2690137 56.011331,4.0519726 55.683358,4.0519726 q -0.371382,0 -0.595657,0.2098064 -0.221865,0.2098063 -0.255627,0.590834 z M 59.151191,4.15567 q -0.07476,-0.043408 -0.163987,-0.062701 -0.08682,-0.021704 -0.192925,-0.021704 -0.376205,0 -0.578776,0.2459798 -0.20016,0.2435683 -0.20016,0.7017661 v 1.4228248 h -0.44614 V 3.7408804 h 0.44614 v 0.4196127 q 0.139871,-0.2459798 0.364146,-0.3641466 0.224276,-0.1205784 0.545015,-0.1205784 0.04582,0 0.101285,0.00723 0.05547,0.00482 0.12299,0.016881 z"
       id="text1-9-8"
       style="font-size:4.93889px;stroke-width:0.264583"
       inkscape:label="Title"
       aria-label="Shift Computer" />
  </g>
  <g
     inkscape:groupmode="layer"
     id="layer2"
     inkscape:label="components"
     style="display:none">
    <circle
       style="display:inline;fill:#ff00ff;fill-opacity:1;stroke-width:0.0957139"
       id="path2787-83-3-2-9-3-6-9-0-3"
       cx="16.14872"
       cy="111.0567"
       r="1.4083825"
       inkscape:label="source_led_10" />
    <circle
       style="display:inline;fill:#ff00ff;fill-opacity:1;stroke-width:0.0957139"
       id="path2787-83-3-2-9-3-6-9-7-6"
       cx="6.3522086"
       cy="102.35968"
       r="1.4083825"
       inkscape:label="source_led_9" />
    <circle
       style="display:inline;fill:#ff00ff;fill-opacity:1;stroke-width:0.0957139"
       id="path2787-83-3-2-9-3-6-9-2-7"
       cx="16.14872"
       cy="93.662666"
       r="1.4083825"
       inkscape:label="source_led_8" />
    <circle
       style="display:inline;fill:#ff00ff;fill-opacity:1;stroke-width:0.0957139"
       id="path2787-83-3-2-9-3-6-9-5"
       cx="6.3522086"
       cy="84.965645"
       r="1.4083825"
       inkscape:label="source_led_7" />
    <circle
       style="display:inline;fill:#ff00ff;fill-opacity:1;stroke-width:0.0957139"
       id="path2787-83-3-2-9-3-6-2-3"
       cx="16.14872"
       cy="76.268623"
       r="1.4083825"
       inkscape:label="source_led_6" />
    <circle
       style="display:inline;fill:#ff00ff;fill-opacity:1;stroke-width:0.0957139"
       id="path2787-83-3-2-9-3-6-56-5"
       cx="6.3522086"
       cy="67.571602"
       r="1.4083825"
       inkscape:label="source_led_5" />
    <circle
       style="display:inline;fill:#ff00ff;fill-opacity:1;stroke-width:0.0957139"
       id="path2787-83-3-2-9-3-6-3-6"
       cx="16.14872"
       cy="58.874584"
       r="1.4083825"
       inkscape:label="source_led_4" />
    <circle
       style="display:inline;fill:#ff00ff;fill-opacity:1;stroke-width:0.0957139"
       id="path2787-83-3-2-9-3-6-5-2"
       cx="6.3522086"
       cy="50.177567"
       r="1.4083825"
       inkscape:label="source_led_3" />
    <circle
       style="display:inline;fill:#ff00ff;fill-opacity:1;stroke-width:0.0957139"
       id="path2787-83-3-2-9-3-6-7-9"
       cx="16.14872"
       cy="41.480545"
       r="1.4083825"
       inkscape:label="source_led_2" />
    <circle
       style="display:inline;fill:#ff00ff;fill-opacity:1;stroke-width:0.0957139"
       id="path2787-83-3-2-9-3-6-1"
       cx="6.3522086"
       cy="32.783524"
       r="1.4083825"
       inkscape:label="source_led_1" />
    <circle
       style="display:inline;fill:#ff0000;stroke-width:0.264583"
       id="path2787-83-3-2-9-3-92"
       cx="16.14872"
       cy="119.75372"
       r="3.8932071"
       inkscape:label="atten_10" />
    <circle
       style="display:inline;fill:#ff0000;stroke-width:0.264583"
       id="path2787-83-3-2-9-3-7"
       cx="6.3522086"
       cy="111.0567"
       r="3.8932071"
       inkscape:label="atten_9" />
    <circle
       style="display:inline;fill:#ff0000;stroke-width:0.264583"
       id="path2787-83-3-2-9-3-8"
       cx="16.14872"
       cy="102.35968"
       r="3.8932071"
       inkscape:label="atten_8" />
    <circle
       style="display:inline;fill:#ff0000;stroke-width:0.264583"
       id="path2787-83-3-2-9-3-61"
       cx="6.3522086"
       cy="93.662666"
       r="3.8932071"
       inkscape:label="atten_7" />
    <circle
       style="display:inline;fill:#ff0000;stroke-width:0.264583"
       id="path2787-83-3-2-9-3-62"
       cx="16.14872"
       cy="84.965645"
       r="3.8932071"
       inkscape:label="atten_6" />
    <circle
       style="display:inline;fill:#ff0000;stroke-width:0.264583"
       id="path2787-83-3-2-9-3-60"
       cx="6.3522086"
       cy="76.268623"
       r="3.8932071"
       inkscape:label="atten_5" />
    <circle
       style="display:inline;fill:#ff0000;stroke-width:0.264583"
       id="path2787-83-3-2-9-3-3"
       cx="16.14872"
       cy="67.571602"
       r="3.8932071"
       inkscape:label="atten_4" />
    <circle
       style="display:inline;fill:#ff0000;stroke-width:0.264583"
       id="path2787-83-3-2-9-3-9"
       cx="6.3522086"
       cy="58.874584"
       r="3.8932071"
       inkscape:label="atten_3" />
    <circle
       style="display:inline;fill:#ff0000;stroke-width:0.264583"
       id="path2787-83-3-2-9"
       cx="16.14872"
       cy="50.177567"
       r="3.8932071"
       inkscape:label="atten_2" />
    <circle
       style="display:inline;fill:#ff0000;stroke-width:0.264583"
       id="path2787-83-3-2-9-3"
       cx="6.3522086"
       cy="41.480545"
       r="3.8932071"
       inkscape:label="atten_1" />
    <circle
       style="display:inline;fill:#0000ff;stroke-width:0.264583"
       id="path2787-83-7-1-3-7-5-2-1-0"
       cx="45.538254"
       cy="119.75372"
       r="3.8932071"
       inkscape:label="gate_10" />
    <circle
       style="display:inline;fill:#0000ff;stroke-width:0.264583"
       id="path2787-83-7-1-3-7-5-2-9-9"
       cx="35.741745"
       cy="111.0567"
       r="3.8932071"
       inkscape:label="gate_9" />
    <circle
       style="display:inline;fill:#0000ff;stroke-width:0.264583"
       id="path2787-83-7-1-3-7-5-2-62-3"
       cx="45.538254"
       cy="102.35968"
       r="3.8932071"
       inkscape:label="gate_8" />
    <circle
       style="display:inline;fill:#0000ff;stroke-width:0.264583"
       id="path2787-83-7-1-3-7-5-2-35-6"
       cx="35.741745"
       cy="93.662666"
       r="3.8932071"
       inkscape:label="gate_7" />
    <circle
       style="display:inline;fill:#0000ff;stroke-width:0.264583"
       id="path2787-83-7-1-3-7-5-2-5-0"
       cx="45.538254"
       cy="84.965645"
       r="3.8932071"
       inkscape:label="gate_6" />
    <circle
       style="display:inline;fill:#0000ff;stroke-width:0.264583"
       id="path2787-83-7-1-3-7-5-2-67-6"
       cx="35.741745"
       cy="76.268623"
       r="3.8932071"
       inkscape:label="gate_5" />
    <circle
       style="display:inline;fill:#0000ff;stroke-width:0.264583"
       id="path2787-83-7-1-3-7-5-2-3-2"
       cx="45.538254"
       cy="67.571602"
       r="3.8932071"
       inkscape:label="gate_4" />
    <circle
       style="display:inline;fill:#0000ff;stroke-width:0.264583"
       id="path2787-83-7-1-3-7-5-2-61"
       cx="35.741745"
       cy="58.874584"
       r="3.8932071"
       inkscape:label="gate_3" />
    <circle
       style="display:inline;fill:#0000ff;stroke-width:0.264583"
       id="path2787-83-7-1-3-7-5-8"
       cx="45.538254"
       cy="50.177567"
       r="3.8932071"
       inkscape:label="gate_2" />
    <circle
       style="display:inline;fill:#0000ff;stroke-width:0.264583"
       id="path2787-83-7-1-3-7-5-2-6-7"
       cx="35.741745"
       cy="41.480545"
       r="3.8932071"
       inkscape:label="gate_1" />
    <circle
       style="display:inline;fill:#ff00ff;fill-opacity:1;stroke-width:0.0957139"
       id="path2787-83-3-2-9-3-6-9-0"
       cx="65.131271"
       cy="119.75372"
       r="1.4083825"
       inkscape:label="dest_led_10" />
    <circle
       style="display:inline;fill:#ff00ff;fill-opacity:1;stroke-width:0.0957139"
       id="path2787-83-3-2-9-3-6-9-7"
       cx="74.927788"
       cy="111.0567"
       r="1.4083825"
       inkscape:label="dest_led_9" />
    <circle
       style="display:inline;fill:#ff00ff;fill-opacity:1;stroke-width:0.0957139"
       id="path2787-83-3-2-9-3-6-9-2"
       cx="65.131271"
       cy="102.35968"
       r="1.4083825"
       inkscape:label="dest_led_8" />
    <circle
       style="display:inline;fill:#ff00ff;fill-opacity:1;stroke-width:0.0957139"
       id="path2787-83-3-2-9-3-6-9"
       cx="74.927788"
       cy="93.662666"
       r="1.4083825"
       inkscape:label="dest_led_7" />
    <circle
       style="display:inline;fill:#ff00ff;fill-opacity:1;stroke-width:0.0957139"
       id="path2787-83-3-2-9-3-6-2"
       cx="65.131271"
       cy="84.965645"
       r="1.4083825"
       inkscape:label="dest_led_6" />
    <circle
       style="display:inline;fill:#ff00ff;fill-opacity:1;stroke-width:0.0957139"
       id="path2787-83-3-2-9-3-6-56"
       cx="74.927788"
       cy="76.268623"
       r="1.4083825"
       inkscape:label="dest_led_5" />
    <circle
       style="display:inline;fill:#ff00ff;fill-opacity:1;stroke-width:0.0957139"
       id="path2787-83-3-2-9-3-6-3"
       cx="65.131271"
       cy="67.571602"
       r="1.4083825"
       inkscape:label="dest_led_4" />
    <circle
       style="display:inline;fill:#ff00ff;fill-opacity:1;stroke-width:0.0957139"
       id="path2787-83-3-2-9-3-6-5"
       cx="74.927788"
       cy="58.874584"
       r="1.4083825"
       inkscape:label="dest_led_3" />
    <circle
       style="display:inline;fill:#ff00ff;fill-opacity:1;stroke-width:0.0957139"
       id="path2787-83-3-2-9-3-6-7"
       cx="65.131271"
       cy="50.177567"
       r="1.4083825"
       inkscape:label="dest_led_2" />
    <circle
       style="display:inline;fill:#ff00ff;fill-opacity:1;stroke-width:0.0957139"
       id="path2787-83-3-2-9-3-6"
       cx="74.927788"
       cy="41.480545"
       r="1.4083825"
       inkscape:label="dest_led_1" />
    <circle
       style="display:inline;fill:#0000ff;stroke-width:0.264583"
       id="path2787-83-7-1-3-7-5-2-1"
       cx="74.927788"
       cy="119.75372"
       r="3.8932071"
       inkscape:label="stage_10" />
    <circle
       style="display:inline;fill:#0000ff;stroke-width:0.264583"
       id="path2787-83-7-1-3-7-5-2-9"
       cx="65.131271"
       cy="111.0567"
       r="3.8932071"
       inkscape:label="stage_9" />
    <circle
       style="display:inline;fill:#0000ff;stroke-width:0.264583"
       id="path2787-83-7-1-3-7-5-2-62"
       cx="74.927788"
       cy="102.35968"
       r="3.8932071"
       inkscape:label="stage_8" />
    <circle
       style="display:inline;fill:#0000ff;stroke-width:0.264583"
       id="path2787-83-7-1-3-7-5-2-35"
       cx="65.131271"
       cy="93.662666"
       r="3.8932071"
       inkscape:label="stage_7" />
    <circle
       style="display:inline;fill:#0000ff;stroke-width:0.264583"
       id="path2787-83-7-1-3-7-5-2-5"
       cx="74.927788"
       cy="84.965645"
       r="3.8932071"
       inkscape:label="stage_6" />
    <circle
       style="display:inline;fill:#0000ff;stroke-width:0.264583"
       id="path2787-83-7-1-3-7-5-2-67"
       cx="65.131271"
       cy="76.268623"
       r="3.8932071"
       inkscape:label="stage_5" />
    <circle
       style="display:inline;fill:#0000ff;stroke-width:0.264583"
       id="path2787-83-7-1-3-7-5-2-3"
       cx="74.927788"
       cy="67.571602"
       r="3.8932071"
       inkscape:label="stage_4" />
    <circle
       style="display:inline;fill:#0000ff;stroke-width:0.264583"
       id="path2787-83-7-1-3-7-5-2"
       cx="65.131271"
       cy="58.874584"
       r="3.8932071"
       inkscape:label="stage_3" />
    <circle
       style="display:inline;fill:#0000ff;stroke-width:0.264583"
       id="path2787-83-7-1-3-7-5"
       cx="74.927788"
       cy="50.177567"
       r="3.8932071"
       inkscape:label="stage_2" />
    <circle
       style="display:inline;fill:#0000ff;stroke-width:0.264583"
       id="path2787-83-7-1-3-7-5-2-6"
       cx="65.131271"
       cy="41.480545"
       r="3.8932071"
       inkscape:label="stage_1" />
    <circle
       style="display:inline;fill:#0000ff;stroke-width:0.264583"
       id="path2787-83-7-1-3-7-5-2-6-3"
       cx="74.927788"
       cy="32.783524"
       r="3.8932071"
       inkscape:label="poly out" />
    <circle
       style="display:inline;fill:#00ff00;stroke-width:0.264583"
       id="path2787-70-0-20-2"
       cx="74.927788"
       cy="21.601681"
       r="3.8932071"
       inkscape:label="sample_trig" />
    <circle
       style="display:inline;fill:#00ff00;stroke-width:0.264583"
       id="path2787-70-0-20"
       cx="65.131271"
       cy="21.601681"
       r="3.8932071"
       inkscape:label="destination_reset" />
    <circle
       style="display:inline;fill:#00ff00;stroke-width:0.264583"
       id="path2787-70-0-2-2"
       cx="55.334766"
       cy="21.601681"
       r="3.8932071"
       inkscape:label="source_reset" />
    <circle
       style="display:inline;fill:#00ff00;stroke-width:0.264583"
       id="path2787-70-0-3"
       cx="45.538254"
       cy="21.601681"
       r="3.8932071"
       inkscape:label="destination_down" />
    <circle
       style="display:inline;fill:#00ff00;stroke-width:0.264583"
       id="path2787-70-0-9"
       cx="35.741745"
       cy="21.601681"
       r="3.8932071"
       inkscape:label="source_down" />
    <circle
       style="display:inline;fill:#00ff00;stroke-width:0.264583"
       id="path2787-70-0"
       cx="25.94523"
       cy="21.601681"
       r="3.8932071"
       inkscape:label="destination_up" />
    <circle
       style="display:inline;fill:#00ff00;stroke-width:0.264583"
       id="path2787-70-0-2"
       cx="16.14872"
       cy="21.601681"
       r="3.8932071"
       inkscape:label="source_up" />
    <circle
       style="display:inline;fill:#00ff00;stroke-width:0.264583"
       id="path2787-70-0-3-6"
       cx="6.3522086"
       cy="21.601681"
       r="3.8932071"
       inkscape:label="external_source" />
  </g>
</svg>
