<?xml version="1.0" encoding="UTF-8" standalone="no"?>
<!-- Created with Inkscape (http://www.inkscape.org/) -->

<svg
   width="40.639999mm"
   height="128.5mm"
   viewBox="0 0 40.64 128.5"
   version="1.1"
   id="svg5"
   inkscape:version="1.2.1 (9c6d41e410, 2022-07-14)"
   sodipodi:docname="transquant.svg"
   xmlns:inkscape="http://www.inkscape.org/namespaces/inkscape"
   xmlns:sodipodi="http://sodipodi.sourceforge.net/DTD/sodipodi-0.dtd"
   xmlns="http://www.w3.org/2000/svg"
   xmlns:svg="http://www.w3.org/2000/svg">
  <sodipodi:namedview
     id="namedview7"
     pagecolor="#ffffff"
     bordercolor="#000000"
     borderopacity="0.25"
     inkscape:showpageshadow="2"
     inkscape:pageopacity="0.0"
     inkscape:pagecheckerboard="0"
     inkscape:deskcolor="#d1d1d1"
     inkscape:document-units="mm"
     showgrid="false"
     inkscape:zoom="1.1893044"
     inkscape:cx="23.12276"
     inkscape:cy="220.29684"
     inkscape:window-width="1680"
     inkscape:window-height="1027"
     inkscape:window-x="1672"
     inkscape:window-y="-8"
     inkscape:window-maximized="1"
     inkscape:current-layer="layer1" />
  <defs
     id="defs2" />
  <g
     inkscape:label="Layer 1"
     inkscape:groupmode="layer"
     id="layer1">
    <rect
       style="fill:#808080;stroke-width:0.173366"
       id="rect251"
       width="40.639999"
       height="128.5"
       x="8.8817842e-15"
       y="5.3290705e-15"
       inkscape:label="background" />
    <rect
       style="fill:#333333;stroke-width:0.330154"
       id="rect1809"
       width="25.361464"
       height="40.489353"
       x="14.341146"
       y="82.150696"
       inkscape:label="output background" />
    <g
       aria-label="in         trg       out"
       id="text1651"
       style="font-size:3.175px;text-align:center;text-anchor:middle;stroke-width:0.264583"
       inkscape:label="label">
      <path
         d="M 6.2834536,78.126886 H 5.9547915 v -0.302307 h 0.3286621 z m -0.018603,2.021582 H 5.973395 v -1.731677 h 0.2914551 z"
         id="path180" />
      <path
         d="M 8.2895327,80.148468 H 7.9980776 v -0.985986 q 0,-0.119373 -0.013953,-0.223242 -0.013953,-0.10542 -0.05116,-0.164332 -0.038757,-0.06511 -0.1116211,-0.09612 -0.072864,-0.03256 -0.1891357,-0.03256 -0.1193726,0 -0.2495972,0.05891 -0.1302246,0.05891 -0.2495972,0.150379 v 1.292944 h -0.291455 v -1.731677 h 0.291455 v 0.192236 q 0.1364258,-0.113171 0.2821533,-0.176733 0.1457276,-0.06356 0.2992066,-0.06356 0.280603,0 0.4278808,0.168982 0.1472779,0.168982 0.1472779,0.486792 z"
         id="path182" />
      <path
         d="m 19.795807,80.132965 q -0.08216,0.0217 -0.179834,0.03566 -0.09612,0.01395 -0.172082,0.01395 -0.2651,0 -0.403076,-0.142626 -0.137976,-0.142627 -0.137976,-0.457337 v -0.920874 h -0.196888 v -0.244946 h 0.196888 v -0.497644 h 0.291455 v 0.497644 h 0.601513 v 0.244946 h -0.601513 v 0.789099 q 0,0.136426 0.0062,0.213941 0.0062,0.07596 0.04341,0.142627 0.03411,0.06201 0.09302,0.09147 0.06046,0.02791 0.182934,0.02791 0.07131,0 0.148828,-0.02015 0.07751,-0.0217 0.111621,-0.03566 h 0.0155 z"
         id="path184" />
      <path
         d="m 21.228278,78.734601 h -0.0155 q -0.06511,-0.0155 -0.127124,-0.0217 -0.06046,-0.0078 -0.144177,-0.0078 -0.134876,0 -0.26045,0.06046 -0.125573,0.05891 -0.241845,0.153479 v 1.229382 h -0.291455 v -1.731677 h 0.291455 v 0.255798 q 0.173632,-0.139526 0.305407,-0.196887 0.133326,-0.05891 0.271302,-0.05891 0.07596,0 0.11007,0.0047 0.03411,0.0031 0.10232,0.01395 z"
         id="path186" />
      <path
         d="m 22.907245,79.951581 q 0,0.440283 -0.199988,0.646472 -0.199988,0.206189 -0.615466,0.206189 -0.137976,0 -0.269751,-0.02015 -0.130225,-0.0186 -0.257349,-0.05426 v -0.297656 h 0.0155 q 0.07131,0.02791 0.226343,0.06821 0.155029,0.04186 0.310058,0.04186 0.148828,0 0.246497,-0.03566 0.09767,-0.03566 0.151929,-0.09922 0.05426,-0.06046 0.07751,-0.145728 0.02325,-0.08527 0.02325,-0.190686 v -0.15813 q -0.131775,0.10542 -0.252698,0.15813 -0.119373,0.05116 -0.305408,0.05116 -0.310058,0 -0.492993,-0.223242 -0.181384,-0.224793 -0.181384,-0.63252 0,-0.223242 0.06201,-0.384472 0.06356,-0.162781 0.172083,-0.280603 0.100769,-0.110071 0.244946,-0.170533 0.144177,-0.06201 0.286804,-0.06201 0.150379,0 0.251148,0.03101 0.102319,0.02945 0.215491,0.09147 l 0.0186,-0.07441 h 0.272852 z M 22.61579,79.672528 V 78.7284 q -0.116272,-0.05271 -0.217041,-0.07441 -0.09922,-0.02326 -0.198438,-0.02326 -0.240295,0 -0.378271,0.161231 -0.137976,0.16123 -0.137976,0.468188 0,0.291455 0.102319,0.441834 0.102319,0.150378 0.339514,0.150378 0.127124,0 0.254248,-0.04806 0.128674,-0.04961 0.235645,-0.131775 z"
         id="path188" />
      <path
         d="m 32.770209,79.283405 q 0,0.42323 -0.217041,0.668176 -0.217041,0.244946 -0.58136,0.244946 -0.367419,0 -0.58446,-0.244946 -0.215491,-0.244946 -0.215491,-0.668176 0,-0.42323 0.215491,-0.668177 0.217041,-0.246496 0.58446,-0.246496 0.364319,0 0.58136,0.246496 0.217041,0.244947 0.217041,0.668177 z m -0.300757,0 q 0,-0.336414 -0.131775,-0.499195 -0.131775,-0.164331 -0.365869,-0.164331 -0.237195,0 -0.36897,0.164331 -0.130224,0.162781 -0.130224,0.499195 0,0.325561 0.131775,0.494543 0.131775,0.167432 0.367419,0.167432 0.232544,0 0.364319,-0.165882 0.133325,-0.167431 0.133325,-0.496093 z"
         id="path190" />
      <path
         d="M 34.656915,80.148468 H 34.36546 v -0.192236 q -0.147278,0.116272 -0.282154,0.178283 -0.134875,0.06201 -0.297656,0.06201 -0.272851,0 -0.42478,-0.165881 -0.151929,-0.167432 -0.151929,-0.489893 v -1.123962 h 0.291455 v 0.985986 q 0,0.131775 0.0124,0.226343 0.0124,0.09302 0.05271,0.15968 0.04186,0.06821 0.108521,0.09922 0.06666,0.03101 0.193787,0.03101 0.113171,0 0.246496,-0.05891 0.134876,-0.05891 0.251148,-0.150379 v -1.292944 h 0.291455 z"
         id="path192" />
      <path
         d="m 36.129693,80.132965 q -0.08217,0.0217 -0.179834,0.03566 -0.09612,0.01395 -0.172082,0.01395 -0.2651,0 -0.403076,-0.142626 -0.137976,-0.142627 -0.137976,-0.457337 v -0.920874 h -0.196888 v -0.244946 h 0.196888 v -0.497644 h 0.291455 v 0.497644 h 0.601513 v 0.244946 H 35.52818 v 0.789099 q 0,0.136426 0.0062,0.213941 0.0062,0.07596 0.04341,0.142627 0.03411,0.06201 0.09302,0.09147 0.06046,0.02791 0.182934,0.02791 0.07131,0 0.148828,-0.02015 0.07751,-0.0217 0.111622,-0.03566 h 0.0155 z"
         id="path194" />
    </g>
    <g
       aria-label="up    down"
       id="text3542"
       style="font-size:3.175px;text-align:center;text-anchor:middle;display:inline;stroke-width:0.264583"
       inkscape:label="up down label">
      <path
         d="m 13.559947,21.635975 h -0.291455 v -0.192236 q -0.147278,0.116272 -0.282153,0.178283 -0.134876,0.06201 -0.297656,0.06201 -0.272852,0 -0.424781,-0.165881 -0.151928,-0.167432 -0.151928,-0.489893 v -1.123962 h 0.291455 v 0.985986 q 0,0.131775 0.0124,0.226343 0.0124,0.09302 0.05271,0.15968 0.04186,0.06821 0.108521,0.09922 0.06666,0.03101 0.193786,0.03101 0.113172,0 0.246497,-0.05891 0.134875,-0.05891 0.251147,-0.150378 v -1.292944 h 0.291455 z"
         id="path197" />
      <path
         d="m 15.657494,20.749207 q 0,0.21084 -0.06046,0.386023 -0.06046,0.173633 -0.170532,0.294556 -0.102319,0.114722 -0.241846,0.178284 -0.137976,0.06201 -0.293005,0.06201 -0.134876,0 -0.244946,-0.02945 -0.108521,-0.02946 -0.221692,-0.09147 v 0.725538 h -0.291455 v -2.370398 h 0.291455 v 0.181384 q 0.116272,-0.09767 0.260449,-0.162781 0.145727,-0.06666 0.310059,-0.06666 0.313159,0 0.486791,0.237194 0.175184,0.235645 0.175184,0.655774 z m -0.300757,0.0078 q 0,-0.313159 -0.10697,-0.468189 -0.106971,-0.155029 -0.328663,-0.155029 -0.125573,0 -0.252697,0.05426 -0.127124,0.05426 -0.243396,0.142627 v 0.981336 q 0.124023,0.05581 0.21239,0.07596 0.08992,0.02015 0.203088,0.02015 0.243396,0 0.379822,-0.164331 0.136426,-0.164331 0.136426,-0.486792 z"
         id="path199" />
      <path
         d="m 21.981139,21.635975 h -0.291456 v -0.181384 q -0.125573,0.10852 -0.261999,0.168982 -0.136426,0.06046 -0.296106,0.06046 -0.310059,0 -0.492993,-0.238745 -0.181384,-0.238745 -0.181384,-0.661975 0,-0.220142 0.06201,-0.392224 0.06356,-0.172083 0.170532,-0.293006 0.10542,-0.117822 0.244947,-0.179834 0.141076,-0.06201 0.291455,-0.06201 0.136426,0 0.241846,0.02946 0.105419,0.02791 0.221691,0.08837 v -0.750342 h 0.291456 z m -0.291456,-0.426331 v -0.993737 q -0.117822,-0.05271 -0.210839,-0.07286 -0.09302,-0.02015 -0.203089,-0.02015 -0.244946,0 -0.381372,0.170532 -0.136426,0.170532 -0.136426,0.483692 0,0.308508 0.10542,0.469738 0.10542,0.159681 0.337964,0.159681 0.124024,0 0.251148,-0.05426 0.127124,-0.05581 0.237194,-0.142627 z"
         id="path201" />
      <path
         d="m 24.030626,20.770911 q 0,0.42323 -0.217041,0.668177 -0.217041,0.244946 -0.58136,0.244946 -0.367419,0 -0.58446,-0.244946 -0.215491,-0.244947 -0.215491,-0.668177 0,-0.42323 0.215491,-0.668176 0.217041,-0.246496 0.58446,-0.246496 0.364319,0 0.58136,0.246496 0.217041,0.244946 0.217041,0.668176 z m -0.300757,0 q 0,-0.336413 -0.131775,-0.499194 -0.131774,-0.164331 -0.365869,-0.164331 -0.237194,0 -0.368969,0.164331 -0.130225,0.162781 -0.130225,0.499194 0,0.325562 0.131775,0.494544 0.131775,0.167432 0.367419,0.167432 0.232544,0 0.364319,-0.165882 0.133325,-0.167431 0.133325,-0.496094 z"
         id="path203" />
      <path
         d="m 26.659923,19.904298 -0.451135,1.731677 h -0.269751 l -0.444934,-1.334802 -0.441834,1.334802 h -0.2682 l -0.455786,-1.731677 h 0.303857 l 0.31781,1.341003 0.432532,-1.341003 h 0.240295 l 0.443384,1.341003 0.300757,-1.341003 z"
         id="path205" />
      <path
         d="m 28.528026,21.635975 h -0.291455 v -0.985986 q 0,-0.119373 -0.01395,-0.223243 -0.01395,-0.10542 -0.05116,-0.164331 -0.03876,-0.06511 -0.111621,-0.09612 -0.07286,-0.03256 -0.189135,-0.03256 -0.119373,0 -0.249598,0.05891 -0.130224,0.05891 -0.249597,0.150379 v 1.292944 h -0.291455 v -1.731677 h 0.291455 v 0.192236 q 0.136426,-0.113171 0.282154,-0.176733 0.145727,-0.06356 0.299206,-0.06356 0.280603,0 0.427881,0.168982 0.147278,0.168981 0.147278,0.486791 z"
         id="path207" />
    </g>
    <g
       aria-label="Transpose"
       id="text3534"
       style="font-size:3.175px;text-align:center;text-anchor:middle;display:inline;stroke-width:0.264583"
       inkscape:label="transpose label">
      <path
         d="m 13.995443,35.109 h -0.824755 v 2.035535 H 12.86373 V 35.109 h -0.824756 v -0.272851 h 1.956469 z"
         id="path210" />
      <path
         d="m 15.052743,35.730668 h -0.0155 q -0.06511,-0.0155 -0.127124,-0.0217 -0.06046,-0.0078 -0.144177,-0.0078 -0.134876,0 -0.260449,0.06046 -0.125574,0.05891 -0.241846,0.153479 v 1.229382 h -0.291455 v -1.731677 h 0.291455 v 0.255798 q 0.173633,-0.139526 0.305408,-0.196887 0.133325,-0.05891 0.271301,-0.05891 0.07596,0 0.110071,0.0047 0.03411,0.0031 0.102319,0.01395 z"
         id="path212" />
      <path
         d="M 16.616989,37.144535 H 16.327084 V 36.96005 q -0.03876,0.02635 -0.10542,0.07441 -0.06511,0.04651 -0.127124,0.07441 -0.07286,0.03566 -0.167432,0.05891 -0.09457,0.02481 -0.221691,0.02481 -0.234095,0 -0.396875,-0.155029 -0.162781,-0.155029 -0.162781,-0.395325 0,-0.196887 0.08372,-0.31781 0.08527,-0.122473 0.241845,-0.192236 0.15813,-0.06976 0.379822,-0.09457 0.221692,-0.02481 0.47594,-0.03721 v -0.04496 q 0,-0.09922 -0.03566,-0.164331 -0.03411,-0.06511 -0.09922,-0.102319 -0.06201,-0.03566 -0.148829,-0.04806 -0.08682,-0.0124 -0.181384,-0.0124 -0.114721,0 -0.255798,0.03101 -0.141077,0.02946 -0.291455,0.08682 h -0.0155 v -0.296106 q 0.08527,-0.02325 0.246496,-0.05116 0.161231,-0.0279 0.31781,-0.0279 0.182935,0 0.317811,0.03101 0.136425,0.02945 0.235644,0.102319 0.09767,0.07131 0.148828,0.184485 0.05116,0.113171 0.05116,0.280603 z m -0.289905,-0.42633 v -0.482142 q -0.133325,0.0078 -0.314709,0.02325 -0.179834,0.0155 -0.285254,0.04496 -0.125574,0.03566 -0.203089,0.111621 -0.07751,0.07441 -0.07751,0.206189 0,0.148828 0.08992,0.224793 0.08992,0.07441 0.274402,0.07441 0.153479,0 0.280603,-0.05891 0.127124,-0.06046 0.235644,-0.144177 z"
         id="path214" />
      <path
         d="m 18.626169,37.144535 h -0.291456 v -0.985986 q 0,-0.119373 -0.01395,-0.223242 -0.01395,-0.10542 -0.05116,-0.164331 -0.03876,-0.06511 -0.111621,-0.09612 -0.07286,-0.03256 -0.189136,-0.03256 -0.119372,0 -0.249597,0.05891 -0.130224,0.05891 -0.249597,0.150379 v 1.292944 h -0.291455 v -1.731677 h 0.291455 v 0.192236 q 0.136426,-0.113171 0.282153,-0.176733 0.145728,-0.06356 0.299207,-0.06356 0.280603,0 0.427881,0.168982 0.147278,0.168982 0.147278,0.486792 z"
         id="path216" />
      <path
         d="m 20.424508,36.645341 q 0,0.237195 -0.196887,0.389123 -0.195337,0.151929 -0.534851,0.151929 -0.192236,0 -0.353467,-0.04496 -0.15968,-0.04651 -0.2682,-0.100769 v -0.327111 h 0.0155 q 0.137977,0.103869 0.306958,0.165881 0.168982,0.06046 0.324012,0.06046 0.192236,0 0.300757,-0.06201 0.10852,-0.06201 0.10852,-0.195337 0,-0.10232 -0.05891,-0.15503 -0.05891,-0.05271 -0.226343,-0.08992 -0.06201,-0.01395 -0.162781,-0.03256 -0.09922,-0.0186 -0.181384,-0.04031 -0.227893,-0.06046 -0.324011,-0.176734 -0.09457,-0.117822 -0.09457,-0.288354 0,-0.10697 0.04341,-0.201538 0.04496,-0.09457 0.134876,-0.168982 0.08682,-0.07286 0.220141,-0.114722 0.134876,-0.04341 0.300757,-0.04341 0.155029,0 0.313159,0.03876 0.15968,0.03721 0.2651,0.09147 v 0.311608 h -0.0155 q -0.111621,-0.08216 -0.271301,-0.137976 -0.15968,-0.05736 -0.313159,-0.05736 -0.15968,0 -0.269751,0.06201 -0.110071,0.06046 -0.110071,0.181385 0,0.10697 0.06666,0.16123 0.06511,0.05426 0.21084,0.08837 0.08062,0.0186 0.179834,0.03721 0.100769,0.0186 0.167431,0.03411 0.203089,0.04651 0.313159,0.15968 0.110071,0.114722 0.110071,0.303858 z"
         id="path218" />
      <path
         d="m 22.365474,36.257767 q 0,0.21084 -0.06046,0.386023 -0.06046,0.173633 -0.170532,0.294556 -0.10232,0.114722 -0.241846,0.178284 -0.137976,0.06201 -0.293005,0.06201 -0.134876,0 -0.244947,-0.02946 -0.10852,-0.02946 -0.221691,-0.09147 v 0.725537 h -0.291456 v -2.370398 h 0.291456 v 0.181384 q 0.116271,-0.09767 0.260449,-0.162781 0.145727,-0.06666 0.310058,-0.06666 0.313159,0 0.486792,0.237195 0.175183,0.235644 0.175183,0.655773 z m -0.300756,0.0078 q 0,-0.313159 -0.106971,-0.468189 -0.10697,-0.155029 -0.328662,-0.155029 -0.125573,0 -0.252697,0.05426 -0.127125,0.05426 -0.243396,0.142627 v 0.981336 q 0.124023,0.05581 0.21239,0.07596 0.08992,0.02015 0.203088,0.02015 0.243396,0 0.379822,-0.164331 0.136426,-0.164331 0.136426,-0.486792 z"
         id="path220" />
      <path
         d="m 24.29559,36.279472 q 0,0.42323 -0.217041,0.668176 -0.217041,0.244946 -0.58136,0.244946 -0.36742,0 -0.584461,-0.244946 -0.21549,-0.244946 -0.21549,-0.668176 0,-0.42323 0.21549,-0.668177 0.217041,-0.246496 0.584461,-0.246496 0.364319,0 0.58136,0.246496 0.217041,0.244947 0.217041,0.668177 z m -0.300757,0 q 0,-0.336414 -0.131775,-0.499195 -0.131775,-0.164331 -0.365869,-0.164331 -0.237195,0 -0.36897,0.164331 -0.130225,0.162781 -0.130225,0.499195 0,0.325561 0.131775,0.494543 0.131775,0.167432 0.36742,0.167432 0.232544,0 0.364319,-0.165882 0.133325,-0.167431 0.133325,-0.496093 z"
         id="path222" />
      <path
         d="m 25.983859,36.645341 q 0,0.237195 -0.196887,0.389123 -0.195337,0.151929 -0.534851,0.151929 -0.192237,0 -0.353467,-0.04496 -0.15968,-0.04651 -0.268201,-0.100769 v -0.327111 h 0.0155 q 0.137976,0.103869 0.306958,0.165881 0.168982,0.06046 0.324011,0.06046 0.192237,0 0.300757,-0.06201 0.108521,-0.06201 0.108521,-0.195337 0,-0.10232 -0.05891,-0.15503 -0.05891,-0.05271 -0.226342,-0.08992 -0.06201,-0.01395 -0.162781,-0.03256 -0.09922,-0.0186 -0.181384,-0.04031 -0.227893,-0.06046 -0.324012,-0.176734 -0.09457,-0.117822 -0.09457,-0.288354 0,-0.10697 0.04341,-0.201538 0.04496,-0.09457 0.134875,-0.168982 0.08682,-0.07286 0.220142,-0.114722 0.134875,-0.04341 0.300757,-0.04341 0.155029,0 0.313159,0.03876 0.15968,0.03721 0.2651,0.09147 v 0.311608 h -0.0155 q -0.111621,-0.08216 -0.271301,-0.137976 -0.15968,-0.05736 -0.313159,-0.05736 -0.159681,0 -0.269751,0.06201 -0.110071,0.06046 -0.110071,0.181385 0,0.10697 0.06666,0.16123 0.06511,0.05426 0.21084,0.08837 0.08061,0.0186 0.179834,0.03721 0.100769,0.0186 0.167432,0.03411 0.203088,0.04651 0.313159,0.15968 0.110071,0.114722 0.110071,0.303858 z"
         id="path224" />
      <path
         d="M 27.850411,36.308927 H 26.57452 q 0,0.15968 0.04806,0.279053 0.04806,0.117822 0.131775,0.193787 0.08062,0.07441 0.190686,0.111621 0.111621,0.03721 0.244947,0.03721 0.176733,0 0.355017,-0.06976 0.179834,-0.07131 0.255798,-0.139526 h 0.0155 v 0.31781 q -0.147278,0.06201 -0.300757,0.10387 -0.153479,0.04186 -0.322461,0.04186 -0.430981,0 -0.672827,-0.232544 -0.241846,-0.234094 -0.241846,-0.663526 0,-0.42478 0.230994,-0.674377 0.232544,-0.249597 0.610815,-0.249597 0.350367,0 0.539502,0.204638 0.190686,0.204639 0.190686,0.58136 z m -0.283703,-0.223242 q -0.0016,-0.229443 -0.116272,-0.355017 -0.113172,-0.125574 -0.345716,-0.125574 -0.234094,0 -0.37362,0.137976 -0.137976,0.137976 -0.15658,0.342615 z"
         id="path226" />
    </g>
    <g
       aria-label="interval"
       id="text3538"
       style="font-size:3.175px;text-align:center;text-anchor:middle;display:inline;stroke-width:0.264583"
       inkscape:label="interval label">
      <path
         d="m 14.942809,51.030691 h -0.328662 v -0.302307 h 0.328662 z m -0.0186,2.021582 H 14.63275 v -1.731677 h 0.291455 z"
         id="path229" />
      <path
         d="m 16.948888,53.052273 h -0.291455 v -0.985987 q 0,-0.119372 -0.01395,-0.223242 -0.01395,-0.10542 -0.05116,-0.164331 -0.03876,-0.06511 -0.111621,-0.09612 -0.07286,-0.03256 -0.189136,-0.03256 -0.119373,0 -0.249597,0.05891 -0.130225,0.05891 -0.249597,0.150378 v 1.292945 h -0.291456 v -1.731677 h 0.291456 v 0.192236 q 0.136425,-0.113171 0.282153,-0.176733 0.145727,-0.06356 0.299206,-0.06356 0.280603,0 0.427881,0.168982 0.147278,0.168982 0.147278,0.486792 z"
         id="path231" />
      <path
         d="m 18.409264,53.03677 q -0.08217,0.0217 -0.179834,0.03566 -0.09612,0.01395 -0.172082,0.01395 -0.265101,0 -0.403077,-0.142627 -0.137976,-0.142627 -0.137976,-0.457336 v -0.920874 h -0.196887 v -0.244946 h 0.196887 v -0.497644 h 0.291455 v 0.497644 h 0.601514 v 0.244946 H 17.80775 v 0.789099 q 0,0.136426 0.0062,0.21394 0.0062,0.07596 0.04341,0.142627 0.03411,0.06201 0.09302,0.09147 0.06046,0.02791 0.182935,0.02791 0.07131,0 0.148828,-0.02015 0.07752,-0.0217 0.111621,-0.03566 h 0.0155 z"
         id="path233" />
      <path
         d="m 20.210704,52.216665 h -1.275891 q 0,0.15968 0.04806,0.279053 0.04806,0.117822 0.131775,0.193786 0.08062,0.07441 0.190686,0.111621 0.111621,0.03721 0.244947,0.03721 0.176733,0 0.355017,-0.06976 0.179834,-0.07131 0.255798,-0.139526 h 0.0155 v 0.31781 q -0.147278,0.06201 -0.300757,0.10387 -0.153479,0.04186 -0.322461,0.04186 -0.430981,0 -0.672827,-0.232544 -0.241846,-0.234094 -0.241846,-0.663525 0,-0.42478 0.230994,-0.674377 0.232544,-0.249598 0.610816,-0.249598 0.350366,0 0.539501,0.204639 0.190686,0.204639 0.190686,0.58136 z m -0.283703,-0.223242 q -0.0016,-0.229444 -0.116272,-0.355017 -0.113171,-0.125574 -0.345715,-0.125574 -0.234095,0 -0.373621,0.137976 -0.137976,0.137976 -0.15658,0.342615 z"
         id="path235" />
      <path
         d="m 21.733092,51.638406 h -0.0155 q -0.06511,-0.0155 -0.127124,-0.0217 -0.06046,-0.0078 -0.144177,-0.0078 -0.134875,0 -0.260449,0.06046 -0.125574,0.05891 -0.241846,0.153479 v 1.229383 h -0.291455 v -1.731677 h 0.291455 v 0.255798 q 0.173633,-0.139526 0.305408,-0.196887 0.133325,-0.05891 0.271301,-0.05891 0.07596,0 0.110071,0.0046 0.03411,0.0031 0.102319,0.01395 z"
         id="path237" />
      <path
         d="m 23.505077,51.320596 -0.700733,1.731677 h -0.293005 l -0.696082,-1.731677 h 0.31626 l 0.536401,1.37821 0.531751,-1.37821 z"
         id="path239" />
      <path
         d="m 25.170091,53.052273 h -0.289905 v -0.184485 q -0.03876,0.02636 -0.10542,0.07441 -0.06511,0.04651 -0.127124,0.07441 -0.07286,0.03566 -0.167431,0.05891 -0.09457,0.02481 -0.221692,0.02481 -0.234094,0 -0.396875,-0.155029 -0.162781,-0.15503 -0.162781,-0.395325 0,-0.196887 0.08372,-0.31781 0.08527,-0.122473 0.241846,-0.192236 0.15813,-0.06976 0.379821,-0.09457 0.221692,-0.02481 0.47594,-0.03721 v -0.04496 q 0,-0.09922 -0.03566,-0.164331 -0.03411,-0.06511 -0.09922,-0.102319 -0.06201,-0.03566 -0.148828,-0.04806 -0.08682,-0.0124 -0.181385,-0.0124 -0.114721,0 -0.255798,0.03101 -0.141077,0.02946 -0.291455,0.08682 h -0.0155 v -0.296106 q 0.08527,-0.02325 0.246497,-0.05116 0.16123,-0.02791 0.31781,-0.02791 0.182934,0 0.31781,0.03101 0.136426,0.02945 0.235644,0.102319 0.09767,0.07131 0.148828,0.184485 0.05116,0.113171 0.05116,0.280603 z m -0.289905,-0.426331 v -0.482141 q -0.133325,0.0078 -0.314709,0.02325 -0.179834,0.0155 -0.285254,0.04496 -0.125574,0.03566 -0.203088,0.111621 -0.07751,0.07441 -0.07751,0.206189 0,0.148828 0.08992,0.224793 0.08992,0.07441 0.274402,0.07441 0.153479,0 0.280603,-0.05891 0.127124,-0.06046 0.235644,-0.144177 z"
         id="path241" />
      <path
         d="m 26.025853,53.052273 h -0.291455 v -2.412256 h 0.291455 z"
         id="path243" />
    </g>
    <g
       aria-label="Mode"
       id="text3287"
       style="font-size:3.175px;text-align:center;text-anchor:middle;display:inline;stroke-width:0.264583"
       inkscape:label="mode label">
      <path
         d="M 18.369043,69.023766 H 18.062085 V 67.03474 l -0.641821,1.353405 h -0.182935 l -0.63717,-1.353405 v 1.989026 h -0.286804 v -2.308387 h 0.418579 l 0.615466,1.285193 0.595312,-1.285193 h 0.426331 z"
         id="path246" />
      <path
         d="m 20.441785,68.158702 q 0,0.42323 -0.217041,0.668176 -0.217041,0.244947 -0.58136,0.244947 -0.36742,0 -0.584461,-0.244947 -0.21549,-0.244946 -0.21549,-0.668176 0,-0.42323 0.21549,-0.668176 0.217041,-0.246497 0.584461,-0.246497 0.364319,0 0.58136,0.246497 0.217041,0.244946 0.217041,0.668176 z m -0.300757,0 q 0,-0.336413 -0.131775,-0.499194 -0.131775,-0.164331 -0.365869,-0.164331 -0.237195,0 -0.36897,0.164331 -0.130225,0.162781 -0.130225,0.499194 0,0.325562 0.131775,0.494544 0.131775,0.167431 0.36742,0.167431 0.232544,0 0.364319,-0.165881 0.133325,-0.167432 0.133325,-0.496094 z"
         id="path248" />
      <path
         d="M 22.297485,69.023766 H 22.00603 v -0.181385 q -0.125574,0.108521 -0.262,0.168982 -0.136425,0.06046 -0.296106,0.06046 -0.310058,0 -0.492993,-0.238745 -0.181384,-0.238746 -0.181384,-0.661976 0,-0.220141 0.06201,-0.392224 0.06356,-0.172082 0.170532,-0.293005 0.10542,-0.117822 0.244946,-0.179834 0.141077,-0.06201 0.291455,-0.06201 0.136426,0 0.241846,0.02946 0.10542,0.02791 0.221692,0.08837 V 66.61151 h 0.291455 z M 22.00603,68.597435 v -0.993738 q -0.117822,-0.05271 -0.21084,-0.07286 -0.09302,-0.02015 -0.203088,-0.02015 -0.244947,0 -0.381372,0.170532 -0.136426,0.170532 -0.136426,0.483691 0,0.308509 0.10542,0.469739 0.10542,0.15968 0.337964,0.15968 0.124023,0 0.251147,-0.05426 0.127124,-0.05581 0.237195,-0.142627 z"
         id="path250" />
      <path
         d="m 24.320618,68.188158 h -1.275891 q 0,0.15968 0.04806,0.279052 0.04806,0.117823 0.131775,0.193787 0.08061,0.07441 0.190686,0.111621 0.111621,0.03721 0.244946,0.03721 0.176733,0 0.355017,-0.06976 0.179834,-0.07131 0.255798,-0.139526 h 0.0155 v 0.31781 q -0.147278,0.06201 -0.300757,0.103869 -0.153479,0.04186 -0.32246,0.04186 -0.430982,0 -0.672828,-0.232544 -0.241845,-0.234094 -0.241845,-0.663525 0,-0.42478 0.230993,-0.674378 0.232544,-0.249597 0.610816,-0.249597 0.350366,0 0.539502,0.204639 0.190686,0.204639 0.190686,0.58136 z m -0.283704,-0.223243 q -0.0015,-0.229443 -0.116272,-0.355017 -0.113171,-0.125573 -0.345715,-0.125573 -0.234094,0 -0.373621,0.137976 -0.137976,0.137976 -0.156579,0.342614 z"
         id="path252" />
    </g>
    <g
       aria-label="Transposing
Quantizer"
       id="text1040"
       style="font-size:4.58611px;text-align:center;text-anchor:middle;stroke-width:0.264583"
       inkscape:label="title">
      <path
         d="M 10.686464,5.7360735 H 9.4951504 V 8.6762896 H 9.0517667 V 5.7360735 H 7.860453 V 5.3419546 h 2.826011 z"
         id="path255" />
      <path
         d="m 12.213675,6.6340374 h -0.02239 q -0.09405,-0.022393 -0.183623,-0.03135 -0.08733,-0.011197 -0.208256,-0.011197 -0.19482,0 -0.376204,0.087333 -0.181385,0.085094 -0.349333,0.2216919 V 8.6762896 H 10.652874 V 6.1749785 h 0.420991 v 0.3694864 q 0.250803,-0.201538 0.441144,-0.2843925 0.192581,-0.085094 0.39188,-0.085094 0.109726,0 0.158991,0.00672 0.04927,0.00448 0.147795,0.020154 z"
         id="path257" />
      <path
         d="M 14.47314,8.6762896 H 14.054389 V 8.4098115 q -0.05598,0.038068 -0.152273,0.1074869 -0.09405,0.067179 -0.183624,0.107487 -0.105248,0.051504 -0.241846,0.085094 -0.136598,0.035829 -0.320221,0.035829 -0.338136,0 -0.573264,-0.2239311 -0.235128,-0.2239312 -0.235128,-0.5710245 0,-0.2843926 0.120923,-0.4590589 0.123162,-0.1769056 0.349333,-0.2776746 0.22841,-0.100769 0.548631,-0.136598 0.320222,-0.035829 0.687469,-0.053743 v -0.06494 q 0,-0.143316 -0.0515,-0.2373671 -0.04926,-0.094051 -0.143316,-0.1477945 -0.08957,-0.051504 -0.214974,-0.069419 -0.125402,-0.017914 -0.262,-0.017914 -0.165709,0 -0.369486,0.044786 -0.203777,0.042547 -0.420991,0.1254014 h -0.02239 V 6.228722 q 0.123162,-0.03359 0.356051,-0.073897 0.232888,-0.040308 0.459059,-0.040308 0.264238,0 0.459059,0.044786 0.197059,0.042547 0.340375,0.1477946 0.141077,0.1030083 0.214974,0.2664781 0.0739,0.1634697 0.0739,0.4053154 z M 14.054389,8.0604789 V 7.364053 q -0.192581,0.011196 -0.45458,0.03359 -0.259761,0.022393 -0.412034,0.06494 -0.181384,0.051504 -0.29335,0.1612304 -0.111965,0.107487 -0.111965,0.2978285 0,0.2149739 0.12988,0.3247001 0.12988,0.107487 0.396358,0.107487 0.221692,0 0.405315,-0.085094 0.183624,-0.087333 0.340376,-0.208256 z"
         id="path259" />
      <path
         d="M 17.375288,8.6762896 H 16.954297 V 7.2520874 q 0,-0.172427 -0.02015,-0.3224609 -0.02015,-0.1522732 -0.0739,-0.237367 -0.05598,-0.094051 -0.16123,-0.1388373 -0.105248,-0.047026 -0.273196,-0.047026 -0.172427,0 -0.36053,0.085094 -0.188102,0.085094 -0.360529,0.2172132 v 1.8675859 h -0.42099 V 6.1749785 h 0.42099 v 0.2776747 q 0.19706,-0.1634698 0.407555,-0.2552816 0.210495,-0.091812 0.432187,-0.091812 0.405316,0 0.61805,0.2440849 0.212735,0.244085 0.212735,0.7031439 z"
         id="path261" />
      <path
         d="m 19.972889,7.9552312 q 0,0.3426147 -0.284392,0.5620672 -0.282154,0.2194526 -0.772563,0.2194526 -0.277675,0 -0.510563,-0.06494 Q 18.174722,8.6046316 18.01797,8.5262557 V 8.0537609 h 0.02239 q 0.199299,0.1500339 0.443384,0.2396064 0.244085,0.087333 0.468016,0.087333 0.277675,0 0.434426,-0.089572 0.156752,-0.089573 0.156752,-0.2821533 0,-0.1477946 -0.08509,-0.2239312 -0.08509,-0.076136 -0.326939,-0.12988 -0.08957,-0.020154 -0.235128,-0.047026 -0.143316,-0.026872 -0.261999,-0.058222 -0.329179,-0.087333 -0.468016,-0.2552815 -0.136598,-0.1701877 -0.136598,-0.4165119 0,-0.1545125 0.0627,-0.2911105 0.06494,-0.1365981 0.194821,-0.244085 0.125401,-0.1052477 0.317982,-0.1657091 0.19482,-0.062701 0.434426,-0.062701 0.223931,0 0.452341,0.055983 0.230649,0.053743 0.382922,0.1321194 v 0.4501016 h -0.02239 q -0.16123,-0.1186835 -0.391879,-0.1992987 -0.230649,-0.082854 -0.452341,-0.082854 -0.230649,0 -0.38964,0.089572 -0.158991,0.087333 -0.158991,0.2619995 0,0.1545125 0.09629,0.2328884 0.09405,0.078376 0.304546,0.1276407 0.116444,0.026872 0.25976,0.053744 0.145556,0.026872 0.241846,0.049265 0.29335,0.067179 0.452341,0.2306491 0.158991,0.165709 0.158991,0.438905 z"
         id="path263" />
      <path
         d="m 22.776507,7.3954033 q 0,0.3045464 -0.08733,0.5575886 -0.08733,0.2508029 -0.246324,0.4254692 -0.147795,0.1657091 -0.349333,0.2575208 -0.199299,0.089572 -0.42323,0.089572 -0.19482,0 -0.353811,-0.042547 -0.156752,-0.042547 -0.320222,-0.1321194 v 1.0479978 h -0.42099 V 6.1749785 h 0.42099 V 6.436978 q 0.167949,-0.1410767 0.376205,-0.2351277 0.210495,-0.09629 0.447862,-0.09629 0.452341,0 0.703144,0.3426146 0.253042,0.3403754 0.253042,0.9472288 z m -0.434427,0.011197 q 0,-0.4523409 -0.154512,-0.6762721 -0.154513,-0.2239312 -0.474734,-0.2239312 -0.181384,0 -0.365008,0.078376 -0.183623,0.078376 -0.351572,0.2060167 v 1.4174842 q 0.179145,0.080615 0.306786,0.1097263 0.12988,0.029111 0.29335,0.029111 0.351572,0 0.548631,-0.2373671 0.197059,-0.237367 0.197059,-0.7031438 z"
         id="path265" />
      <path
         d="m 25.56445,7.4267537 q 0,0.6113321 -0.313504,0.9651433 -0.313503,0.3538112 -0.839741,0.3538112 -0.530717,0 -0.844221,-0.3538112 -0.311264,-0.3538112 -0.311264,-0.9651433 0,-0.6113321 0.311264,-0.9651433 0.313504,-0.3560505 0.844221,-0.3560505 0.526238,0 0.839741,0.3560505 0.313504,0.3538112 0.313504,0.9651433 z m -0.434426,0 q 0,-0.4859306 -0.190342,-0.7210583 -0.190341,-0.2373671 -0.528477,-0.2373671 -0.342615,0 -0.532957,0.2373671 -0.188102,0.2351277 -0.188102,0.7210583 0,0.4702554 0.190342,0.7143404 0.190341,0.2418456 0.530717,0.2418456 0.335896,0 0.526238,-0.2396063 0.192581,-0.2418456 0.192581,-0.7165797 z"
         id="path267" />
      <path
         d="m 28.003061,7.9552312 q 0,0.3426147 -0.284393,0.5620672 -0.282153,0.2194526 -0.772563,0.2194526 -0.277674,0 -0.510563,-0.06494 -0.230649,-0.067179 -0.3874,-0.1455552 V 8.0537609 h 0.02239 q 0.199298,0.1500339 0.443383,0.2396064 0.244085,0.087333 0.468016,0.087333 0.277675,0 0.434427,-0.089572 0.156752,-0.089573 0.156752,-0.2821533 0,-0.1477946 -0.08509,-0.2239312 -0.08509,-0.076136 -0.32694,-0.12988 -0.08957,-0.020154 -0.235127,-0.047026 -0.143316,-0.026872 -0.262,-0.058222 -0.329179,-0.087333 -0.468016,-0.2552815 -0.136598,-0.1701877 -0.136598,-0.4165119 0,-0.1545125 0.0627,-0.2911105 0.06494,-0.1365981 0.19482,-0.244085 0.125401,-0.1052477 0.317982,-0.1657091 0.19482,-0.062701 0.434427,-0.062701 0.223931,0 0.452341,0.055983 0.230649,0.053743 0.382922,0.1321194 v 0.4501016 h -0.02239 q -0.161231,-0.1186835 -0.39188,-0.1992987 -0.230649,-0.082854 -0.452341,-0.082854 -0.230649,0 -0.38964,0.089572 -0.158991,0.087333 -0.158991,0.2619995 0,0.1545125 0.09629,0.2328884 0.09405,0.078376 0.304547,0.1276407 0.116444,0.026872 0.25976,0.053744 0.145555,0.026872 0.241845,0.049265 0.29335,0.067179 0.452341,0.2306491 0.158992,0.165709 0.158992,0.438905 z"
         id="path269" />
      <path
         d="M 29.057776,5.7562273 H 28.583042 V 5.3195615 h 0.474734 z m -0.02687,2.9200623 h -0.42099 V 6.1749785 h 0.42099 z"
         id="path271" />
      <path
         d="m 31.955445,8.6762896 h -0.42099 V 7.2520874 q 0,-0.172427 -0.02015,-0.3224609 -0.02015,-0.1522732 -0.0739,-0.237367 -0.05598,-0.094051 -0.161231,-0.1388373 -0.105247,-0.047026 -0.273196,-0.047026 -0.172427,0 -0.360529,0.085094 -0.188102,0.085094 -0.360529,0.2172132 V 8.6762896 H 29.863928 V 6.1749785 h 0.420991 v 0.2776747 q 0.197059,-0.1634698 0.407555,-0.2552816 0.210495,-0.091812 0.432187,-0.091812 0.405315,0 0.61805,0.2440849 0.212734,0.244085 0.212734,0.7031439 z"
         id="path273" />
      <path
         d="m 34.794892,8.391897 q 0,0.6359645 -0.288871,0.9337929 -0.288871,0.2978285 -0.889007,0.2978285 -0.199299,0 -0.38964,-0.029111 -0.188102,-0.026872 -0.371726,-0.078376 V 9.0860836 h 0.02239 q 0.103009,0.040308 0.32694,0.09853 0.223931,0.060461 0.447862,0.060461 0.214974,0 0.356051,-0.051504 0.141076,-0.051504 0.219452,-0.1433159 0.07838,-0.087333 0.111966,-0.2104953 0.03359,-0.1231621 0.03359,-0.2754353 V 8.3359142 q -0.190341,0.1522732 -0.365007,0.2284098 -0.172427,0.073897 -0.441145,0.073897 -0.447862,0 -0.712101,-0.3224609 -0.261999,-0.3247002 -0.261999,-0.9136391 0,-0.3224609 0.08957,-0.5553493 0.09181,-0.2351277 0.248564,-0.4053154 0.145555,-0.1589911 0.353811,-0.2463243 0.208256,-0.089572 0.414273,-0.089572 0.217213,0 0.362768,0.044786 0.147795,0.042547 0.311264,0.1321194 l 0.02687,-0.107487 h 0.394119 z M 34.373901,7.9888209 V 6.6250802 q -0.167948,-0.076137 -0.313503,-0.107487 -0.143316,-0.03359 -0.286632,-0.03359 -0.347093,0 -0.546392,0.2328884 -0.199299,0.2328884 -0.199299,0.6762721 0,0.4209906 0.147795,0.6382038 0.147794,0.2172132 0.490409,0.2172132 0.183624,0 0.367247,-0.069419 0.185863,-0.071658 0.340375,-0.1903415 z"
         id="path275" />
      <path
         d="m 13.803586,15.226276 q -0.134359,0.03359 -0.266478,0.04702 -0.12988,0.01568 -0.266478,0.01568 -0.38964,0 -0.627008,-0.214974 -0.235127,-0.212735 -0.255281,-0.611332 -0.05374,0.009 -0.105248,0.0112 -0.04926,0.0045 -0.09629,0.0045 -0.351572,0 -0.640443,-0.116444 -0.286632,-0.116445 -0.48817,-0.338136 -0.201538,-0.221692 -0.311264,-0.544153 -0.107487,-0.322461 -0.107487,-0.736734 0,-0.407554 0.107487,-0.730015 0.107487,-0.3247 0.313503,-0.555349 0.19706,-0.219453 0.48817,-0.335897 0.29335,-0.116444 0.638204,-0.116444 0.35829,0 0.642682,0.118683 0.286632,0.116444 0.485931,0.333658 0.203777,0.223931 0.311264,0.548631 0.109727,0.3247 0.109727,0.736733 0,0.611332 -0.250803,1.030084 -0.248564,0.418751 -0.669555,0.586699 0.009,0.255282 0.120923,0.396358 0.111966,0.141077 0.407555,0.141077 0.09181,0 0.217213,-0.02911 0.127641,-0.02687 0.181384,-0.04927 h 0.06046 z m -0.528478,-2.483397 q 0,-0.6494 -0.29111,-1.000972 -0.291111,-0.353811 -0.794956,-0.353811 -0.508323,0 -0.799434,0.353811 -0.288871,0.351572 -0.288871,1.000972 0,0.656119 0.295589,1.005451 0.295589,0.347094 0.792716,0.347094 0.497127,0 0.790477,-0.347094 0.295589,-0.349332 0.295589,-1.005451 z"
         id="path277" />
      <path
         d="m 16.479563,14.408927 h -0.42099 v -0.277674 q -0.212735,0.167948 -0.407555,0.25752 -0.19482,0.08957 -0.429948,0.08957 -0.394119,0 -0.613571,-0.239606 -0.219453,-0.241846 -0.219453,-0.707623 v -1.623501 h 0.420991 v 1.424202 q 0,0.190342 0.01791,0.32694 0.01792,0.134359 0.07614,0.230649 0.06046,0.09853 0.156752,0.143316 0.09629,0.04479 0.279914,0.04479 0.163469,0 0.35605,-0.08509 0.19482,-0.08509 0.362769,-0.217213 v -1.867586 h 0.42099 z"
         id="path279" />
      <path
         d="M 19.251831,14.408927 H 18.83308 v -0.266478 q -0.05598,0.03807 -0.152274,0.107487 -0.09405,0.06718 -0.183623,0.107487 -0.105248,0.0515 -0.241846,0.08509 -0.136598,0.03583 -0.320221,0.03583 -0.338136,0 -0.573264,-0.223931 -0.235128,-0.223931 -0.235128,-0.571025 0,-0.284392 0.120923,-0.459059 0.123162,-0.176905 0.349333,-0.277674 0.228409,-0.100769 0.548631,-0.136598 0.320222,-0.03583 0.687469,-0.05374 v -0.06494 q 0,-0.143316 -0.0515,-0.237367 -0.04927,-0.09405 -0.143316,-0.147794 -0.08957,-0.05151 -0.214974,-0.06942 -0.125402,-0.01792 -0.262,-0.01792 -0.165709,0 -0.369486,0.04479 -0.203778,0.04255 -0.420991,0.125401 h -0.02239 V 11.96136 q 0.123162,-0.03359 0.356051,-0.0739 0.232888,-0.04031 0.459059,-0.04031 0.264238,0 0.459058,0.04479 0.19706,0.04255 0.340376,0.147795 0.141076,0.103008 0.214974,0.266478 0.0739,0.163469 0.0739,0.405315 z m -0.418751,-0.61581 v -0.696426 q -0.192581,0.0112 -0.454581,0.03359 -0.25976,0.02239 -0.412033,0.06494 -0.181384,0.0515 -0.29335,0.161231 -0.111965,0.107487 -0.111965,0.297828 0,0.214974 0.12988,0.3247 0.12988,0.107487 0.396358,0.107487 0.221692,0 0.405315,-0.08509 0.183624,-0.08733 0.340376,-0.208255 z"
         id="path281" />
      <path
         d="m 22.153979,14.408927 h -0.420991 v -1.424202 q 0,-0.172427 -0.02015,-0.322461 -0.02015,-0.152273 -0.0739,-0.237367 -0.05598,-0.09405 -0.16123,-0.138837 -0.105248,-0.04703 -0.273196,-0.04703 -0.172427,0 -0.360529,0.08509 -0.188102,0.08509 -0.360529,0.217213 v 1.867586 h -0.420991 v -2.501311 h 0.420991 v 0.277675 q 0.197059,-0.16347 0.407554,-0.255282 0.210496,-0.09181 0.432187,-0.09181 0.405316,0 0.61805,0.244084 0.212735,0.244085 0.212735,0.703144 z"
         id="path283" />
      <path
         d="m 24.26341,14.386534 q -0.118683,0.03135 -0.25976,0.0515 -0.138837,0.02015 -0.248564,0.02015 -0.382922,0 -0.582221,-0.206017 -0.199298,-0.206016 -0.199298,-0.660597 v -1.330151 h -0.284393 v -0.353811 h 0.284393 v -0.718819 h 0.42099 v 0.718819 h 0.868853 v 0.353811 h -0.868853 v 1.13981 q 0,0.197059 0.009,0.309025 0.009,0.109726 0.0627,0.206017 0.04927,0.08957 0.134359,0.132119 0.08733,0.04031 0.264239,0.04031 0.103008,0 0.214973,-0.02911 0.111966,-0.03135 0.161231,-0.05151 h 0.02239 z"
         id="path285" />
      <path
         d="m 25.224075,11.488865 h -0.474734 v -0.436666 h 0.474734 z m -0.02687,2.920062 h -0.420991 v -2.501311 h 0.420991 z"
         id="path287" />
      <path
         d="M 27.844069,14.408927 H 25.82421 v -0.311264 l 1.457792,-1.838475 h -1.426441 v -0.351572 h 1.95044 v 0.300068 l -1.46451,1.845193 h 1.502578 z"
         id="path289" />
      <path
         d="m 30.506612,13.201938 h -1.842954 q 0,0.230649 0.06942,0.403076 0.06942,0.170188 0.190341,0.279914 0.116445,0.107487 0.275436,0.161231 0.16123,0.05374 0.353811,0.05374 0.255281,0 0.512802,-0.100769 0.25976,-0.103008 0.369487,-0.201538 h 0.02239 v 0.459059 q -0.212735,0.08957 -0.434427,0.150034 -0.221692,0.06046 -0.465776,0.06046 -0.622529,0 -0.971862,-0.335896 -0.349332,-0.338136 -0.349332,-0.958426 0,-0.613571 0.333657,-0.9741 0.335897,-0.360529 0.882289,-0.360529 0.506084,0 0.77928,0.295589 0.275436,0.295589 0.275436,0.839741 z m -0.409794,-0.322461 q -0.0022,-0.331418 -0.167949,-0.512802 -0.163469,-0.181384 -0.499366,-0.181384 -0.338136,0 -0.539674,0.199299 -0.199299,0.199298 -0.226171,0.494887 z"
         id="path291" />
      <path
         d="m 32.705616,12.366675 h -0.02239 q -0.09405,-0.02239 -0.183624,-0.03135 -0.08733,-0.0112 -0.208256,-0.0112 -0.19482,0 -0.376204,0.08733 -0.181384,0.08509 -0.349333,0.221692 v 1.775774 h -0.42099 v -2.501311 h 0.42099 v 0.369487 q 0.250803,-0.201538 0.441145,-0.284393 0.19258,-0.08509 0.391879,-0.08509 0.109726,0 0.158991,0.0067 0.04927,0.0045 0.147795,0.02015 z"
         id="path293" />
    </g>
  </g>
  <g
     inkscape:groupmode="layer"
     id="layer2"
     inkscape:label="components"
     style="display:none">
    <circle
       style="display:inline;fill:#0000ff;stroke-width:0.264583"
       id="path2787-83-7-1-3"
       cx="33.723755"
       cy="115.79908"
       r="3.8932071"
       inkscape:label="quantized 3" />
    <circle
       style="display:inline;fill:#0000ff;stroke-width:0.264583"
       id="path2787-83-7-1"
       cx="33.723755"
       cy="102.39533"
       r="3.8932071"
       inkscape:label="quantized 2" />
    <circle
       style="display:inline;fill:#0000ff;stroke-width:0.264583"
       id="path2787-8-0"
       cx="33.723755"
       cy="88.991615"
       r="3.8932071"
       inkscape:label="quantized 1" />
    <circle
       style="display:inline;fill:#0000ff;stroke-width:0.264583"
       id="path2787-83-5-7"
       cx="20.32"
       cy="115.79908"
       r="3.8932071"
       inkscape:label="trg 3" />
    <circle
       style="display:inline;fill:#0000ff;stroke-width:0.264583"
       id="path2787-83-6"
       cx="20.32"
       cy="102.39533"
       r="3.8932071"
       inkscape:label="trg 2" />
    <circle
       style="display:inline;fill:#0000ff;stroke-width:0.264583"
       id="path2787-7"
       cx="20.32"
       cy="88.991615"
       r="3.8932071"
       inkscape:label="trg 1" />
    <circle
       style="display:inline;fill:#ff0000;stroke-width:0.264583"
       id="path2787-83-5"
       cx="33.723755"
       cy="67.578979"
       r="3.8932071"
       inkscape:label="mode" />
    <circle
       style="display:inline;fill:#ff0000;stroke-width:0.264583"
       id="path2787-83-7"
       cx="33.723755"
       cy="51.870174"
       r="3.8932071"
       inkscape:label="interval" />
    <circle
       style="display:inline;fill:#ff0000;stroke-width:0.264583"
       id="path2787-83"
       cx="33.723755"
       cy="36.235546"
       r="3.8932071"
       inkscape:label="transpose" />
    <circle
       style="display:inline;fill:#00ff00;stroke-width:0.264583"
       id="path2787-0"
       cx="33.723755"
       cy="20.749207"
       r="3.8932071"
       inkscape:label="down" />
    <circle
       style="display:inline;fill:#00ff00;stroke-width:0.264583"
       id="path2787-0-0-8"
       cx="6.9162445"
       cy="115.79908"
       r="3.8932071"
       inkscape:label="v/oct 3" />
    <circle
       style="display:inline;fill:#00ff00;stroke-width:0.264583"
       id="path2787-0-0-1"
       cx="6.9162445"
       cy="102.39533"
       r="3.8932071"
       inkscape:label="v/oct 2" />
    <circle
       style="display:inline;fill:#00ff00;stroke-width:0.264583"
       id="path2787-0-0"
       cx="6.9162445"
       cy="88.991615"
       r="3.8932071"
       inkscape:label="v/oct 1" />
    <circle
       style="display:inline;fill:#00ff00;stroke-width:0.264583"
       id="path2787-0-0-7"
       cx="6.9162445"
       cy="67.578979"
       r="3.8932071"
       inkscape:label="mode" />
    <circle
       style="display:inline;fill:#00ff00;stroke-width:0.264583"
       id="path2787-0-0-6"
       cx="6.9162445"
       cy="51.870174"
       r="3.8932071"
       inkscape:label="interval" />
    <circle
       style="display:inline;fill:#00ff00;stroke-width:0.264583"
       id="path2787-8"
       cx="6.9162445"
       cy="36.235546"
       r="3.8932071"
       inkscape:label="transpose" />
    <circle
       style="display:inline;fill:#00ff00;stroke-width:0.264583"
       id="path2787"
       cx="6.9162445"
       cy="20.749207"
       r="3.8932071"
       inkscape:label="up" />
  </g>
</svg>
